<svg width="290" height="39" viewBox="0 0 290 39" fill="none" xmlns="http://www.w3.org/2000/svg">
<path d="M16.9727 20.1562H23.8086C23.7174 22.1354 23.1836 23.8802 22.207 25.3906C21.2305 26.901 19.8763 28.0794 18.1445 28.9258C16.4258 29.7591 14.3945 30.1758 12.0508 30.1758C10.1497 30.1758 8.45052 29.8568 6.95312 29.2188C5.46875 28.5807 4.20573 27.6628 3.16406 26.4648C2.13542 25.2669 1.34766 23.8151 0.800781 22.1094C0.266927 20.4036 0 18.4831 0 16.3477V14.8047C0 12.6693 0.279948 10.7487 0.839844 9.04297C1.41276 7.32422 2.22005 5.86589 3.26172 4.66797C4.31641 3.45703 5.57943 2.53255 7.05078 1.89453C8.52214 1.25651 10.1562 0.9375 11.9531 0.9375C14.4271 0.9375 16.5169 1.38021 18.2227 2.26562C19.9284 3.15104 21.25 4.36849 22.1875 5.91797C23.125 7.45443 23.6784 9.20573 23.8477 11.1719H17.0117C16.9857 10.1042 16.8034 9.21224 16.4648 8.49609C16.1263 7.76693 15.5924 7.22005 14.8633 6.85547C14.1341 6.49089 13.1641 6.30859 11.9531 6.30859C11.1068 6.30859 10.3711 6.46484 9.74609 6.77734C9.12109 7.08984 8.60026 7.58464 8.18359 8.26172C7.76693 8.9388 7.45443 9.81771 7.24609 10.8984C7.05078 11.9661 6.95312 13.2552 6.95312 14.7656V16.3477C6.95312 17.8581 7.04427 19.1471 7.22656 20.2148C7.40885 21.2826 7.70182 22.1549 8.10547 22.832C8.50911 23.5091 9.02995 24.0104 9.66797 24.3359C10.319 24.6484 11.1133 24.8047 12.0508 24.8047C13.0924 24.8047 13.9714 24.6419 14.6875 24.3164C15.4036 23.9779 15.957 23.4701 16.3477 22.793C16.7383 22.1029 16.9466 21.224 16.9727 20.1562ZM33.6914 8.65234V29.7852H27.0898V8.65234H33.6914ZM26.6992 3.20312C26.6992 2.26562 27.0378 1.4974 27.7148 0.898438C28.3919 0.299479 29.2708 0 30.3516 0C31.4323 0 32.3112 0.299479 32.9883 0.898438C33.6654 1.4974 34.0039 2.26562 34.0039 3.20312C34.0039 4.14062 33.6654 4.90885 32.9883 5.50781C32.3112 6.10677 31.4323 6.40625 30.3516 6.40625C29.2708 6.40625 28.3919 6.10677 27.7148 5.50781C27.0378 4.90885 26.6992 4.14062 26.6992 3.20312ZM44.2383 27.3047L49.707 8.65234H56.7773L48.2812 32.9297C48.099 33.4635 47.8581 34.0365 47.5586 34.6484C47.2591 35.2734 46.849 35.8659 46.3281 36.4258C45.8073 36.9857 45.1367 37.4414 44.3164 37.793C43.5091 38.1445 42.5065 38.3203 41.3086 38.3203C40.6706 38.3203 40.2018 38.2878 39.9023 38.2227C39.6159 38.1706 39.1732 38.0729 38.5742 37.9297V33.2227C38.7435 33.2227 38.8867 33.2227 39.0039 33.2227C39.1341 33.2227 39.2773 33.2227 39.4336 33.2227C40.1367 33.2227 40.6966 33.151 41.1133 33.0078C41.543 32.8646 41.8685 32.6562 42.0898 32.3828C42.3242 32.1094 42.5065 31.7773 42.6367 31.3867L44.2383 27.3047ZM42.8516 8.65234L47.0117 23.4375L47.7344 30.4102H43.3203L35.8008 8.65234H42.8516ZM57.3633 19.4336V19.0234C57.3633 17.474 57.5846 16.0482 58.0273 14.7461C58.4701 13.431 59.1211 12.2917 59.9805 11.3281C60.8398 10.3646 61.901 9.61589 63.1641 9.08203C64.4271 8.53516 65.8854 8.26172 67.5391 8.26172C69.2057 8.26172 70.6706 8.53516 71.9336 9.08203C73.2096 9.61589 74.2773 10.3646 75.1367 11.3281C75.9961 12.2917 76.6471 13.431 77.0898 14.7461C77.5326 16.0482 77.7539 17.474 77.7539 19.0234V19.4336C77.7539 20.9701 77.5326 22.3958 77.0898 23.7109C76.6471 25.013 75.9961 26.1523 75.1367 27.1289C74.2773 28.0924 73.2161 28.8411 71.9531 29.375C70.6901 29.9089 69.2318 30.1758 67.5781 30.1758C65.9245 30.1758 64.4596 29.9089 63.1836 29.375C61.9076 28.8411 60.8398 28.0924 59.9805 27.1289C59.1211 26.1523 58.4701 25.013 58.0273 23.7109C57.5846 22.3958 57.3633 20.9701 57.3633 19.4336ZM63.9453 19.0234V19.4336C63.9453 20.2279 64.0039 20.9701 64.1211 21.6602C64.2383 22.3503 64.4336 22.9557 64.707 23.4766C64.9805 23.9844 65.3516 24.3815 65.8203 24.668C66.2891 24.9544 66.875 25.0977 67.5781 25.0977C68.2682 25.0977 68.8411 24.9544 69.2969 24.668C69.7656 24.3815 70.1367 23.9844 70.4102 23.4766C70.6836 22.9557 70.8789 22.3503 70.9961 21.6602C71.1133 20.9701 71.1719 20.2279 71.1719 19.4336V19.0234C71.1719 18.2552 71.1133 17.5326 70.9961 16.8555C70.8789 16.1654 70.6836 15.5599 70.4102 15.0391C70.1367 14.5052 69.7656 14.0885 69.2969 13.7891C68.8281 13.4896 68.2422 13.3398 67.5391 13.3398C66.849 13.3398 66.2695 13.4896 65.8008 13.7891C65.3451 14.0885 64.9805 14.5052 64.707 15.0391C64.4336 15.5599 64.2383 16.1654 64.1211 16.8555C64.0039 17.5326 63.9453 18.2552 63.9453 19.0234ZM87.1484 13.1641V29.7852H80.5664V8.65234H86.7383L87.1484 13.1641ZM86.3672 18.4961L84.8242 18.5352C84.8242 16.9206 85.0195 15.4818 85.4102 14.2188C85.8008 12.9427 86.3542 11.862 87.0703 10.9766C87.7865 10.0911 88.6393 9.42057 89.6289 8.96484C90.6315 8.49609 91.7448 8.26172 92.9688 8.26172C93.9453 8.26172 94.8372 8.40495 95.6445 8.69141C96.4648 8.97786 97.168 9.4401 97.7539 10.0781C98.3529 10.7161 98.8086 11.5625 99.1211 12.6172C99.4466 13.6589 99.6094 14.9479 99.6094 16.4844V29.7852H92.9883V16.4648C92.9883 15.6185 92.8711 14.974 92.6367 14.5312C92.4023 14.0755 92.0638 13.763 91.6211 13.5938C91.1784 13.4245 90.638 13.3398 90 13.3398C89.3229 13.3398 88.75 13.4701 88.2812 13.7305C87.8125 13.9909 87.4349 14.3555 87.1484 14.8242C86.875 15.2799 86.6732 15.8203 86.543 16.4453C86.4258 17.0703 86.3672 17.7539 86.3672 18.4961ZM113.496 30.1758C111.777 30.1758 110.241 29.9089 108.887 29.375C107.533 28.8281 106.387 28.0794 105.449 27.1289C104.525 26.1784 103.815 25.0846 103.32 23.8477C102.839 22.6107 102.598 21.3021 102.598 19.9219V19.1797C102.598 17.6302 102.812 16.1979 103.242 14.8828C103.672 13.5547 104.31 12.3958 105.156 11.4062C106.003 10.4167 107.064 9.64844 108.34 9.10156C109.616 8.54167 111.1 8.26172 112.793 8.26172C114.29 8.26172 115.632 8.5026 116.816 8.98438C118.001 9.46615 119.004 10.1562 119.824 11.0547C120.658 11.9531 121.289 13.0404 121.719 14.3164C122.161 15.5924 122.383 17.0247 122.383 18.6133V21.2891H105.117V17.168H115.957V16.6602C115.97 15.957 115.846 15.3581 115.586 14.8633C115.339 14.3685 114.974 13.9909 114.492 13.7305C114.01 13.4701 113.424 13.3398 112.734 13.3398C112.018 13.3398 111.426 13.4961 110.957 13.8086C110.501 14.1211 110.143 14.5508 109.883 15.0977C109.635 15.6315 109.46 16.25 109.355 16.9531C109.251 17.6562 109.199 18.3984 109.199 19.1797V19.9219C109.199 20.7031 109.303 21.4128 109.512 22.0508C109.733 22.6888 110.046 23.2357 110.449 23.6914C110.866 24.1341 111.361 24.4792 111.934 24.7266C112.52 24.974 113.184 25.0977 113.926 25.0977C114.824 25.0977 115.71 24.9284 116.582 24.5898C117.454 24.2513 118.203 23.6914 118.828 22.9102L121.816 26.4648C121.387 27.0768 120.775 27.6693 119.98 28.2422C119.199 28.8151 118.262 29.2839 117.168 29.6484C116.074 30 114.85 30.1758 113.496 30.1758ZM159.082 1.34766V29.7852H152.246L142.188 12.0898V29.7852H135.332V1.34766H142.188L152.246 19.043V1.34766H159.082ZM175.449 24.6484V8.65234H182.051V29.7852H175.879L175.449 24.6484ZM176.074 20.3516L177.793 20.3125C177.793 21.7318 177.624 23.0469 177.285 24.2578C176.947 25.4557 176.445 26.4974 175.781 27.3828C175.13 28.2682 174.323 28.9583 173.359 29.4531C172.409 29.9349 171.309 30.1758 170.059 30.1758C169.017 30.1758 168.06 30.0326 167.188 29.7461C166.328 29.4466 165.586 28.9844 164.961 28.3594C164.336 27.7214 163.848 26.9076 163.496 25.918C163.158 24.9154 162.988 23.7174 162.988 22.3242V8.65234H169.57V22.3633C169.57 22.832 169.629 23.2357 169.746 23.5742C169.863 23.9128 170.033 24.1992 170.254 24.4336C170.475 24.6549 170.749 24.8242 171.074 24.9414C171.413 25.0456 171.797 25.0977 172.227 25.0977C173.216 25.0977 173.991 24.8893 174.551 24.4727C175.111 24.056 175.501 23.4896 175.723 22.7734C175.957 22.0573 176.074 21.25 176.074 20.3516ZM196.816 8.65234V13.2227H184.082V8.65234H196.816ZM186.758 3.39844H193.34V22.8906C193.34 23.4505 193.405 23.8867 193.535 24.1992C193.665 24.4987 193.887 24.7135 194.199 24.8438C194.525 24.9609 194.954 25.0195 195.488 25.0195C195.866 25.0195 196.178 25.013 196.426 25C196.673 24.974 196.908 24.9414 197.129 24.9023V29.6094C196.569 29.7917 195.983 29.9284 195.371 30.0195C194.759 30.1237 194.108 30.1758 193.418 30.1758C192.012 30.1758 190.807 29.9544 189.805 29.5117C188.815 29.069 188.06 28.3724 187.539 27.4219C187.018 26.4714 186.758 25.2344 186.758 23.7109V3.39844ZM206.074 13.8867V29.7852H199.492V8.65234H205.645L206.074 13.8867ZM212.324 8.49609L212.207 14.6094C211.947 14.5833 211.595 14.5508 211.152 14.5117C210.71 14.4727 210.339 14.4531 210.039 14.4531C209.271 14.4531 208.607 14.5443 208.047 14.7266C207.5 14.8958 207.044 15.1562 206.68 15.5078C206.328 15.8464 206.068 16.276 205.898 16.7969C205.742 17.3177 205.671 17.9232 205.684 18.6133L204.492 17.832C204.492 16.4128 204.629 15.1237 204.902 13.9648C205.189 12.793 205.592 11.7839 206.113 10.9375C206.634 10.0781 207.266 9.42057 208.008 8.96484C208.75 8.49609 209.583 8.26172 210.508 8.26172C210.833 8.26172 211.152 8.28125 211.465 8.32031C211.79 8.35938 212.077 8.41797 212.324 8.49609ZM221.543 8.65234V29.7852H214.941V8.65234H221.543ZM214.551 3.20312C214.551 2.26562 214.889 1.4974 215.566 0.898438C216.243 0.299479 217.122 0 218.203 0C219.284 0 220.163 0.299479 220.84 0.898438C221.517 1.4974 221.855 2.26562 221.855 3.20312C221.855 4.14062 221.517 4.90885 220.84 5.50781C220.163 6.10677 219.284 6.40625 218.203 6.40625C217.122 6.40625 216.243 6.10677 215.566 5.50781C214.889 4.90885 214.551 4.14062 214.551 3.20312ZM232.246 13.125V29.7852H225.664V8.65234H231.836L232.246 13.125ZM231.445 18.4961L229.941 18.5352C229.941 17.0508 230.117 15.6836 230.469 14.4336C230.82 13.1836 231.341 12.0964 232.031 11.1719C232.721 10.2474 233.568 9.53125 234.57 9.02344C235.586 8.51562 236.758 8.26172 238.086 8.26172C239.01 8.26172 239.85 8.40495 240.605 8.69141C241.361 8.96484 242.012 9.40104 242.559 10C243.105 10.5859 243.522 11.3542 243.809 12.3047C244.108 13.2422 244.258 14.3685 244.258 15.6836V29.7852H237.676V16.5234C237.676 15.625 237.572 14.9479 237.363 14.4922C237.168 14.0365 236.882 13.7305 236.504 13.5742C236.126 13.418 235.664 13.3398 235.117 13.3398C234.544 13.3398 234.03 13.4701 233.574 13.7305C233.118 13.9909 232.728 14.3555 232.402 14.8242C232.09 15.2799 231.849 15.8203 231.68 16.4453C231.523 17.0703 231.445 17.7539 231.445 18.4961ZM243.516 18.4961L241.68 18.5352C241.68 17.0508 241.842 15.6836 242.168 14.4336C242.507 13.1836 243.008 12.0964 243.672 11.1719C244.349 10.2474 245.189 9.53125 246.191 9.02344C247.194 8.51562 248.359 8.26172 249.688 8.26172C250.651 8.26172 251.536 8.40495 252.344 8.69141C253.151 8.97786 253.848 9.4401 254.434 10.0781C255.02 10.7161 255.475 11.5625 255.801 12.6172C256.126 13.6589 256.289 14.9479 256.289 16.4844V29.7852H249.688V16.4844C249.688 15.612 249.583 14.9544 249.375 14.5117C249.18 14.056 248.893 13.75 248.516 13.5938C248.138 13.4245 247.689 13.3398 247.168 13.3398C246.543 13.3398 246.003 13.4701 245.547 13.7305C245.091 13.9909 244.707 14.3555 244.395 14.8242C244.095 15.2799 243.874 15.8203 243.73 16.4453C243.587 17.0703 243.516 17.7539 243.516 18.4961ZM267.012 8.65234V29.7852H260.41V8.65234H267.012ZM260.02 3.20312C260.02 2.26562 260.358 1.4974 261.035 0.898438C261.712 0.299479 262.591 0 263.672 0C264.753 0 265.632 0.299479 266.309 0.898438C266.986 1.4974 267.324 2.26562 267.324 3.20312C267.324 4.14062 266.986 4.90885 266.309 5.50781C265.632 6.10677 264.753 6.40625 263.672 6.40625C262.591 6.40625 261.712 6.10677 261.035 5.50781C260.358 4.90885 260.02 4.14062 260.02 3.20312ZM276.66 8.65234L279.629 14.4727L282.695 8.65234H289.531L283.984 18.9453L289.824 29.7852H282.93L279.629 23.5352L276.348 29.7852H269.453L275.293 18.9453L269.766 8.65234H276.66Z" fill="url(#paint0_linear_2256_1152)"/>
<defs>
<linearGradient id="paint0_linear_2256_1152" x1="-1.76172" y1="16.2851" x2="290.238" y2="16.2852" gradientUnits="userSpaceOnUse">
<stop offset="0.225962" stop-color="#07BFF2"/>
<stop offset="0.810417" stop-color="#2C9CF2"/>
</linearGradient>
</defs>
</svg>
