<svg width="100" height="100" viewBox="0 0 100 100" fill="none" xmlns="http://www.w3.org/2000/svg">
<path d="M77.7917 8.33337H69.875C60.7917 8.33337 56 13.125 56 22.2084V30.125C56 39.2084 60.7917 44 69.875 44H77.7917C86.875 44 91.6667 39.2084 91.6667 30.125V22.2084C91.6667 13.125 86.875 8.33337 77.7917 8.33337Z" fill="black"/>
<path d="M30.1667 55.9584H22.25C13.125 55.9584 8.33333 60.75 8.33333 69.8334V77.75C8.33333 86.875 13.125 91.6667 22.2083 91.6667H30.125C39.2083 91.6667 44 86.875 44 77.7917V69.875C44.0417 60.75 39.25 55.9584 30.1667 55.9584Z" fill="black"/>
<path d="M26.2083 44.0834C36.0804 44.0834 44.0833 36.0805 44.0833 26.2084C44.0833 16.3363 36.0804 8.33337 26.2083 8.33337C16.3362 8.33337 8.33333 16.3363 8.33333 26.2084C8.33333 36.0805 16.3362 44.0834 26.2083 44.0834Z" fill="black"/>
<path d="M73.7917 91.6666C83.6637 91.6666 91.6667 83.6637 91.6667 73.7916C91.6667 63.9195 83.6637 55.9166 73.7917 55.9166C63.9196 55.9166 55.9167 63.9195 55.9167 73.7916C55.9167 83.6637 63.9196 91.6666 73.7917 91.6666Z" fill="black"/>
</svg>
