<svg width="100" height="100" viewBox="0 0 100 100" fill="none" xmlns="http://www.w3.org/2000/svg">
<path d="M23.9167 66.6667C24.375 64.625 23.5417 61.7084 22.0833 60.25L11.9583 50.125C8.79166 46.9584 7.54166 43.5834 8.45833 40.6667C9.41666 37.75 12.375 35.75 16.7917 35L29.7917 32.8334C31.6667 32.5 33.9583 30.8334 34.8333 29.125L42 14.75C44.0833 10.625 46.9167 8.33337 50 8.33337C53.0833 8.33337 55.9167 10.625 58 14.75L65.1667 29.125C65.7083 30.2084 66.8333 31.25 68.0417 31.9584L23.1667 76.8334C22.5833 77.4167 21.5833 76.875 21.75 76.0417L23.9167 66.6667Z" fill="black"/>
<path d="M77.9167 60.25C76.4167 61.75 75.5833 64.625 76.0833 66.6667L78.9583 79.2084C80.1667 84.4167 79.4167 88.3334 76.8333 90.2084C75.7917 90.9584 74.5417 91.3334 73.0833 91.3334C70.9583 91.3334 68.4583 90.5417 65.7083 88.9167L53.5 81.6667C51.5833 80.5417 48.4167 80.5417 46.5 81.6667L34.2917 88.9167C29.6667 91.625 25.7083 92.0834 23.1667 90.2084C22.2083 89.5 21.5 88.5417 21.0417 87.2917L71.7083 36.625C73.625 34.7084 76.3333 33.8334 78.9583 34.2917L83.1667 35C87.5833 35.75 90.5417 37.75 91.5 40.6667C92.4167 43.5834 91.1667 46.9584 88 50.125L77.9167 60.25Z" fill="black"/>
</svg>
