<svg width="100" height="100" viewBox="0 0 100 100" fill="none" xmlns="http://www.w3.org/2000/svg">
<path d="M83.5 28.4167L59.5 11.625C52.9583 7.04169 42.9167 7.29169 36.625 12.1667L15.75 28.4584C11.5833 31.7084 8.29166 38.375 8.29166 43.625V72.375C8.29166 83 16.9167 91.6667 27.5417 91.6667H72.4583C83.0833 91.6667 91.7083 83.0417 91.7083 72.4167V44.1667C91.7083 38.5417 88.0833 31.625 83.5 28.4167ZM53.125 75C53.125 76.7084 51.7083 78.125 50 78.125C48.2917 78.125 46.875 76.7084 46.875 75V62.5C46.875 60.7917 48.2917 59.375 50 59.375C51.7083 59.375 53.125 60.7917 53.125 62.5V75Z" fill="black"/>
</svg>
