<svg width="100" height="100" viewBox="0 0 100 100" fill="none" xmlns="http://www.w3.org/2000/svg">
<path d="M50 8.33337C39.0833 8.33337 30.2083 17.2084 30.2083 28.125C30.2083 38.8334 38.5833 47.5 49.5 47.875C49.8333 47.8334 50.1667 47.8334 50.4167 47.875C50.5 47.875 50.5417 47.875 50.625 47.875C50.6667 47.875 50.6667 47.875 50.7083 47.875C61.375 47.5 69.75 38.8334 69.7917 28.125C69.7917 17.2084 60.9167 8.33337 50 8.33337Z" fill="black"/>
<path d="M71.1667 58.9584C59.5417 51.2084 40.5833 51.2084 28.875 58.9584C23.5834 62.5 20.6667 67.2917 20.6667 72.4167C20.6667 77.5417 23.5834 82.2917 28.8334 85.7917C34.6667 89.7084 42.3334 91.6667 50 91.6667C57.6667 91.6667 65.3333 89.7084 71.1667 85.7917C76.4167 82.25 79.3333 77.5 79.3333 72.3334C79.2917 67.2084 76.4167 62.4584 71.1667 58.9584Z" fill="black"/>
</svg>
