<svg width="100" height="100" viewBox="0 0 100 100" fill="none" xmlns="http://www.w3.org/2000/svg">
<path d="M37.5006 91.6667H62.5006C83.334 91.6667 91.6673 83.3333 91.6673 62.5V37.5C91.6673 16.6667 83.334 8.33334 62.5006 8.33334H37.5006C16.6673 8.33334 8.33398 16.6667 8.33398 37.5V62.5C8.33398 83.3333 16.6673 91.6667 37.5006 91.6667Z" stroke="black" stroke-width="6" stroke-linecap="round" stroke-linejoin="round"/>
<path d="M27.916 38.5833L49.9993 51.375L71.916 38.6667" stroke="black" stroke-width="6" stroke-linecap="round" stroke-linejoin="round"/>
<path d="M50 74.0417V51.3333" stroke="black" stroke-width="6" stroke-linecap="round" stroke-linejoin="round"/>
<path d="M44.8334 26.2083L31.5 33.625C28.5 35.2917 26 39.5 26 42.9583V57.0833C26 60.5417 28.4584 64.75 31.5 66.4167L44.8334 73.8333C47.6667 75.4167 52.3334 75.4167 55.2084 73.8333L68.5418 66.4167C71.5418 64.75 74.0417 60.5417 74.0417 57.0833V42.9167C74.0417 39.4584 71.5834 35.25 68.5418 33.5833L55.2084 26.1667C52.3334 24.5833 47.6667 24.5833 44.8334 26.2083Z" stroke="black" stroke-width="6" stroke-linecap="round" stroke-linejoin="round"/>
</svg>
