<svg width="100" height="100" viewBox="0 0 100 100" fill="none" xmlns="http://www.w3.org/2000/svg">
<path d="M91.5423 76.375C91.5423 77.875 91.209 79.4166 90.5006 80.9166C89.7923 82.4166 88.8757 83.8333 87.6673 85.1666C85.6257 87.4166 83.3756 89.0416 80.834 90.0833C78.334 91.125 75.6257 91.6666 72.709 91.6666C68.459 91.6666 63.9173 90.6666 59.1256 88.625C54.334 86.5833 49.5423 83.8333 44.7923 80.375C40.0006 76.875 35.459 73 31.1256 68.7083C26.834 64.375 22.959 59.8333 19.5006 55.0833C16.084 50.3333 13.334 45.5833 11.334 40.875C9.33398 36.125 8.33398 31.5833 8.33398 27.25C8.33398 24.4166 8.83398 21.7083 9.83398 19.2083C10.834 16.6666 12.4173 14.3333 14.6257 12.25C17.2923 9.62496 20.209 8.3333 23.2923 8.3333C24.459 8.3333 25.6257 8.5833 26.6673 9.0833C27.7507 9.5833 28.709 10.3333 29.459 11.4166L39.1257 25.0416C39.8757 26.0833 40.4173 27.0416 40.7923 27.9583C41.1673 28.8333 41.3757 29.7083 41.3757 30.5C41.3757 31.5 41.084 32.5 40.5007 33.4583C39.959 34.4166 39.1673 35.4166 38.1673 36.4166L35.0006 39.7083C34.5423 40.1666 34.334 40.7083 34.334 41.375C34.334 41.7083 34.3757 42 34.459 42.3333C34.584 42.6666 34.709 42.9166 34.7923 43.1666C35.5423 44.5416 36.834 46.3333 38.6673 48.5C40.5423 50.6666 42.5423 52.875 44.709 55.0833C46.959 57.2916 49.1256 59.3333 51.334 61.2083C53.5006 63.0416 55.2923 64.2916 56.709 65.0416C56.9173 65.125 57.1673 65.25 57.459 65.375C57.7923 65.5 58.1256 65.5416 58.5006 65.5416C59.209 65.5416 59.7506 65.2916 60.209 64.8333L63.3756 61.7083C64.4173 60.6666 65.4173 59.875 66.3757 59.375C67.334 58.7916 68.2923 58.5 69.334 58.5C70.1256 58.5 70.959 58.6666 71.8756 59.0416C72.7923 59.4166 73.7507 59.9583 74.7923 60.6666L88.584 70.4583C89.6673 71.2083 90.4173 72.0833 90.8756 73.125C91.2923 74.1666 91.5423 75.2083 91.5423 76.375Z" stroke="black" stroke-width="6" stroke-miterlimit="10"/>
<path d="M77.0833 37.5C77.0833 35 75.125 31.1667 72.2083 28.0417C69.5417 25.1667 66 22.9167 62.5 22.9167" stroke="black" stroke-width="6" stroke-linecap="round" stroke-linejoin="round"/>
<path d="M91.6667 37.5C91.6667 21.375 78.625 8.33331 62.5 8.33331" stroke="black" stroke-width="6" stroke-linecap="round" stroke-linejoin="round"/>
</svg>
