<svg width="100" height="89" viewBox="0 0 100 89" fill="none" xmlns="http://www.w3.org/2000/svg">
<mask id="path-1-inside-1_2541_77" fill="white">
<path d="M74.5432 83.8745H7.09855C5.07032 83.8745 3.44741 82.2516 3.44741 80.2233V21.3994H96.45V63.2861L99.8982 63.7933L99.8989 7.09926C99.8989 3.24509 96.755 0 92.7996 0H7.09926C3.24509 0 0 3.14386 0 7.09926V80.2235C0 84.0776 3.14386 87.3227 7.09926 87.3227H74.9496L74.5432 83.8745ZM3.44741 7.09911C3.44741 5.07088 5.0703 3.44797 7.09855 3.44797H92.7989C94.8271 3.44797 96.45 5.07087 96.45 7.09911L96.4507 17.9507H3.44812L3.44741 7.09911Z"/>
</mask>
<path d="M74.5432 83.8745H7.09855C5.07032 83.8745 3.44741 82.2516 3.44741 80.2233V21.3994H96.45V63.2861L99.8982 63.7933L99.8989 7.09926C99.8989 3.24509 96.755 0 92.7996 0H7.09926C3.24509 0 0 3.14386 0 7.09926V80.2235C0 84.0776 3.14386 87.3227 7.09926 87.3227H74.9496L74.5432 83.8745ZM3.44741 7.09911C3.44741 5.07088 5.0703 3.44797 7.09855 3.44797H92.7989C94.8271 3.44797 96.45 5.07087 96.45 7.09911L96.4507 17.9507H3.44812L3.44741 7.09911Z" fill="black"/>
<path d="M74.5432 83.8745L80.502 83.1722L79.8776 77.8745H74.5432V83.8745ZM3.44741 21.3994V15.3994H-2.55259V21.3994H3.44741ZM96.45 21.3994H102.45V15.3994H96.45V21.3994ZM96.45 63.2861H90.45V68.468L95.5768 69.2222L96.45 63.2861ZM99.8982 63.7933L99.0249 69.7295L105.898 70.7406L105.898 63.7934L99.8982 63.7933ZM99.8989 7.09926L105.899 7.09933V7.09926H99.8989ZM74.9496 87.3227V93.3227H81.6982L80.9084 86.6205L74.9496 87.3227ZM3.44741 7.09911L-2.55259 7.09911L-2.55259 7.0995L3.44741 7.09911ZM96.45 7.09911L90.45 7.09911L90.45 7.0995L96.45 7.09911ZM96.4507 17.9507V23.9507H102.451L102.451 17.9504L96.4507 17.9507ZM3.44812 17.9507L-2.55188 17.9511L-2.55149 23.9507H3.44812V17.9507ZM74.5432 83.8745V77.8745H7.09855V83.8745V89.8745H74.5432V83.8745ZM7.09855 83.8745V77.8745C8.38401 77.8745 9.44741 78.9378 9.44741 80.2233H3.44741H-2.55259C-2.55259 85.5653 1.75663 89.8745 7.09855 89.8745V83.8745ZM3.44741 80.2233H9.44741V21.3994H3.44741H-2.55259V80.2233H3.44741ZM3.44741 21.3994V27.3994H96.45V21.3994V15.3994H3.44741V21.3994ZM96.45 21.3994H90.45V63.2861H96.45H102.45V21.3994H96.45ZM96.45 63.2861L95.5768 69.2222L99.0249 69.7295L99.8982 63.7933L100.771 57.8572L97.3233 57.35L96.45 63.2861ZM99.8982 63.7933L105.898 63.7934L105.899 7.09933L99.8989 7.09926L93.8989 7.09918L93.8982 63.7933L99.8982 63.7933ZM99.8989 7.09926H105.899C105.899 -0.0128371 100.124 -6 92.7996 -6V0V6C93.3858 6 93.8989 6.50303 93.8989 7.09926H99.8989ZM92.7996 0V-6H7.09926V0V6H92.7996V0ZM7.09926 0V-6C-0.0128429 -6 -6 -0.225351 -6 7.09926H0H6C6 6.51306 6.50303 6 7.09926 6V0ZM0 7.09926H-6V80.2235H0H6V7.09926H0ZM0 80.2235H-6C-6 87.3356 -0.225353 93.3227 7.09926 93.3227V87.3227V81.3227C6.51306 81.3227 6 80.8197 6 80.2235H0ZM7.09926 87.3227V93.3227H74.9496V87.3227V81.3227H7.09926V87.3227ZM74.9496 87.3227L80.9084 86.6205L80.502 83.1722L74.5432 83.8745L68.5844 84.5767L68.9908 88.025L74.9496 87.3227ZM3.44741 7.09911H9.44741C9.44741 8.38457 8.38403 9.44797 7.09855 9.44797V3.44797V-2.55203C1.75657 -2.55203 -2.55259 1.7572 -2.55259 7.09911H3.44741ZM7.09855 3.44797V9.44797H92.7989V3.44797V-2.55203H7.09855V3.44797ZM92.7989 3.44797V9.44797C91.5134 9.44797 90.45 8.38458 90.45 7.09911H96.45H102.45C102.45 1.75715 98.1408 -2.55203 92.7989 -2.55203V3.44797ZM96.45 7.09911L90.45 7.0995L90.4507 17.9511L96.4507 17.9507L102.451 17.9504L102.45 7.09872L96.45 7.09911ZM96.4507 17.9507V11.9507H3.44812V17.9507V23.9507H96.4507V17.9507ZM3.44812 17.9507L9.44812 17.9504L9.44741 7.09872L3.44741 7.09911L-2.55259 7.0995L-2.55188 17.9511L3.44812 17.9507Z" fill="black" mask="url(#path-1-inside-1_2541_77)"/>
<mask id="path-3-inside-2_2541_77" fill="white">
<path d="M83.064 88.4383C82.2525 88.4383 81.6441 87.9311 81.4411 87.2215L75.6597 65.9232C75.4567 65.3148 75.6597 64.7064 76.0651 64.1992C76.4705 63.7938 77.1808 63.5907 77.7892 63.7938L98.7832 69.8794C99.4935 70.0824 100 70.6908 100 71.5023C100 72.2126 99.5947 72.9221 98.8844 73.1252L88.5393 76.8775L84.6852 87.3239C84.3824 87.9316 83.774 88.4388 83.0637 88.4388L83.064 88.4383ZM79.7171 67.9514L83.3682 81.1363L85.5995 74.9496C85.8025 74.4424 86.1067 74.1381 86.614 73.9351L92.6996 71.7039L79.7171 67.9514Z"/>
</mask>
<path d="M83.064 88.4383C82.2525 88.4383 81.6441 87.9311 81.4411 87.2215L75.6597 65.9232C75.4567 65.3148 75.6597 64.7064 76.0651 64.1992C76.4705 63.7938 77.1808 63.5907 77.7892 63.7938L98.7832 69.8794C99.4935 70.0824 100 70.6908 100 71.5023C100 72.2126 99.5947 72.9221 98.8844 73.1252L88.5393 76.8775L84.6852 87.3239C84.3824 87.9316 83.774 88.4388 83.0637 88.4388L83.064 88.4383ZM79.7171 67.9514L83.3682 81.1363L85.5995 74.9496C85.8025 74.4424 86.1067 74.1381 86.614 73.9351L92.6996 71.7039L79.7171 67.9514Z" fill="black"/>
<path d="M83.064 88.4383L88.0946 91.7083L94.1201 82.4383H83.064V88.4383ZM81.4411 87.2215L75.6506 88.7933L75.6613 88.8328L75.6726 88.8721L81.4411 87.2215ZM75.6597 65.9232L81.4502 64.3514L81.4054 64.1862L81.3512 64.0239L75.6597 65.9232ZM76.0651 64.1992L71.8225 59.9565L71.5865 60.1925L71.3781 60.4533L76.0651 64.1992ZM77.7892 63.7938L75.8898 69.4852L76.0035 69.5232L76.1187 69.5566L77.7892 63.7938ZM98.7832 69.8794L97.1128 75.6421L97.1235 75.6452L97.1341 75.6483L98.7832 69.8794ZM98.8844 73.1252L97.2353 67.3562L97.0347 67.4136L96.8385 67.4847L98.8844 73.1252ZM88.5393 76.8775L86.4934 71.2371L83.8745 72.187L82.9102 74.8007L88.5393 76.8775ZM84.6852 87.3239L90.0555 89.9996L90.2012 89.7072L90.3142 89.4007L84.6852 87.3239ZM83.0637 88.4388L78.033 85.1689L72.0076 94.4388H83.0637V88.4388ZM79.7171 67.9514L81.3831 62.1874L71.0696 59.2063L73.9347 69.5527L79.7171 67.9514ZM83.3682 81.1363L77.5858 82.7375L82.6168 100.905L89.0124 83.1718L83.3682 81.1363ZM85.5995 74.9496L80.0292 72.7199L79.9906 72.8163L79.9553 72.914L85.5995 74.9496ZM86.614 73.9351L84.5486 68.3018L84.466 68.3321L84.3843 68.3648L86.614 73.9351ZM92.6996 71.7039L94.765 77.3372L111.971 71.0285L94.3656 65.9398L92.6996 71.7039ZM83.064 88.4383V82.4383C83.9483 82.4383 84.8918 82.7292 85.6929 83.3482C86.4764 83.9536 86.977 84.7582 87.2096 85.5709L81.4411 87.2215L75.6726 88.8721C76.5796 92.0418 79.4572 94.4383 83.064 94.4383V88.4383ZM81.4411 87.2215L87.2315 85.6497L81.4502 64.3514L75.6597 65.9232L69.8693 67.495L75.6506 88.7933L81.4411 87.2215ZM75.6597 65.9232L81.3512 64.0239C82.0035 65.9786 81.1354 67.4655 80.7522 67.945L76.0651 64.1992L71.3781 60.4533C70.1841 61.9473 68.9099 64.651 69.9683 67.8226L75.6597 65.9232ZM76.0651 64.1992L80.3078 68.4418C79.6598 69.0897 78.9389 69.431 78.3058 69.5893C77.6569 69.7515 76.8102 69.7924 75.8898 69.4852L77.7892 63.7938L79.6886 58.1024C76.8066 57.1406 73.7462 58.0328 71.8225 59.9565L76.0651 64.1992ZM77.7892 63.7938L76.1187 69.5566L97.1128 75.6421L98.7832 69.8794L100.454 64.1166L79.4596 58.031L77.7892 63.7938ZM98.7832 69.8794L97.1341 75.6483C96.3213 75.4159 95.5156 74.9151 94.9095 74.1303C94.2899 73.3281 94.0001 72.3847 94.0001 71.5023H100H106C106 67.8981 103.607 65.0178 100.432 64.1104L98.7832 69.8794ZM100 71.5023H94.0001C94.0001 70.249 94.7423 68.0689 97.2353 67.3562L98.8844 73.1252L100.533 78.8941C104.447 77.7754 106 74.1761 106 71.5023H100ZM98.8844 73.1252L96.8385 67.4847L86.4934 71.2371L88.5393 76.8775L90.5852 82.518L100.93 78.7656L98.8844 73.1252ZM88.5393 76.8775L82.9102 74.8007L79.0561 85.247L84.6852 87.3239L90.3142 89.4007L94.1684 78.9544L88.5393 76.8775ZM84.6852 87.3239L79.3149 84.6481C79.5639 84.1483 79.9452 83.6591 80.4976 83.2573C81.0694 82.8413 81.9499 82.4388 83.0637 82.4388V88.4388V94.4388C86.709 94.4388 89.0696 91.9782 90.0555 89.9996L84.6852 87.3239ZM83.0637 88.4388L88.0943 91.7087L88.0946 91.7083L83.064 88.4383L78.0333 85.1684L78.033 85.1689L83.0637 88.4388ZM79.7171 67.9514L73.9347 69.5527L77.5858 82.7375L83.3682 81.1363L89.1506 79.535L85.4995 66.3502L79.7171 67.9514ZM83.3682 81.1363L89.0124 83.1718L91.2436 76.9852L85.5995 74.9496L79.9553 72.914L77.7241 79.1007L83.3682 81.1363ZM85.5995 74.9496L91.1698 77.1793C91.034 77.5186 90.7558 78.0504 90.2353 78.5709C89.7148 79.0914 89.1829 79.3696 88.8437 79.5054L86.614 73.9351L84.3843 68.3648C82.3535 69.1777 80.8421 70.6891 80.0292 72.7199L85.5995 74.9496ZM86.614 73.9351L88.6794 79.5684L94.765 77.3372L92.6996 71.7039L90.6342 66.0706L84.5486 68.3018L86.614 73.9351ZM92.6996 71.7039L94.3656 65.9398L81.3831 62.1874L79.7171 67.9514L78.0511 73.7155L91.0335 77.4679L92.6996 71.7039Z" fill="black" mask="url(#path-3-inside-2_2541_77)"/>
<path d="M12.676 10.4034C12.8123 10.4035 12.9221 10.5139 12.9221 10.6486C12.9221 10.7844 12.8119 10.8946 12.676 10.8947C12.5413 10.8947 12.4309 10.7848 12.4309 10.6486C12.4309 10.5134 12.5409 10.4034 12.676 10.4034Z" fill="black" stroke="black" stroke-width="6"/>
<path d="M22.9211 10.4033C23.0561 10.4034 23.1663 10.5133 23.1663 10.6484C23.1662 10.7846 23.0557 10.8943 22.9211 10.8945C22.7853 10.8945 22.6751 10.7842 22.675 10.6484C22.675 10.5137 22.7849 10.4033 22.9211 10.4033Z" fill="black" stroke="black" stroke-width="6"/>
<path d="M32.8599 10.4033C32.9949 10.4034 33.105 10.5133 33.105 10.6484C33.105 10.7846 32.9944 10.8943 32.8599 10.8945C32.724 10.8945 32.6138 10.7842 32.6138 10.6484C32.6138 10.5137 32.7236 10.4033 32.8599 10.4033Z" fill="black" stroke="black" stroke-width="6"/>
<mask id="path-8-inside-3_2541_77" fill="white">
<path d="M86.916 34.0771H67.4433C66.5307 34.0771 65.7192 34.8885 65.7192 35.8011C65.7192 36.7138 66.5307 37.5252 67.4433 37.5252H86.916C87.8287 37.5252 88.6401 36.7138 88.6401 35.8011C88.6401 34.8885 87.9298 34.0771 86.916 34.0771Z"/>
</mask>
<path d="M86.916 34.0771H67.4433C66.5307 34.0771 65.7192 34.8885 65.7192 35.8011C65.7192 36.7138 66.5307 37.5252 67.4433 37.5252H86.916C87.8287 37.5252 88.6401 36.7138 88.6401 35.8011C88.6401 34.8885 87.9298 34.0771 86.916 34.0771Z" fill="black"/>
<path d="M86.916 34.0771V28.0771H67.4433V34.0771V40.0771H86.916V34.0771ZM67.4433 34.0771V28.0771C63.2169 28.0771 59.7192 31.5749 59.7192 35.8011H65.7192H71.7192C71.7192 37.1331 71.1426 38.1786 70.4817 38.8395C69.8208 39.5004 68.7753 40.0771 67.4433 40.0771V34.0771ZM65.7192 35.8011H59.7192C59.7192 40.0275 63.217 43.5252 67.4433 43.5252V37.5252V31.5252C68.7753 31.5252 69.8208 32.1019 70.4817 32.7628C71.1425 33.4236 71.7192 34.4691 71.7192 35.8011H65.7192ZM67.4433 37.5252V43.5252H86.916V37.5252V31.5252H67.4433V37.5252ZM86.916 37.5252V43.5252C91.1424 43.5252 94.6401 40.0274 94.6401 35.8011H88.6401H82.6401C82.6401 34.4692 83.2168 33.4237 83.8776 32.7628C84.5385 32.1019 85.584 31.5252 86.916 31.5252V37.5252ZM88.6401 35.8011H94.6401C94.6401 31.8074 91.4714 28.0771 86.916 28.0771V34.0771V40.0771C84.3882 40.0771 82.6401 37.9696 82.6401 35.8011H88.6401Z" fill="black" mask="url(#path-8-inside-3_2541_77)"/>
<mask id="path-10-inside-4_2541_77" fill="white">
<path d="M86.916 42.7991H67.4433C66.5307 42.7991 65.7192 43.6105 65.7192 44.5231C65.7192 45.4358 66.5307 46.2472 67.4433 46.2472H86.916C87.8287 46.2472 88.6401 45.4357 88.6401 44.5231C88.6401 43.6098 87.9298 42.7991 86.916 42.7991Z"/>
</mask>
<path d="M86.916 42.7991H67.4433C66.5307 42.7991 65.7192 43.6105 65.7192 44.5231C65.7192 45.4358 66.5307 46.2472 67.4433 46.2472H86.916C87.8287 46.2472 88.6401 45.4357 88.6401 44.5231C88.6401 43.6098 87.9298 42.7991 86.916 42.7991Z" fill="black"/>
<path d="M86.916 42.7991V36.7991H67.4433V42.7991V48.7991H86.916V42.7991ZM67.4433 42.7991V36.7991C63.2169 36.7991 59.7192 40.2969 59.7192 44.5231H65.7192H71.7192C71.7192 45.8551 71.1426 46.9006 70.4817 47.5615C69.8208 48.2224 68.7753 48.7991 67.4433 48.7991V42.7991ZM65.7192 44.5231H59.7192C59.7192 48.7495 63.217 52.2472 67.4433 52.2472V46.2472V40.2472C68.7753 40.2472 69.8208 40.8239 70.4817 41.4847C71.1425 42.1456 71.7192 43.1911 71.7192 44.5231H65.7192ZM67.4433 46.2472V52.2472H86.916V46.2472V40.2472H67.4433V46.2472ZM86.916 46.2472V52.2472C91.1424 52.2472 94.6401 48.7494 94.6401 44.5231H88.6401H82.6401C82.6401 43.1911 83.2168 42.1456 83.8776 41.4848C84.5385 40.8239 85.584 40.2472 86.916 40.2472V46.2472ZM88.6401 44.5231H94.6401C94.6401 40.5271 91.4699 36.7991 86.916 36.7991V42.7991V48.7991C84.3898 48.7991 82.6401 46.6925 82.6401 44.5231H88.6401Z" fill="black" mask="url(#path-10-inside-4_2541_77)"/>
<mask id="path-12-inside-5_2541_77" fill="white">
<path d="M86.916 51.6228H67.4433C66.5307 51.6228 65.7192 52.4343 65.7192 53.3469C65.7192 54.2595 66.5307 55.0709 67.4433 55.0709H86.916C87.8287 55.0709 88.6401 54.2595 88.6401 53.3469C88.6401 52.3324 87.9298 51.6228 86.916 51.6228Z"/>
</mask>
<path d="M86.916 51.6228H67.4433C66.5307 51.6228 65.7192 52.4343 65.7192 53.3469C65.7192 54.2595 66.5307 55.0709 67.4433 55.0709H86.916C87.8287 55.0709 88.6401 54.2595 88.6401 53.3469C88.6401 52.3324 87.9298 51.6228 86.916 51.6228Z" fill="black"/>
<path d="M86.916 51.6228V45.6228H67.4433V51.6228V57.6228H86.916V51.6228ZM67.4433 51.6228V45.6228C63.2169 45.6228 59.7192 49.1206 59.7192 53.3469H65.7192H71.7192C71.7192 54.6789 71.1426 55.7244 70.4817 56.3852C69.8208 57.0461 68.7753 57.6228 67.4433 57.6228V51.6228ZM65.7192 53.3469H59.7192C59.7192 57.5732 63.217 61.0709 67.4433 61.0709V55.0709V49.0709C68.7753 49.0709 69.8208 49.6476 70.4817 50.3085C71.1425 50.9693 71.7192 52.0149 71.7192 53.3469H65.7192ZM67.4433 55.0709V61.0709H86.916V55.0709V49.0709H67.4433V55.0709ZM86.916 55.0709V61.0709C91.1424 61.0709 94.6401 57.5731 94.6401 53.3469H88.6401H82.6401C82.6401 52.0149 83.2168 50.9694 83.8776 50.3085C84.5385 49.6476 85.584 49.0709 86.916 49.0709V55.0709ZM88.6401 53.3469H94.6401C94.6401 51.4019 93.9345 49.3949 92.4003 47.8611C90.8663 46.3276 88.8598 45.6228 86.916 45.6228V51.6228V57.6228C85.9861 57.6228 84.8416 57.2728 83.9162 56.3477C82.9906 55.4223 82.6401 54.2773 82.6401 53.3469H88.6401Z" fill="black" mask="url(#path-12-inside-5_2541_77)"/>
<path d="M23.6296 69.633C23.6948 69.633 23.7832 69.6596 23.8669 69.7433C23.9505 69.827 23.9763 69.9148 23.9763 69.9797C23.9763 70.0448 23.9507 70.1332 23.8669 70.217C23.7831 70.3008 23.6946 70.3264 23.6296 70.3264C23.5646 70.3263 23.4769 70.3005 23.3933 70.217C23.3095 70.1331 23.283 70.0447 23.283 69.9797C23.283 69.9146 23.3096 69.827 23.3933 69.7433C23.4771 69.6596 23.5647 69.633 23.6296 69.633Z" fill="black" stroke="black" stroke-width="6"/>
<path d="M43.5073 69.633C43.5719 69.633 43.6596 69.6594 43.7437 69.7433C43.8277 69.8274 43.854 69.9151 43.854 69.9797C43.854 70.0448 43.8284 70.1332 43.7446 70.217C43.6608 70.3008 43.5723 70.3264 43.5073 70.3264C43.4423 70.3263 43.3546 70.3005 43.271 70.217C43.1872 70.1331 43.1606 70.0447 43.1606 69.9797C43.1607 69.9146 43.1873 69.827 43.271 69.7433C43.3548 69.6596 43.4423 69.633 43.5073 69.633Z" fill="black" stroke="black" stroke-width="6"/>
<mask id="path-16-inside-6_2541_77" fill="white">
<path d="M52.1273 43.9147L22.0054 40.3646V38.8436C22.0054 35.1924 19.0646 32.3527 15.5145 32.3527H11.6603C10.7477 32.3527 9.93628 33.1641 9.93628 34.0767C9.93628 34.9893 10.7477 35.8008 11.6603 35.8008H15.5145C17.2386 35.8008 18.6584 37.2206 18.6584 38.9446L18.9626 61.5614C18.9626 62.474 19.774 63.2855 20.6866 63.2855H47.4616C48.2731 63.2855 48.8815 62.7782 49.0845 62.0686L53.7502 46.2472C53.8514 45.74 53.8514 45.2327 53.5472 44.8274C53.1418 44.219 52.6345 44.0158 52.1273 43.9147ZM46.0424 59.7361H22.31L22.107 43.8127L49.7948 47.0585L46.0424 59.7361Z"/>
</mask>
<path d="M52.1273 43.9147L22.0054 40.3646V38.8436C22.0054 35.1924 19.0646 32.3527 15.5145 32.3527H11.6603C10.7477 32.3527 9.93628 33.1641 9.93628 34.0767C9.93628 34.9893 10.7477 35.8008 11.6603 35.8008H15.5145C17.2386 35.8008 18.6584 37.2206 18.6584 38.9446L18.9626 61.5614C18.9626 62.474 19.774 63.2855 20.6866 63.2855H47.4616C48.2731 63.2855 48.8815 62.7782 49.0845 62.0686L53.7502 46.2472C53.8514 45.74 53.8514 45.2327 53.5472 44.8274C53.1418 44.219 52.6345 44.0158 52.1273 43.9147ZM46.0424 59.7361H22.31L22.107 43.8127L49.7948 47.0585L46.0424 59.7361Z" fill="black"/>
<path d="M52.1273 43.9147L53.3009 38.0306L53.0667 37.9839L52.8296 37.9559L52.1273 43.9147ZM22.0054 40.3646H16.0054V45.699L21.3031 46.3233L22.0054 40.3646ZM18.6584 38.9446H12.6584V38.985L12.6589 39.0253L18.6584 38.9446ZM18.9626 61.5614H24.9626V61.5211L24.962 61.4807L18.9626 61.5614ZM49.0845 62.0686L43.3296 60.3715L43.3227 60.3947L43.316 60.418L49.0845 62.0686ZM53.7502 46.2472L59.5052 47.9444L59.5816 47.6855L59.6344 47.4207L53.7502 46.2472ZM53.5472 44.8274L48.554 48.1542L48.6473 48.2942L48.7483 48.4288L53.5472 44.8274ZM46.0424 59.7361V65.7361H50.5238L51.7957 61.439L46.0424 59.7361ZM22.31 59.7361L16.3105 59.8126L16.3861 65.7361H22.31V59.7361ZM22.107 43.8127L22.8056 37.8535L16.0204 37.0581L16.1075 43.8892L22.107 43.8127ZM49.7948 47.0585L55.5481 48.7614L57.5704 41.929L50.4934 41.0993L49.7948 47.0585ZM52.1273 43.9147L52.8296 37.9559L22.7077 34.4058L22.0054 40.3646L21.3031 46.3233L51.425 49.8734L52.1273 43.9147ZM22.0054 40.3646H28.0054V38.8436H22.0054H16.0054V40.3646H22.0054ZM22.0054 38.8436H28.0054C28.0054 31.818 22.3172 26.3527 15.5145 26.3527V32.3527V38.3527C15.6646 38.3527 15.7836 38.4074 15.8715 38.4944C15.9155 38.5379 15.9472 38.5858 15.968 38.6348C15.9869 38.6794 16.0054 38.7442 16.0054 38.8436H22.0054ZM15.5145 32.3527V26.3527H11.6603V32.3527V38.3527H15.5145V32.3527ZM11.6603 32.3527V26.3527C7.43397 26.3527 3.93628 29.8504 3.93628 34.0767H9.93628H15.9363C15.9363 35.4087 15.3596 36.4542 14.6987 37.1151C14.0379 37.776 12.9923 38.3527 11.6603 38.3527V32.3527ZM9.93628 34.0767H3.93628C3.93628 38.3031 7.43407 41.8008 11.6603 41.8008V35.8008V29.8008C12.9923 29.8008 14.0378 30.3775 14.6987 31.0383C15.3596 31.6992 15.9363 32.7447 15.9363 34.0767H9.93628ZM11.6603 35.8008V41.8008H15.5145V35.8008V29.8008H11.6603V35.8008ZM15.5145 35.8008V41.8008C13.9248 41.8008 12.6584 40.5343 12.6584 38.9446H18.6584H24.6584C24.6584 33.907 20.5523 29.8008 15.5145 29.8008V35.8008ZM18.6584 38.9446L12.6589 39.0253L12.9631 61.6421L18.9626 61.5614L24.962 61.4807L24.6578 38.8639L18.6584 38.9446ZM18.9626 61.5614H12.9626C12.9626 65.7878 16.4604 69.2855 20.6866 69.2855V63.2855V57.2855C22.0186 57.2855 23.0641 57.8622 23.725 58.523C24.3859 59.1839 24.9626 60.2294 24.9626 61.5614H18.9626ZM20.6866 63.2855V69.2855H47.4616V63.2855V57.2855H20.6866V63.2855ZM47.4616 63.2855V69.2855C51.0685 69.2855 53.9461 66.8889 54.853 63.7192L49.0845 62.0686L43.316 60.418C43.5486 59.6053 44.0492 58.8007 44.8327 58.1953C45.6338 57.5763 46.5773 57.2855 47.4616 57.2855V63.2855ZM49.0845 62.0686L54.8395 63.7658L59.5052 47.9444L53.7502 46.2472L47.9953 44.5501L43.3296 60.3715L49.0845 62.0686ZM53.7502 46.2472L59.6344 47.4207C59.8398 46.3907 60.2139 43.7148 58.3461 41.2259L53.5472 44.8274L48.7483 48.4288C47.4889 46.7506 47.863 45.0892 47.8661 45.0737L53.7502 46.2472ZM53.5472 44.8274L58.5404 41.5005C56.9637 39.1341 54.774 38.3244 53.3009 38.0306L52.1273 43.9147L50.9537 49.7988C50.8386 49.7758 50.3981 49.6796 49.8691 49.3733C49.2949 49.0408 48.8497 48.5981 48.554 48.1542L53.5472 44.8274ZM46.0424 59.7361V53.7361H22.31V59.7361V65.7361H46.0424V59.7361ZM22.31 59.7361L28.3096 59.6596L28.1065 43.7362L22.107 43.8127L16.1075 43.8892L16.3105 59.8126L22.31 59.7361ZM22.107 43.8127L21.4084 49.7719L49.0962 53.0177L49.7948 47.0585L50.4934 41.0993L22.8056 37.8535L22.107 43.8127ZM49.7948 47.0585L44.0415 45.3556L40.2892 58.0332L46.0424 59.7361L51.7957 61.439L55.5481 48.7614L49.7948 47.0585Z" fill="black" mask="url(#path-16-inside-6_2541_77)"/>
</svg>
