<svg width="100" height="100" viewBox="0 0 100 100" fill="none" xmlns="http://www.w3.org/2000/svg">
<path d="M35.708 63.625L62.9579 36.375" stroke="black" stroke-width="6" stroke-linecap="round" stroke-linejoin="round"/>
<path d="M37.4161 43.2083C40.2465 43.2083 42.541 40.9139 42.541 38.0834C42.541 35.2529 40.2465 32.9583 37.4161 32.9583C34.5856 32.9583 32.291 35.2529 32.291 38.0834C32.291 40.9139 34.5856 43.2083 37.4161 43.2083Z" stroke="black" stroke-width="6" stroke-linecap="round" stroke-linejoin="round"/>
<path d="M64.6669 67.0416C67.4974 67.0416 69.792 64.7471 69.792 61.9166C69.792 59.0861 67.4974 56.7917 64.6669 56.7917C61.8365 56.7917 59.542 59.0861 59.542 61.9166C59.542 64.7471 61.8365 67.0416 64.6669 67.0416Z" stroke="black" stroke-width="6" stroke-linecap="round" stroke-linejoin="round"/>
<path d="M50.0006 91.6667C73.0125 91.6667 91.6673 73.0119 91.6673 50C91.6673 26.9881 73.0125 8.33334 50.0006 8.33334C26.9888 8.33334 8.33398 26.9881 8.33398 50C8.33398 73.0119 26.9888 91.6667 50.0006 91.6667Z" stroke="black" stroke-width="6" stroke-linecap="round" stroke-linejoin="round"/>
</svg>
