<svg width="100" height="100" viewBox="0 0 100 100" fill="none" xmlns="http://www.w3.org/2000/svg">
<path d="M87.5 24.9166C73.625 23.5416 59.6667 22.8333 45.75 22.8333C37.5 22.8333 29.25 23.2499 21 24.0833L12.5 24.9166" stroke="#292D32" stroke-width="6" stroke-linecap="round" stroke-linejoin="round"/>
<path d="M35.4172 20.7084L36.3339 15.2501C37.0006 11.2917 37.5006 8.3334 44.5422 8.3334H55.4589C62.5006 8.3334 63.0422 11.4584 63.6672 15.2917L64.5839 20.7084" stroke="#292D32" stroke-width="6" stroke-linecap="round" stroke-linejoin="round"/>
<path d="M78.5418 38.0834L75.8335 80.0417C75.3752 86.5834 75.0002 91.6667 63.3752 91.6667H36.6252C25.0002 91.6667 24.6252 86.5834 24.1668 80.0417L21.4585 38.0834" stroke="#292D32" stroke-width="6" stroke-linecap="round" stroke-linejoin="round"/>
<path d="M43.042 68.75H56.917" stroke="#292D32" stroke-width="6" stroke-linecap="round" stroke-linejoin="round"/>
<path d="M39.5828 52.0834H60.4161" stroke="#292D32" stroke-width="6" stroke-linecap="round" stroke-linejoin="round"/>
</svg>
