<svg width="99" height="100" viewBox="0 0 99 100" fill="none" xmlns="http://www.w3.org/2000/svg">
<mask id="path-1-inside-1_2553_30" fill="white">
<path d="M34.4032 57.7809C33.4783 57.7899 32.6182 57.3044 32.1481 56.5079C31.678 55.7113 31.6682 54.7236 32.123 53.918C32.5778 53.1123 33.4281 52.6101 34.3536 52.6011L73.813 51.8512C74.6696 51.9273 75.4319 52.4239 75.849 53.1765C76.2654 53.9291 76.2815 54.8394 75.8916 55.6054C75.5009 56.3719 74.756 56.8951 73.9029 57.0011L34.4542 57.7509L34.4032 57.7809Z"/>
</mask>
<path d="M34.4032 57.7809C33.4783 57.7899 32.6182 57.3044 32.1481 56.5079C31.678 55.7113 31.6682 54.7236 32.123 53.918C32.5778 53.1123 33.4281 52.6101 34.3536 52.6011L73.813 51.8512C74.6696 51.9273 75.4319 52.4239 75.849 53.1765C76.2654 53.9291 76.2815 54.8394 75.8916 55.6054C75.5009 56.3719 74.756 56.8951 73.9029 57.0011L34.4542 57.7509L34.4032 57.7809Z" fill="black"/>
<path d="M34.4032 57.7809L34.462 63.7806L36.0607 63.7649L37.4396 62.9558L34.4032 57.7809ZM32.123 53.918L26.898 50.9684L26.898 50.9685L32.123 53.918ZM34.3536 52.6011L34.4124 58.6008L34.44 58.6005L34.4676 58.6L34.3536 52.6011ZM73.813 51.8512L74.3435 45.8747L74.0219 45.8462L73.699 45.8523L73.813 51.8512ZM75.849 53.1765L81.099 50.2718L81.0971 50.2684L75.849 53.1765ZM75.8916 55.6054L81.2375 58.3294L81.2386 58.3273L75.8916 55.6054ZM73.9029 57.0011L74.0169 63L74.331 62.994L74.6428 62.9553L73.9029 57.0011ZM34.4542 57.7509L34.3402 51.752L32.7712 51.7818L31.4178 52.576L34.4542 57.7509ZM34.4032 57.7809L34.3444 51.7812C35.5634 51.7692 36.6956 52.4083 37.3152 53.4582L32.1481 56.5079L26.981 59.5576C28.5409 62.2006 31.3932 63.8107 34.462 63.7806L34.4032 57.7809ZM32.1481 56.5079L37.3152 53.4582C37.9341 54.5067 37.9473 55.8058 37.348 56.8675L32.123 53.918L26.898 50.9685C25.3891 53.6414 25.4218 56.916 26.981 59.5576L32.1481 56.5079ZM32.123 53.918L37.348 56.8675C36.7492 57.9281 35.6304 58.5888 34.4124 58.6008L34.3536 52.6011L34.2948 46.6013C31.2257 46.6314 28.4063 48.2966 26.898 50.9684L32.123 53.918ZM34.3536 52.6011L34.4676 58.6L73.927 57.8501L73.813 51.8512L73.699 45.8523L34.2396 46.6021L34.3536 52.6011ZM73.813 51.8512L73.2825 57.8277C72.1505 57.7273 71.1474 57.071 70.6009 56.0847L75.849 53.1765L81.0971 50.2684C79.7165 47.7768 77.1886 46.1273 74.3435 45.8747L73.813 51.8512ZM75.849 53.1765L70.599 56.0813C70.0523 55.0931 70.0294 53.8952 70.5445 52.8834L75.8916 55.6054L81.2386 58.3273C82.5335 55.7836 82.4786 52.7651 81.099 50.2718L75.849 53.1765ZM75.8916 55.6054L70.5456 52.8813C71.0573 51.8771 72.0358 51.187 73.163 51.0469L73.9029 57.0011L74.6428 62.9553C77.4762 62.6032 79.9446 60.8668 81.2375 58.3294L75.8916 55.6054ZM73.9029 57.0011L73.7888 51.0022L34.3402 51.752L34.4542 57.7509L34.5682 63.7499L74.0169 63L73.9029 57.0011ZM34.4542 57.7509L31.4178 52.576L31.3668 52.6059L34.4032 57.7809L37.4396 62.9558L37.4906 62.9259L34.4542 57.7509Z" fill="black" mask="url(#path-1-inside-1_2553_30)"/>
<mask id="path-3-inside-2_2553_30" fill="white">
<path d="M52.9705 47.4313C50.3151 47.4396 47.8046 46.2162 46.1752 44.1187C44.5458 42.0212 43.9816 39.2864 44.6463 36.7152C45.3117 34.1442 47.1315 32.0264 49.5736 30.9816C52.0157 29.9374 54.8043 30.0846 57.1228 31.3799C59.4413 32.6752 61.0282 34.9728 61.4194 37.5997C61.8107 40.2266 60.9612 42.8869 59.1204 44.8009C57.5119 46.4757 55.2924 47.425 52.9705 47.4313ZM52.9809 35.4617H52.9111L52.9104 35.461C52.0162 35.4679 51.1611 35.8272 50.5305 36.4612C49.9014 37.1071 49.5589 37.9797 49.5805 38.881C49.5986 40.0186 50.1839 41.072 51.1409 41.6871C52.0972 42.3023 53.2983 42.3993 54.3404 41.9438C55.3832 41.489 56.1289 40.5425 56.3276 39.423C56.5264 38.3028 56.1526 37.1574 55.3309 36.3713C54.6954 35.7735 53.8529 35.4471 52.981 35.461L52.9809 35.4617Z"/>
</mask>
<path d="M52.9705 47.4313C50.3151 47.4396 47.8046 46.2162 46.1752 44.1187C44.5458 42.0212 43.9816 39.2864 44.6463 36.7152C45.3117 34.1442 47.1315 32.0264 49.5736 30.9816C52.0157 29.9374 54.8043 30.0846 57.1228 31.3799C59.4413 32.6752 61.0282 34.9728 61.4194 37.5997C61.8107 40.2266 60.9612 42.8869 59.1204 44.8009C57.5119 46.4757 55.2924 47.425 52.9705 47.4313ZM52.9809 35.4617H52.9111L52.9104 35.461C52.0162 35.4679 51.1611 35.8272 50.5305 36.4612C49.9014 37.1071 49.5589 37.9797 49.5805 38.881C49.5986 40.0186 50.1839 41.072 51.1409 41.6871C52.0972 42.3023 53.2983 42.3993 54.3404 41.9438C55.3832 41.489 56.1289 40.5425 56.3276 39.423C56.5264 38.3028 56.1526 37.1574 55.3309 36.3713C54.6954 35.7735 53.8529 35.4471 52.981 35.461L52.9809 35.4617Z" fill="black"/>
<path d="M52.9705 47.4313L52.9544 41.4313L52.9516 41.4313L52.9705 47.4313ZM44.6463 36.7152L38.8377 35.2118L38.8372 35.2134L44.6463 36.7152ZM49.5736 30.9816L47.2147 25.4648L47.2135 25.4653L49.5736 30.9816ZM61.4194 37.5997L55.4849 38.4836L55.4849 38.4837L61.4194 37.5997ZM59.1204 44.8009L54.7958 40.6419L54.793 40.6447L59.1204 44.8009ZM52.9809 35.4617V41.4617H58.2491L58.9305 36.2377L52.9809 35.4617ZM52.9111 35.4617L48.6685 39.7043L50.4259 41.4617H52.9111V35.4617ZM52.9104 35.461L57.1531 31.2183L55.3763 29.4416L52.8636 29.4612L52.9104 35.461ZM50.5305 36.4612L46.2761 32.2304L46.2542 32.2524L46.2325 32.2747L50.5305 36.4612ZM49.5805 38.881L55.5797 38.7853L55.5793 38.7612L55.5788 38.737L49.5805 38.881ZM51.1409 41.6871L54.3871 36.6411L54.3852 36.6399L51.1409 41.6871ZM54.3404 41.9438L51.9418 36.4441L51.9374 36.446L54.3404 41.9438ZM56.3276 39.423L62.2353 40.4718L62.2353 40.4714L56.3276 39.423ZM55.3309 36.3713L59.4785 32.0357L59.4603 32.0184L59.4421 32.0012L55.3309 36.3713ZM52.981 35.461L52.885 29.4618L47.7018 29.5447L47.0314 34.685L52.981 35.461ZM52.9705 47.4313L52.9516 41.4313C52.1552 41.4338 51.402 41.0666 50.9135 40.4378L46.1752 44.1187L41.437 47.7996C44.2073 51.3658 48.475 53.4455 52.9894 53.4312L52.9705 47.4313ZM46.1752 44.1187L50.9135 40.4378C50.4255 39.8096 50.2557 38.9891 50.4553 38.217L44.6463 36.7152L38.8372 35.2134C37.7074 39.5836 38.6662 44.2328 41.437 47.7996L46.1752 44.1187ZM44.6463 36.7152L50.4549 38.2186C50.6545 37.4473 51.2006 36.8116 51.9337 36.498L49.5736 30.9816L47.2135 25.4653C43.0624 27.2413 39.9689 30.8411 38.8377 35.2118L44.6463 36.7152ZM49.5736 30.9816L51.9325 36.4985C52.6648 36.1854 53.5013 36.2295 54.1964 36.6179L57.1228 31.3799L60.0492 26.142C56.1073 23.9397 51.3666 23.6895 47.2147 25.4648L49.5736 30.9816ZM57.1228 31.3799L54.1964 36.6179C54.8911 37.006 55.3675 37.6951 55.4849 38.4836L61.4194 37.5997L67.354 36.7159C66.6889 32.2506 63.9915 28.3445 60.0492 26.142L57.1228 31.3799ZM61.4194 37.5997L55.4849 38.4837C55.6021 39.2705 55.3476 40.0681 54.7958 40.6419L59.1204 44.8009L63.445 48.96C66.5748 45.7056 68.0194 41.1827 67.354 36.7157L61.4194 37.5997ZM59.1204 44.8009L54.793 40.6447C54.3118 41.1458 53.6483 41.4294 52.9544 41.4313L52.9705 47.4313L52.9867 53.4312C56.9365 53.4206 60.712 51.8056 63.4478 48.9571L59.1204 44.8009ZM52.9809 35.4617V29.4617H52.9111V35.4617V41.4617H52.9809V35.4617ZM52.9111 35.4617L57.1538 31.219L57.1531 31.2183L52.9104 35.461L48.6678 39.7036L48.6685 39.7043L52.9111 35.4617ZM52.9104 35.461L52.8636 29.4612C50.39 29.4805 48.0224 30.4744 46.2761 32.2304L50.5305 36.4612L54.7849 40.692C54.2997 41.18 53.6424 41.4554 52.9572 41.4608L52.9104 35.461ZM50.5305 36.4612L46.2325 32.2747C44.477 34.0769 43.5219 36.5106 43.5822 39.0249L49.5805 38.881L55.5788 38.737C55.5958 39.4489 55.3257 40.1373 54.8285 40.6478L50.5305 36.4612ZM49.5805 38.881L43.5813 38.9766C43.6313 42.1187 45.248 45.0319 47.8965 46.7343L51.1409 41.6871L54.3852 36.6399C55.1197 37.1121 55.5659 37.9186 55.5797 38.7853L49.5805 38.881ZM51.1409 41.6871L47.8947 46.7331C50.5368 48.4329 53.858 48.7027 56.7434 47.4416L54.3404 41.9438L51.9374 36.446C52.7385 36.0959 53.6575 36.1718 54.3871 36.6411L51.1409 41.6871ZM54.3404 41.9438L56.739 47.4435C59.6236 46.1855 61.6857 43.5677 62.2353 40.4718L56.3276 39.423L50.42 38.3742C50.5722 37.5173 51.1428 36.7926 51.9418 36.4441L54.3404 41.9438ZM56.3276 39.423L62.2353 40.4714C62.7843 37.3779 61.7525 34.2111 59.4785 32.0357L55.3309 36.3713L51.1833 40.7069C50.5527 40.1036 50.2686 39.2277 50.4199 38.3746L56.3276 39.423ZM55.3309 36.3713L59.4421 32.0012C57.6704 30.3345 55.319 29.4229 52.885 29.4618L52.981 35.461L53.0769 41.4603C52.3867 41.4713 51.7205 41.2125 51.2197 40.7415L55.3309 36.3713ZM52.981 35.461L47.0314 34.685L47.0313 34.6856L52.9809 35.4617L58.9305 36.2377L58.9306 36.2371L52.981 35.461Z" fill="black" mask="url(#path-3-inside-2_2553_30)"/>
<mask id="path-5-inside-3_2553_30" fill="white">
<path d="M53.5913 79.7998C50.9303 79.8019 48.4177 78.5701 46.7897 76.4642C45.1624 74.3591 44.6023 71.6178 45.274 69.0427C45.9457 66.4676 47.7732 64.3491 50.2215 63.3063C52.6705 62.2642 55.464 62.4162 57.7861 63.7178C60.1074 65.0194 61.6943 67.3232 62.0827 69.9565C62.4712 72.5889 61.6175 75.2535 59.7712 77.1702C58.2039 78.8149 56.0429 79.7623 53.771 79.7999L53.5913 79.7998ZM53.5913 67.8004C52.448 67.7948 51.3779 68.3647 50.744 69.3168C50.1107 70.2689 49.9977 71.4757 50.4448 72.5281C50.8912 73.5814 51.8378 74.339 52.9629 74.5447C54.088 74.7504 55.2411 74.3766 56.0314 73.55C56.6613 72.9041 57.0037 72.0322 56.9814 71.1303C56.9633 70.2423 56.5985 69.3969 55.9651 68.7748C55.3311 68.1526 54.4794 67.8032 53.5915 67.8004L53.5913 67.8004Z"/>
</mask>
<path d="M53.5913 79.7998C50.9303 79.8019 48.4177 78.5701 46.7897 76.4642C45.1624 74.3591 44.6023 71.6178 45.274 69.0427C45.9457 66.4676 47.7732 64.3491 50.2215 63.3063C52.6705 62.2642 55.464 62.4162 57.7861 63.7178C60.1074 65.0194 61.6943 67.3232 62.0827 69.9565C62.4712 72.5889 61.6175 75.2535 59.7712 77.1702C58.2039 78.8149 56.0429 79.7623 53.771 79.7999L53.5913 79.7998ZM53.5913 67.8004C52.448 67.7948 51.3779 68.3647 50.744 69.3168C50.1107 70.2689 49.9977 71.4757 50.4448 72.5281C50.8912 73.5814 51.8378 74.339 52.9629 74.5447C54.088 74.7504 55.2411 74.3766 56.0314 73.55C56.6613 72.9041 57.0037 72.0322 56.9814 71.1303C56.9633 70.2423 56.5985 69.3969 55.9651 68.7748C55.3311 68.1526 54.4794 67.8032 53.5915 67.8004L53.5913 67.8004Z" fill="black"/>
<path d="M53.5913 79.7998L53.5954 73.7998L53.5865 73.7998L53.5913 79.7998ZM46.7897 76.4642L42.0427 80.1338L42.0428 80.1339L46.7897 76.4642ZM50.2215 63.3063L47.8723 57.7853L47.8703 57.7861L50.2215 63.3063ZM57.7861 63.7178L60.7205 58.4843L60.7198 58.4839L57.7861 63.7178ZM62.0827 69.9565L56.1469 70.832L56.147 70.8326L62.0827 69.9565ZM59.7712 77.1702L55.4499 73.0077L55.4387 73.0193L55.4275 73.031L59.7712 77.1702ZM53.771 79.7999L53.7668 85.7999L53.8187 85.8L53.8705 85.7991L53.771 79.7999ZM53.5913 67.8004L53.562 73.8003L53.8262 73.8016L54.0895 73.7797L53.5913 67.8004ZM50.744 69.3168L45.7497 65.9916L45.7484 65.9936L50.744 69.3168ZM50.4448 72.5281L55.9691 70.1867L55.9671 70.1821L50.4448 72.5281ZM52.9629 74.5447L54.0423 68.6425L54.042 68.6425L52.9629 74.5447ZM56.0314 73.55L51.7357 69.3611L51.7151 69.3822L51.6948 69.4035L56.0314 73.55ZM56.9814 71.1303L50.9827 71.2528L50.9829 71.2657L50.9833 71.2787L56.9814 71.1303ZM55.9651 68.7748L60.1696 64.4944L60.1675 64.4923L55.9651 68.7748ZM53.5915 67.8004L53.6103 61.8004L53.3513 61.7996L53.0932 61.8211L53.5915 67.8004ZM53.5913 79.7998L53.5865 73.7998C52.7846 73.8004 52.0272 73.4291 51.5366 72.7945L46.7897 76.4642L42.0428 80.1339C44.8082 83.7111 49.0759 85.8034 53.596 85.7998L53.5913 79.7998ZM46.7897 76.4642L51.5367 72.7946C51.0462 72.16 50.8773 71.3332 51.0797 70.5571L45.274 69.0427L39.4683 67.5283C38.3273 71.9023 39.2786 76.5582 42.0427 80.1338L46.7897 76.4642ZM45.274 69.0427L51.0797 70.5571C51.2822 69.7807 51.8335 69.1412 52.5727 68.8264L50.2215 63.3063L47.8703 57.7861C43.7128 59.5569 40.6092 63.1544 39.4683 67.5283L45.274 69.0427ZM50.2215 63.3063L52.5707 68.8272C53.3089 68.5131 54.1512 68.5587 54.8523 68.9517L57.7861 63.7178L60.7198 58.4839C56.7768 56.2738 52.0322 56.0152 47.8723 57.7853L50.2215 63.3063ZM57.7861 63.7178L54.8517 68.9513C55.5516 69.3437 56.0298 70.0381 56.1469 70.832L62.0827 69.9565L68.0185 69.0811C67.3588 64.6084 64.6633 60.695 60.7205 58.4843L57.7861 63.7178ZM62.0827 69.9565L56.147 70.8326C56.2641 71.6259 56.0067 72.4296 55.4499 73.0077L59.7712 77.1702L64.0925 81.3327C67.2282 78.0773 68.6784 73.552 68.0184 69.0805L62.0827 69.9565ZM59.7712 77.1702L55.4275 73.031C54.9685 73.5127 54.3363 73.7897 53.6715 73.8008L53.771 79.7999L53.8705 85.7991C57.7495 85.7348 61.4392 84.1172 64.1148 81.3094L59.7712 77.1702ZM53.771 79.7999L53.7752 73.7999L53.5954 73.7998L53.5913 79.7998L53.5871 85.7998L53.7668 85.7999L53.771 79.7999ZM53.5913 67.8004L53.6206 61.8005C50.4585 61.785 47.5013 63.3608 45.7497 65.9916L50.744 69.3168L55.7384 72.642C55.2546 73.3686 54.4375 73.8046 53.562 73.8003L53.5913 67.8004ZM50.744 69.3168L45.7484 65.9936C43.999 68.6235 43.6846 71.9603 44.9225 74.8741L50.4448 72.5281L55.9671 70.1821C56.3108 70.991 56.2224 71.9143 55.7397 72.64L50.744 69.3168ZM50.4448 72.5281L44.9205 74.8696C46.1557 77.7839 48.774 79.8783 51.8839 80.4468L52.9629 74.5447L54.042 68.6425C54.9015 68.7996 55.6267 69.3789 55.9691 70.1867L50.4448 72.5281ZM52.9629 74.5447L51.8835 80.4468C54.9946 81.0157 58.1828 79.9819 60.368 77.6965L56.0314 73.55L51.6948 69.4035C52.2993 68.7712 53.1814 68.4851 54.0423 68.6425L52.9629 74.5447ZM56.0314 73.55L60.3271 77.7389C62.0848 75.9364 63.0419 73.501 62.9796 70.9818L56.9814 71.1303L50.9833 71.2787C50.9656 70.5634 51.2377 69.8718 51.7357 69.3611L56.0314 73.55ZM56.9814 71.1303L62.9802 71.0077C62.93 68.553 61.9215 66.2151 60.1696 64.4944L55.9651 68.7748L51.7606 73.0552C51.2755 72.5787 50.9965 71.9316 50.9827 71.2528L56.9814 71.1303ZM55.9651 68.7748L60.1675 64.4923C58.416 62.7735 56.0629 61.8081 53.6103 61.8004L53.5915 67.8004L53.5726 73.8003C52.8959 73.7982 52.2461 73.5317 51.7627 73.0573L55.9651 68.7748ZM53.5915 67.8004L53.0932 61.8211L53.093 61.8211L53.5913 67.8004L54.0895 73.7797L54.0897 73.7796L53.5915 67.8004Z" fill="black" mask="url(#path-5-inside-3_2553_30)"/>
<mask id="path-7-inside-4_2553_30" fill="white">
<path d="M61.9095 99.9991C59.8777 99.9998 57.9281 99.1942 56.4897 97.7594L11.4216 52.6913C10.33 51.601 9.59204 50.2074 9.30187 48.6918L5.30237 26.6925C4.85665 24.2185 5.64834 21.6836 7.42212 19.9029L17.9819 9.2831C19.7523 7.51907 22.2704 6.72801 24.7312 7.16335L46.8608 11.0632C48.4107 11.3352 49.8392 12.0788 50.9503 13.1928L95.9988 58.252C97.4328 59.6917 98.2378 61.6406 98.2378 63.6718C98.2378 65.7037 97.4328 67.6525 95.9988 69.0916L67.3301 97.7603C65.8918 99.1965 63.9422 100.002 61.9103 100L61.9095 99.9991ZM23.4001 12.2217C22.7403 12.2231 22.1076 12.4854 21.6403 12.9513L11.1203 23.5112C10.5413 24.0852 10.2833 24.909 10.4304 25.7111L14.4299 47.7104C14.5241 48.2007 14.7648 48.6506 15.1205 49.0001L60.119 94.0985C61.092 95.0576 62.6551 95.0576 63.6289 94.0985L92.3368 65.4192C92.8027 64.9539 93.0643 64.3227 93.0643 63.6642C93.0643 63.0057 92.8027 62.3745 92.3368 61.9092L47.2776 16.8501C46.9184 16.4908 46.458 16.2502 45.9579 16.1602L23.8283 12.2603C23.6867 12.2324 23.543 12.2185 23.3986 12.2206L23.4001 12.2217Z"/>
</mask>
<path d="M61.9095 99.9991C59.8777 99.9998 57.9281 99.1942 56.4897 97.7594L11.4216 52.6913C10.33 51.601 9.59204 50.2074 9.30187 48.6918L5.30237 26.6925C4.85665 24.2185 5.64834 21.6836 7.42212 19.9029L17.9819 9.2831C19.7523 7.51907 22.2704 6.72801 24.7312 7.16335L46.8608 11.0632C48.4107 11.3352 49.8392 12.0788 50.9503 13.1928L95.9988 58.252C97.4328 59.6917 98.2378 61.6406 98.2378 63.6718C98.2378 65.7037 97.4328 67.6525 95.9988 69.0916L67.3301 97.7603C65.8918 99.1965 63.9422 100.002 61.9103 100L61.9095 99.9991ZM23.4001 12.2217C22.7403 12.2231 22.1076 12.4854 21.6403 12.9513L11.1203 23.5112C10.5413 24.0852 10.2833 24.909 10.4304 25.7111L14.4299 47.7104C14.5241 48.2007 14.7648 48.6506 15.1205 49.0001L60.119 94.0985C61.092 95.0576 62.6551 95.0576 63.6289 94.0985L92.3368 65.4192C92.8027 64.9539 93.0643 64.3227 93.0643 63.6642C93.0643 63.0057 92.8027 62.3745 92.3368 61.9092L47.2776 16.8501C46.9184 16.4908 46.458 16.2502 45.9579 16.1602L23.8283 12.2603C23.6867 12.2324 23.543 12.2185 23.3986 12.2206L23.4001 12.2217Z" fill="black"/>
<path d="M61.9095 99.9991L66.5976 96.2544L64.7953 93.9981L61.9075 93.9991L61.9095 99.9991ZM56.4897 97.7594L52.2471 102.002L52.2523 102.007L56.4897 97.7594ZM11.4216 52.6913L15.6643 48.4486L15.6616 48.4459L11.4216 52.6913ZM9.30187 48.6918L3.39864 49.765L3.40364 49.7925L3.4089 49.82L9.30187 48.6918ZM5.30237 26.6925L-0.602578 27.7563L-0.60087 27.7657L5.30237 26.6925ZM7.42212 19.9029L11.673 24.1373L11.6768 24.1335L7.42212 19.9029ZM17.9819 9.2831L13.7468 5.03292L13.737 5.04268L13.7273 5.05249L17.9819 9.2831ZM24.7312 7.16335L23.6859 13.0716L23.6898 13.0723L24.7312 7.16335ZM46.8608 11.0632L45.8194 16.9722L45.8236 16.9729L46.8608 11.0632ZM50.9503 13.1928L46.702 17.4298L46.7071 17.4349L50.9503 13.1928ZM95.9988 58.252L100.25 54.0176L100.242 54.0098L95.9988 58.252ZM95.9988 69.0916L100.241 73.3342L100.249 73.3269L95.9988 69.0916ZM67.3301 97.7603L71.5696 102.006L71.5727 102.003L67.3301 97.7603ZM61.9103 100L57.2223 103.745L59.0213 105.997L61.9039 106L61.9103 100ZM23.4001 12.2217L23.4128 18.2217L40.7939 18.185L27.0915 7.49165L23.4001 12.2217ZM21.6403 12.9513L17.4041 8.7023L17.3968 8.7095L17.3896 8.71673L21.6403 12.9513ZM11.1203 23.5112L15.3449 27.7718L15.358 27.7588L15.3709 27.7458L11.1203 23.5112ZM10.4304 25.7111L16.3337 24.6379L16.3319 24.6283L10.4304 25.7111ZM14.4299 47.7104L8.52671 48.7836L8.53202 48.8127L8.53761 48.8419L14.4299 47.7104ZM15.1205 49.0001L19.3678 44.7621L19.3467 44.7409L19.3253 44.7199L15.1205 49.0001ZM60.119 94.0985L55.8716 98.3365L55.8893 98.3542L55.9071 98.3717L60.119 94.0985ZM63.6289 94.0985L67.8393 98.3732L67.8544 98.3583L67.8694 98.3433L63.6289 94.0985ZM92.3368 65.4192L88.0973 61.1733L88.0963 61.1744L92.3368 65.4192ZM92.3368 61.9092L88.0942 66.1519L88.0974 66.1551L92.3368 61.9092ZM47.2776 16.8501L51.5203 12.6074L51.5203 12.6074L47.2776 16.8501ZM45.9579 16.1602L47.0203 10.255L47.0098 10.2531L46.9992 10.2513L45.9579 16.1602ZM23.8283 12.2603L22.6683 18.1471L22.7276 18.1588L22.787 18.1693L23.8283 12.2603ZM23.3986 12.2206L23.3117 6.22121L6.27505 6.46817L19.7073 16.9507L23.3986 12.2206ZM61.9095 99.9991L61.9075 93.9991C61.4647 93.9993 61.04 93.8236 60.7272 93.5115L56.4897 97.7594L52.2523 102.007C54.8162 104.565 58.2906 106 61.9116 105.999L61.9095 99.9991ZM56.4897 97.7594L60.7324 93.5167L15.6643 48.4486L11.4216 52.6913L7.17898 56.9339L52.2471 102.002L56.4897 97.7594ZM11.4216 52.6913L15.6616 48.4459C15.4229 48.2075 15.2594 47.9007 15.1949 47.5636L9.30187 48.6918L3.4089 49.82C3.92469 52.5141 5.23713 54.9945 7.18169 56.9366L11.4216 52.6913ZM9.30187 48.6918L15.2051 47.6185L11.2056 25.6193L5.30237 26.6925L-0.60087 27.7657L3.39864 49.765L9.30187 48.6918ZM5.30237 26.6925L11.2073 25.6287C11.1094 25.0853 11.2832 24.5286 11.673 24.1373L7.42212 19.9029L3.17128 15.6685C0.0135142 18.8385 -1.3961 23.3517 -0.60257 27.7563L5.30237 26.6925ZM7.42212 19.9029L11.6768 24.1335L22.2366 13.5137L17.9819 9.2831L13.7273 5.05249L3.16747 15.6723L7.42212 19.9029ZM17.9819 9.2831L22.217 13.5333C22.603 13.1487 23.1509 12.977 23.6859 13.0716L24.7312 7.16335L25.7764 1.25509C21.3898 0.479058 16.9015 1.88942 13.7468 5.03292L17.9819 9.2831ZM24.7312 7.16335L23.6898 13.0723L45.8194 16.9722L46.8608 11.0632L47.9021 5.15427L25.7725 1.2544L24.7312 7.16335ZM46.8608 11.0632L45.8236 16.9729C46.1579 17.0316 46.4646 17.1918 46.702 17.4298L50.9503 13.1928L55.1985 8.95577C53.2138 6.96582 50.6634 5.63892 47.898 5.15355L46.8608 11.0632ZM50.9503 13.1928L46.7071 17.4349L91.7556 62.4941L95.9988 58.252L100.242 54.0098L55.1934 8.95065L50.9503 13.1928ZM95.9988 58.252L91.7479 62.4864C92.0619 62.8016 92.2378 63.228 92.2378 63.6718H98.2378H104.238C104.238 60.0532 102.804 56.5817 100.25 54.0176L95.9988 58.252ZM98.2378 63.6718H92.2378C92.2378 64.1168 92.0616 64.5424 91.7488 64.8563L95.9988 69.0916L100.249 73.3269C102.804 70.7627 104.238 67.2906 104.238 63.6718H98.2378ZM95.9988 69.0916L91.7561 64.849L63.0874 93.5176L67.3301 97.7603L71.5727 102.003L100.241 73.3342L95.9988 69.0916ZM67.3301 97.7603L63.0905 93.5145C62.7783 93.8263 62.3559 94.0005 61.9166 94L61.9103 100L61.9039 106C65.5284 106.004 69.0053 104.567 71.5696 102.006L67.3301 97.7603ZM61.9103 100L66.5983 96.2553L66.5976 96.2544L61.9095 99.9991L57.2215 103.744L57.2223 103.745L61.9103 100ZM23.4001 12.2217L23.3875 6.22176C21.1438 6.22651 18.9929 7.11822 17.4041 8.7023L21.6403 12.9513L25.8765 17.2004C25.2223 17.8526 24.3368 18.2198 23.4128 18.2217L23.4001 12.2217ZM21.6403 12.9513L17.3896 8.71673L6.86965 19.2765L11.1203 23.5112L15.3709 27.7458L25.8909 17.186L21.6403 12.9513ZM11.1203 23.5112L6.8957 19.2506C4.90797 21.2215 4.02469 24.0456 4.52896 26.7939L10.4304 25.7111L16.3319 24.6283C16.5418 25.7723 16.1747 26.9489 15.3449 27.7718L11.1203 23.5112ZM10.4304 25.7111L4.5272 26.7843L8.52671 48.7836L14.4299 47.7104L20.3332 46.6371L16.3337 24.6379L10.4304 25.7111ZM14.4299 47.7104L8.53761 48.8419C8.86072 50.5244 9.68767 52.0738 10.9157 53.2803L15.1205 49.0001L19.3253 44.7199C19.8418 45.2274 20.1875 45.877 20.3223 46.5788L14.4299 47.7104ZM15.1205 49.0001L10.8732 53.238L55.8716 98.3365L60.119 94.0985L64.3663 89.8606L19.3678 44.7621L15.1205 49.0001ZM60.119 94.0985L55.9071 98.3717C59.2169 101.634 64.5308 101.632 67.8393 98.3732L63.6289 94.0985L59.4184 89.8239C60.7795 88.4833 62.9672 88.4812 64.3309 89.8254L60.119 94.0985ZM63.6289 94.0985L67.8694 98.3433L96.5773 69.6639L92.3368 65.4192L88.0963 61.1744L59.3883 89.8538L63.6289 94.0985ZM92.3368 65.4192L96.5763 69.665C98.1702 68.0734 99.0643 65.9144 99.0643 63.6642H93.0643H87.0643C87.0643 62.7309 87.4353 61.8344 88.0973 61.1733L92.3368 65.4192ZM93.0643 63.6642H99.0643C99.0643 61.4141 98.1702 59.2549 96.5762 57.6633L92.3368 61.9092L88.0974 66.1551C87.4353 65.494 87.0643 64.5974 87.0643 63.6642H93.0643ZM92.3368 61.9092L96.5794 57.6666L51.5203 12.6074L47.2776 16.8501L43.035 21.0927L88.0942 66.1519L92.3368 61.9092ZM47.2776 16.8501L51.5203 12.6074C50.2952 11.3824 48.7251 10.5617 47.0203 10.255L45.9579 16.1602L44.8955 22.0654C44.191 21.9387 43.5416 21.5993 43.035 21.0927L47.2776 16.8501ZM45.9579 16.1602L46.9992 10.2513L24.8696 6.35139L23.8283 12.2603L22.787 18.1693L44.9166 22.0692L45.9579 16.1602ZM23.8283 12.2603L24.9883 6.37353C24.4632 6.27007 23.9012 6.21266 23.3117 6.22121L23.3986 12.2206L23.4856 18.2199C23.1848 18.2243 22.9102 18.1948 22.6683 18.1471L23.8283 12.2603ZM23.3986 12.2206L19.7073 16.9507L19.7088 16.9518L23.4001 12.2217L27.0915 7.49165L27.09 7.49048L23.3986 12.2206Z" fill="black" mask="url(#path-7-inside-4_2553_30)"/>
<path d="M25.334 25.502C26.2062 25.5022 26.9141 26.2099 26.9141 27.0821C26.9139 27.9543 26.2061 28.6621 25.334 28.6622C24.4613 28.6622 23.754 27.9547 23.7539 27.0821C23.7539 26.2095 24.4612 25.502 25.334 25.502Z" fill="black" stroke="black" stroke-width="6"/>
<mask id="path-10-inside-5_2553_30" fill="white">
<path d="M19.553 30.6515C14.5531 30.6515 7.61355 28.5512 2.10374 19.1117C-1.10633 13.6222 -0.606169 7.26225 3.3537 3.27239C7.12375 -0.527662 12.9237 -1.06764 18.123 1.91222C18.9252 2.38026 19.4169 3.241 19.4127 4.16946C19.4079 5.09786 18.9091 5.95373 18.1028 6.41403C17.2965 6.87509 16.3054 6.87021 15.5031 6.40217C12.3837 4.61241 9.12346 4.80207 7.02336 6.9323C5.27397 8.69215 4.12381 12.2621 6.57346 16.5016C13.8737 29.0012 23.1829 25.1119 24.2229 24.6319C25.055 24.2476 26.0273 24.3319 26.7813 24.853C27.5347 25.374 27.9574 26.2543 27.8918 27.1681C27.8262 28.0819 27.2829 28.8931 26.4633 29.3011C24.273 30.2078 21.9238 30.6668 19.553 30.6515Z"/>
</mask>
<path d="M19.553 30.6515C14.5531 30.6515 7.61355 28.5512 2.10374 19.1117C-1.10633 13.6222 -0.606169 7.26225 3.3537 3.27239C7.12375 -0.527662 12.9237 -1.06764 18.123 1.91222C18.9252 2.38026 19.4169 3.241 19.4127 4.16946C19.4079 5.09786 18.9091 5.95373 18.1028 6.41403C17.2965 6.87509 16.3054 6.87021 15.5031 6.40217C12.3837 4.61241 9.12346 4.80207 7.02336 6.9323C5.27397 8.69215 4.12381 12.2621 6.57346 16.5016C13.8737 29.0012 23.1829 25.1119 24.2229 24.6319C25.055 24.2476 26.0273 24.3319 26.7813 24.853C27.5347 25.374 27.9574 26.2543 27.8918 27.1681C27.8262 28.0819 27.2829 28.8931 26.4633 29.3011C24.273 30.2078 21.9238 30.6668 19.553 30.6515Z" fill="black"/>
<path d="M19.553 30.6515L19.5918 24.6516L19.5724 24.6515H19.553V30.6515ZM2.10374 19.1117L7.28559 16.087L7.28317 16.0829L2.10374 19.1117ZM3.3537 3.27239L7.61232 7.49899L7.61312 7.49818L3.3537 3.27239ZM18.123 1.91222L21.1468 -3.27013L21.1267 -3.28185L21.1065 -3.29342L18.123 1.91222ZM19.4127 4.16946L25.4127 4.20102L25.4127 4.19647L19.4127 4.16946ZM18.1028 6.41403L15.1282 1.20331L15.1245 1.2054L18.1028 6.41403ZM15.5031 6.40217L18.5265 1.2196L18.5078 1.2087L18.489 1.19795L15.5031 6.40217ZM7.02336 6.9323L11.2786 11.1623L11.2874 11.1535L11.2961 11.1446L7.02336 6.9323ZM6.57346 16.5016L1.37836 19.5034L1.38534 19.5155L1.39239 19.5276L6.57346 16.5016ZM24.2229 24.6319L26.7372 30.0796L26.7386 30.079L24.2229 24.6319ZM26.7813 24.853L30.1945 19.9184L30.1922 19.9168L26.7813 24.853ZM27.8918 27.1681L33.8764 27.5975L33.8764 27.5974L27.8918 27.1681ZM26.4633 29.3011L28.7584 34.8448L28.9507 34.7651L29.1371 34.6723L26.4633 29.3011ZM19.553 30.6515V24.6515C16.5814 24.6515 11.668 23.595 7.28559 16.087L2.10374 19.1117L-3.07811 22.1363C3.55915 33.5074 12.5249 36.6515 19.553 36.6515V30.6515ZM2.10374 19.1117L7.28317 16.0829C5.19625 12.5141 5.89574 9.22857 7.61232 7.49899L3.3537 3.27239L-0.904924 -0.954212C-7.10808 5.29594 -7.40891 14.7303 -3.07569 22.1404L2.10374 19.1117ZM3.3537 3.27239L7.61312 7.49818C9.17683 5.92203 11.9171 5.27102 15.1395 7.11786L18.123 1.91222L21.1065 -3.29342C13.9303 -7.4063 5.07067 -6.97735 -0.905723 -0.953406L3.3537 3.27239ZM18.123 1.91222L15.0992 7.09457C14.0503 6.48256 13.4073 5.3577 13.4128 4.14246L19.4127 4.16946L25.4127 4.19647C25.4265 1.12429 23.8 -1.72204 21.1468 -3.27013L18.123 1.91222ZM19.4127 4.16946L13.4128 4.13791C13.4192 2.92887 14.069 1.80796 15.1282 1.20331L18.1028 6.41403L21.0774 11.6248C23.7493 10.0995 25.3965 7.26686 25.4127 4.20102L19.4127 4.16946ZM18.1028 6.41403L15.1245 1.2054C16.1822 0.600606 17.4791 0.608605 18.5265 1.2196L15.5031 6.40217L12.4797 11.5848C15.1316 13.1318 18.4107 13.1496 21.0811 11.6227L18.1028 6.41403ZM15.5031 6.40217L18.489 1.19795C13.69 -1.55554 7.26695 -1.86115 2.75061 2.71998L7.02336 6.9323L11.2961 11.1446C11.3002 11.1405 11.2779 11.1617 11.2368 11.18C11.1985 11.1971 11.194 11.1893 11.2482 11.186C11.3624 11.179 11.803 11.1967 12.5171 11.6064L15.5031 6.40217ZM7.02336 6.9323L2.76808 2.70233C-0.948574 6.44122 -2.38619 12.9883 1.37836 19.5034L6.57346 16.5016L11.7686 13.4998C11.1361 12.4053 11.1507 11.7508 11.1798 11.5124C11.2173 11.2043 11.3381 11.1024 11.2786 11.1623L7.02336 6.9323ZM6.57346 16.5016L1.39239 19.5276C5.82677 27.1201 11.4332 30.5148 16.8134 31.3612C21.8514 32.1537 25.7132 30.5523 26.7372 30.0796L24.2229 24.6319L21.7085 19.1841C21.7438 19.1678 21.405 19.3276 20.8255 19.4487C20.2477 19.5694 19.504 19.6369 18.6782 19.507C17.3187 19.2931 14.6204 18.3827 11.7545 13.4756L6.57346 16.5016ZM24.2229 24.6319L26.7386 30.079C25.6412 30.5858 24.3601 30.473 23.3705 29.7892L26.7813 24.853L30.1922 19.9168C27.6944 18.1909 24.4688 17.9093 21.7071 19.1848L24.2229 24.6319ZM26.7813 24.853L23.3682 29.7876C22.3785 29.103 21.8207 27.9449 21.9072 26.7388L27.8918 27.1681L33.8764 27.5974C34.0941 24.5637 32.6909 21.6451 30.1945 19.9184L26.7813 24.853ZM27.8918 27.1681L21.9072 26.7387C21.9934 25.5367 22.708 24.4681 23.7895 23.9298L26.4633 29.3011L29.1371 34.6723C31.8577 33.318 33.659 30.627 33.8764 27.5975L27.8918 27.1681ZM26.4633 29.3011L24.1682 23.7574C22.718 24.3577 21.1624 24.6617 19.5918 24.6516L19.553 30.6515L19.5142 36.6513C22.6852 36.6719 25.828 36.0579 28.7584 34.8448L26.4633 29.3011Z" fill="black" mask="url(#path-10-inside-5_2553_30)"/>
</svg>
