<svg width="100" height="85" viewBox="0 0 100 85" fill="none" xmlns="http://www.w3.org/2000/svg">
<path d="M83 64H83.0001" stroke="black" stroke-width="6" stroke-linecap="round"/>
<mask id="path-2-inside-1_2591_30" fill="white">
<path fill-rule="evenodd" clip-rule="evenodd" d="M9.9994 75.0002H37.5008V80.0008H22.5008C21.1197 80.0008 20.0005 81.1199 20.0005 82.5002C20.0005 83.8813 21.1197 85.0005 22.5008 85.0005H77.4992C78.8803 85.0005 79.9995 83.8813 79.9995 82.5002C79.9995 81.1199 78.8803 80.0008 77.4992 80.0008H62.4993V75.0002H90.0006C95.5234 75.0002 100 70.5236 100 65.0008V10.0003C100 4.47749 95.5234 0 90.0006 0H9.9994C4.47663 0 0 4.47749 0 10.0003V65.0008C0 70.5236 4.47663 75.0002 9.9994 75.0002ZM9.9994 5.00184H90.0006C92.7621 5.00184 95.0003 7.24005 95.0003 10.0015V52.5007H5.00056V10.0015C5.00056 7.24005 7.23877 5.00184 10.0003 5.00184H9.9994ZM4.9997 57.5017V65.0017C4.9997 67.7632 7.23791 70.0014 9.9994 70.0014H90.0006C92.7621 70.0014 95.0003 67.7632 95.0003 65.0017V57.5017H4.9997ZM57.4995 80.0016V75.0011H42.4996V80.0016H57.4995Z"/>
</mask>
<path fill-rule="evenodd" clip-rule="evenodd" d="M9.9994 75.0002H37.5008V80.0008H22.5008C21.1197 80.0008 20.0005 81.1199 20.0005 82.5002C20.0005 83.8813 21.1197 85.0005 22.5008 85.0005H77.4992C78.8803 85.0005 79.9995 83.8813 79.9995 82.5002C79.9995 81.1199 78.8803 80.0008 77.4992 80.0008H62.4993V75.0002H90.0006C95.5234 75.0002 100 70.5236 100 65.0008V10.0003C100 4.47749 95.5234 0 90.0006 0H9.9994C4.47663 0 0 4.47749 0 10.0003V65.0008C0 70.5236 4.47663 75.0002 9.9994 75.0002ZM9.9994 5.00184H90.0006C92.7621 5.00184 95.0003 7.24005 95.0003 10.0015V52.5007H5.00056V10.0015C5.00056 7.24005 7.23877 5.00184 10.0003 5.00184H9.9994ZM4.9997 57.5017V65.0017C4.9997 67.7632 7.23791 70.0014 9.9994 70.0014H90.0006C92.7621 70.0014 95.0003 67.7632 95.0003 65.0017V57.5017H4.9997ZM57.4995 80.0016V75.0011H42.4996V80.0016H57.4995Z" fill="black"/>
<path d="M37.5008 75.0002H43.5008V69.0002H37.5008V75.0002ZM37.5008 80.0008V86.0008H43.5008V80.0008H37.5008ZM62.4993 80.0008H56.4993V86.0008H62.4993V80.0008ZM62.4993 75.0002V69.0002H56.4993V75.0002H62.4993ZM95.0003 52.5007V58.5007H101V52.5007H95.0003ZM5.00056 52.5007H-0.999443V58.5007H5.00056V52.5007ZM4.9997 57.5017V51.5017H-1.0003V57.5017H4.9997ZM95.0003 57.5017H101V51.5017H95.0003V57.5017ZM57.4995 80.0016V86.0016H63.4995V80.0016H57.4995ZM57.4995 75.0011H63.4995V69.0011H57.4995V75.0011ZM42.4996 75.0011V69.0011H36.4996V75.0011H42.4996ZM42.4996 80.0016H36.4996V86.0016H42.4996V80.0016ZM9.9994 75.0002V81.0002H37.5008V75.0002V69.0002H9.9994V75.0002ZM37.5008 75.0002H31.5008V80.0008H37.5008H43.5008V75.0002H37.5008ZM37.5008 80.0008V74.0008H22.5008V80.0008V86.0008H37.5008V80.0008ZM22.5008 80.0008V74.0008C17.8073 74.0008 14.0005 77.8049 14.0005 82.5002H20.0005H26.0005C26.0005 84.435 24.432 86.0008 22.5008 86.0008V80.0008ZM20.0005 82.5002H14.0005C14.0005 87.195 17.806 91.0005 22.5008 91.0005V85.0005V79.0005C24.4334 79.0005 26.0005 80.5676 26.0005 82.5002H20.0005ZM22.5008 85.0005V91.0005H77.4992V85.0005V79.0005H22.5008V85.0005ZM77.4992 85.0005V91.0005C82.1941 91.0005 85.9995 87.195 85.9995 82.5002H79.9995H73.9995C73.9995 80.5676 75.5666 79.0005 77.4992 79.0005V85.0005ZM79.9995 82.5002H85.9995C85.9995 77.8048 82.1927 74.0008 77.4992 74.0008V80.0008V86.0008C75.568 86.0008 73.9995 84.4349 73.9995 82.5002H79.9995ZM77.4992 80.0008V74.0008H62.4993V80.0008V86.0008H77.4992V80.0008ZM62.4993 80.0008H68.4993V75.0002H62.4993H56.4993V80.0008H62.4993ZM62.4993 75.0002V81.0002H90.0006V75.0002V69.0002H62.4993V75.0002ZM90.0006 75.0002V81.0002C98.8371 81.0002 106 73.8373 106 65.0008H100H94C94 67.2099 92.2097 69.0002 90.0006 69.0002V75.0002ZM100 65.0008H106V10.0003H100H94V65.0008H100ZM100 10.0003H106C106 1.16445 98.8377 -6 90.0006 -6V0V6C92.209 6 94 7.79053 94 10.0003H100ZM90.0006 0V-6H9.9994V0V6H90.0006V0ZM9.9994 0V-6C1.16225 -6 -6 1.16445 -6 10.0003H0H6C6 7.79053 7.79101 6 9.9994 6V0ZM0 10.0003H-6V65.0008H0H6V10.0003H0ZM0 65.0008H-6C-6 73.8373 1.16292 81.0002 9.9994 81.0002V75.0002V69.0002C7.79034 69.0002 6 67.2099 6 65.0008H0ZM9.9994 5.00184V11.0018H90.0006V5.00184V-0.998158H9.9994V5.00184ZM90.0006 5.00184V11.0018C89.4484 11.0018 89.0003 10.5538 89.0003 10.0015H95.0003H101C101 3.92633 96.0758 -0.998158 90.0006 -0.998158V5.00184ZM95.0003 10.0015H89.0003V52.5007H95.0003H101V10.0015H95.0003ZM95.0003 52.5007V46.5007H5.00056V52.5007V58.5007H95.0003V52.5007ZM5.00056 52.5007H11.0006V10.0015H5.00056H-0.999443V52.5007H5.00056ZM5.00056 10.0015H11.0006C11.0006 10.5538 10.5525 11.0018 10.0003 11.0018V5.00184V-0.998158C3.92506 -0.998158 -0.999443 3.92634 -0.999443 10.0015H5.00056ZM10.0003 5.00184V-0.998158H9.9994V5.00184V11.0018H10.0003V5.00184ZM4.9997 57.5017H-1.0003V65.0017H4.9997H10.9997V57.5017H4.9997ZM4.9997 65.0017H-1.0003C-1.0003 71.0769 3.9242 76.0014 9.9994 76.0014V70.0014V64.0014C10.5516 64.0014 10.9997 64.4495 10.9997 65.0017H4.9997ZM9.9994 70.0014V76.0014H90.0006V70.0014V64.0014H9.9994V70.0014ZM90.0006 70.0014V76.0014C96.0758 76.0014 101 71.0769 101 65.0017H95.0003H89.0003C89.0003 64.4494 89.4484 64.0014 90.0006 64.0014V70.0014ZM95.0003 65.0017H101V57.5017H95.0003H89.0003V65.0017H95.0003ZM95.0003 57.5017V51.5017H4.9997V57.5017V63.5017H95.0003V57.5017ZM57.4995 80.0016H63.4995V75.0011H57.4995H51.4995V80.0016H57.4995ZM57.4995 75.0011V69.0011H42.4996V75.0011V81.0011H57.4995V75.0011ZM42.4996 75.0011H36.4996V80.0016H42.4996H48.4996V75.0011H42.4996ZM42.4996 80.0016V86.0016H57.4995V80.0016V74.0016H42.4996V80.0016Z" fill="black" mask="url(#path-2-inside-1_2591_30)"/>
</svg>
