<svg width="100" height="100" viewBox="0 0 100 100" fill="none" xmlns="http://www.w3.org/2000/svg">
<path d="M91.6663 50C91.6663 73 72.9997 91.6667 49.9997 91.6667C26.9997 91.6667 8.33301 73 8.33301 50C8.33301 27 26.9997 8.33337 49.9997 8.33337C72.9997 8.33337 91.6663 27 91.6663 50Z" stroke="black" stroke-width="6" stroke-linecap="round" stroke-linejoin="round"/>
<path d="M62.0604 40.0427L60.8397 44.5593H37.8905L39.1356 40.0427H62.0604ZM50.6347 66.7273L38.5985 52.5183L38.5741 48.6121H44.3847C45.8007 48.6121 46.9644 48.3516 47.8759 47.8308C48.8036 47.2937 49.4953 46.5694 49.9511 45.658C50.4231 44.7465 50.6591 43.7211 50.6591 42.5818C50.6591 41.3936 50.4475 40.3438 50.0243 39.4324C49.6011 38.5046 48.9257 37.7804 47.9979 37.2595C47.0702 36.7387 45.8414 36.4783 44.3114 36.4783H37.9149L39.3065 31.1804H44.3114C47.2085 31.1804 49.6174 31.6199 51.538 32.4988C53.4748 33.3614 54.9234 34.6228 55.8837 36.283C56.8602 37.9268 57.3485 39.9125 57.3485 42.24C57.3485 44.2745 57.0067 46.073 56.3231 47.6355C55.6558 49.1817 54.5735 50.4431 53.0761 51.4197C51.5787 52.3962 49.6093 53.0473 47.1679 53.3728L58.0809 66.3855V66.7273H50.6347ZM62.0849 31.1804L60.8397 35.697H41.9677L43.2128 31.1804H62.0849Z" fill="black"/>
</svg>
