<svg width="100" height="100" viewBox="0 0 100 100" fill="none" xmlns="http://www.w3.org/2000/svg">
<path d="M65.0012 33.3335C64.9966 37.3105 63.4146 41.1225 60.6028 43.9351C57.7904 46.7469 53.9782 48.3291 50.0012 48.3335V45.0005C53.0942 44.9967 56.0597 43.7661 58.2463 41.5786C60.4338 39.392 61.6645 36.4265 61.6682 33.3335H65.0012Z" fill="black"/>
<path d="M65.0012 33.3335C64.9966 37.3105 63.4146 41.1225 60.6028 43.9351C57.7904 46.7469 53.9782 48.3291 50.0012 48.3335V45.0005C53.0942 44.9967 56.0597 43.7661 58.2463 41.5786C60.4338 39.392 61.6645 36.4265 61.6682 33.3335H65.0012Z" stroke="black"/>
<path d="M50.0012 21.6664C46.9083 21.6703 43.9428 22.9009 41.7561 25.0883C39.5686 27.275 38.338 30.2405 38.3342 33.3334H35.0012C35.0058 29.3565 36.5878 25.5444 39.3997 22.7319C42.212 19.9201 46.0243 18.3379 50.0012 18.3334V21.6664Z" fill="black"/>
<path d="M50.0012 21.6664C46.9083 21.6703 43.9428 22.9009 41.7561 25.0883C39.5686 27.275 38.338 30.2405 38.3342 33.3334H35.0012C35.0058 29.3565 36.5878 25.5444 39.3997 22.7319C42.212 19.9201 46.0243 18.3379 50.0012 18.3334V21.6664Z" stroke="black"/>
<path d="M51.668 25V26.667H52.2939C53.4532 26.6692 54.5646 27.1303 55.3838 27.9502C56.2029 28.7701 56.6635 29.8809 56.665 31.04V31.667H53.332V31.04C53.3304 30.4657 52.8646 30.0007 52.291 30H47.7041C47.1626 30.0002 46.7109 30.416 46.667 30.9561C46.6265 31.4632 46.9572 31.9191 47.4395 32.0459L47.5381 32.0674L53.0127 32.9785C54.4709 33.2189 55.7094 34.18 56.3047 35.5332C56.8991 36.8867 56.7703 38.4492 55.9609 39.6865C55.1522 40.924 53.7724 41.6692 52.2939 41.667H51.668V43.334H48.335V41.667H47.708C46.548 41.6655 45.4364 41.2037 44.6172 40.3838C43.7974 39.5646 43.3355 38.4529 43.334 37.293V36.667H46.668V37.293C46.6687 37.8674 47.1336 38.3323 47.708 38.333H52.2979C52.8395 38.333 53.2911 37.9171 53.335 37.377C53.3779 36.8363 52.9996 36.3537 52.4648 36.2666L46.9893 35.3555C45.531 35.1151 44.2925 34.1532 43.6973 32.7998C43.1029 31.4464 43.2316 29.8837 44.041 28.6465C44.8498 27.4091 46.2296 26.6648 47.708 26.667H48.335V25H51.668Z" fill="black"/>
<path d="M51.668 25V26.667H52.2939C53.4532 26.6692 54.5646 27.1303 55.3838 27.9502C56.2029 28.7701 56.6635 29.8809 56.665 31.04V31.667H53.332V31.04C53.3304 30.4657 52.8646 30.0007 52.291 30H47.7041C47.1626 30.0002 46.7109 30.416 46.667 30.9561C46.6265 31.4632 46.9572 31.9191 47.4395 32.0459L47.5381 32.0674L53.0127 32.9785C54.4709 33.2189 55.7094 34.18 56.3047 35.5332C56.8991 36.8867 56.7703 38.4492 55.9609 39.6865C55.1522 40.924 53.7724 41.6692 52.2939 41.667H51.668V43.334H48.335V41.667H47.708C46.548 41.6655 45.4364 41.2037 44.6172 40.3838C43.7974 39.5646 43.3355 38.4529 43.334 37.293V36.667H46.668V37.293C46.6687 37.8674 47.1336 38.3323 47.708 38.333H52.2979C52.8395 38.333 53.2911 37.9171 53.335 37.377C53.3779 36.8363 52.9996 36.3537 52.4648 36.2666L46.9893 35.3555C45.531 35.1151 44.2925 34.1532 43.6973 32.7998C43.1029 31.4464 43.2316 29.8837 44.041 28.6465C44.8498 27.4091 46.2296 26.6648 47.708 26.667H48.335V25H51.668Z" stroke="black"/>
<path d="M48.3347 6.10352e-05V11.751C48.8861 11.7079 49.4385 11.6671 50.0017 11.6671C53.4853 11.6663 56.9177 12.5121 60.0017 14.1319V6.66705H63.3347V16.2901C64.5572 17.2419 65.6747 18.3204 66.6687 19.5079V11.6671H70.0017V25.0001C72.7882 31.6873 72.0477 39.325 68.0291 45.3526C64.0112 51.3799 57.2458 55.001 50.0017 55.001C42.7576 55.001 35.9923 51.3801 31.9744 45.3526C27.9559 39.3246 27.2152 31.6867 30.0017 25.0001V6.66705H33.3347V19.5079C34.8086 17.7422 36.5532 16.221 38.5017 15.0001H38.3347V10.0001H41.6677V13.3331C42.7481 12.8896 43.8641 12.5349 45.0017 12.2715V6.10352e-05H48.3347ZM60.0017 17.9952C54.7568 14.5607 48.1172 14.0541 42.4119 16.6544C36.7065 19.254 32.7323 24.5966 31.8826 30.8087C31.0336 37.0206 33.429 43.2338 38.2273 47.2696C43.0258 51.3045 49.5573 52.5983 55.532 50.6973C61.5067 48.7956 66.089 43.9638 67.6716 37.8975C69.2547 31.8315 67.6181 25.3759 63.3347 20.7979V26.6661H60.0017V17.9952Z" fill="black"/>
<path d="M48.3347 6.10352e-05V11.751C48.8861 11.7079 49.4385 11.6671 50.0017 11.6671C53.4853 11.6663 56.9177 12.5121 60.0017 14.1319V6.66705H63.3347V16.2901C64.5572 17.2419 65.6747 18.3204 66.6687 19.5079V11.6671H70.0017V25.0001C72.7882 31.6873 72.0477 39.325 68.0291 45.3526C64.0112 51.3799 57.2458 55.001 50.0017 55.001C42.7576 55.001 35.9923 51.3801 31.9744 45.3526C27.9559 39.3246 27.2152 31.6867 30.0017 25.0001V6.66705H33.3347V19.5079C34.8086 17.7422 36.5532 16.221 38.5017 15.0001H38.3347V10.0001H41.6677V13.3331C42.7481 12.8896 43.8641 12.5349 45.0017 12.2715V6.10352e-05H48.3347ZM60.0017 17.9952C54.7568 14.5607 48.1172 14.0541 42.4119 16.6544C36.7065 19.254 32.7323 24.5966 31.8826 30.8087C31.0336 37.0206 33.429 43.2338 38.2273 47.2696C43.0258 51.3045 49.5573 52.5983 55.532 50.6973C61.5067 48.7956 66.089 43.9638 67.6716 37.8975C69.2547 31.8315 67.6181 25.3759 63.3347 20.7979V26.6661H60.0017V17.9952Z" stroke="black"/>
<mask id="path-5-inside-1_2507_30" fill="white">
<path d="M60.0012 0H63.3346V3.33334H60.0012V0Z"/>
</mask>
<path d="M60.0012 0H63.3346V3.33334H60.0012V0Z" fill="black"/>
<path d="M60.0012 0V-6H54.0012V0H60.0012ZM63.3346 0H69.3346V-6H63.3346V0ZM63.3346 3.33334V9.33334H69.3346V3.33334H63.3346ZM60.0012 3.33334H54.0012V9.33334H60.0012V3.33334ZM60.0012 0V6H63.3346V0V-6H60.0012V0ZM63.3346 0H57.3346V3.33334H63.3346H69.3346V0H63.3346ZM63.3346 3.33334V-2.66666H60.0012V3.33334V9.33334H63.3346V3.33334ZM60.0012 3.33334H66.0012V0H60.0012H54.0012V3.33334H60.0012Z" fill="black" mask="url(#path-5-inside-1_2507_30)"/>
<path d="M41.6677 6.66632H38.3347V3.33331H41.6677V6.66632Z" fill="black"/>
<path d="M41.6677 6.66632H38.3347V3.33331H41.6677V6.66632Z" stroke="black"/>
<path d="M81.6675 3.33728C82.4805 3.33728 83.1747 3.92413 83.311 4.72595C83.532 6.05023 84.1618 7.2729 85.1118 8.22302C86.0619 9.17243 87.2847 9.80184 88.6099 10.0228C89.4111 10.1591 89.9976 10.8532 89.9976 11.6664C89.9974 12.4794 89.411 13.1737 88.6099 13.3099C87.2847 13.5309 86.062 14.1594 85.1118 15.1088C84.1617 16.0589 83.532 17.2814 83.311 18.6058C83.1748 19.4079 82.4807 19.9945 81.6675 19.9945C80.8544 19.9944 80.1601 19.4078 80.0239 18.6058C79.803 17.2815 79.1733 16.0589 78.2231 15.1088C77.2732 14.1595 76.051 13.531 74.7261 13.3099C73.9248 13.1738 73.3375 12.4795 73.3374 11.6664C73.3374 10.8531 73.9247 10.159 74.7261 10.0228C76.0511 9.80182 77.273 9.17238 78.2231 8.22302C79.1733 7.27293 79.8029 6.05035 80.0239 4.72595C80.1602 3.92415 80.8545 3.33739 81.6675 3.33728ZM81.6675 9.28552C81.0179 10.2104 80.2125 11.0168 79.2876 11.6664C80.2123 12.3159 81.018 13.1215 81.6675 14.0463C82.317 13.1214 83.1235 12.3159 84.0483 11.6664C83.1235 11.0168 82.317 10.2104 81.6675 9.28552Z" fill="black"/>
<path d="M81.6675 3.33728C82.4805 3.33728 83.1747 3.92413 83.311 4.72595C83.532 6.05023 84.1618 7.2729 85.1118 8.22302C86.0619 9.17243 87.2847 9.80184 88.6099 10.0228C89.4111 10.1591 89.9976 10.8532 89.9976 11.6664C89.9974 12.4794 89.411 13.1737 88.6099 13.3099C87.2847 13.5309 86.062 14.1594 85.1118 15.1088C84.1617 16.0589 83.532 17.2814 83.311 18.6058C83.1748 19.4079 82.4807 19.9945 81.6675 19.9945C80.8544 19.9944 80.1601 19.4078 80.0239 18.6058C79.803 17.2815 79.1733 16.0589 78.2231 15.1088C77.2732 14.1595 76.051 13.531 74.7261 13.3099C73.9248 13.1738 73.3375 12.4795 73.3374 11.6664C73.3374 10.8531 73.9247 10.159 74.7261 10.0228C76.0511 9.80182 77.273 9.17238 78.2231 8.22302C79.1733 7.27293 79.8029 6.05035 80.0239 4.72595C80.1602 3.92415 80.8545 3.33739 81.6675 3.33728ZM81.6675 9.28552C81.0179 10.2104 80.2125 11.0168 79.2876 11.6664C80.2123 12.3159 81.018 13.1215 81.6675 14.0463C82.317 13.1214 83.1235 12.3159 84.0483 11.6664C83.1235 11.0168 82.317 10.2104 81.6675 9.28552Z" stroke="black"/>
<path d="M33.3525 63.9974C37.8114 63.9974 42.1361 65.5278 45.6025 68.3333H64.168C66.7987 68.3343 69.2364 69.7138 70.5928 71.9681C71.9491 74.2226 72.0241 77.0227 70.792 79.347L89.6953 69.1673C90.7144 68.6214 91.852 68.3343 93.0078 68.3333C95.0329 68.3632 96.9498 69.2569 98.2734 70.7894C99.5977 72.3221 100.204 74.3485 99.9395 76.3558C99.6747 78.364 98.5631 80.1632 96.8867 81.3001L70.9365 98.5999C69.5689 99.5151 67.9603 100.003 66.3145 100H0V96.6673H20V71.6673H0V68.3333H21.1025C24.5682 65.5275 28.8928 63.9975 33.3525 63.9974ZM33.7119 67.3294C29.9559 67.2424 26.2866 68.467 23.335 70.7914V96.6673H66.3164C67.3029 96.671 68.2684 96.3802 69.0898 95.8333L95.0391 78.5277C96.0933 77.8127 96.7102 76.609 96.6738 75.3353C96.6381 74.0615 95.9543 72.8944 94.8613 72.2396C93.7684 71.5856 92.4165 71.5349 91.2773 72.1048V72.1039L70.791 83.1361C70.5479 83.2669 70.2768 83.3343 70.001 83.3343H46.668C45.7476 83.3343 45.001 82.5877 45.001 81.6673C45.0011 80.7471 45.7477 80.0013 46.668 80.0013H64.168C65.6567 80.0013 67.0316 79.2068 67.7764 77.9173C68.5203 76.6279 68.5202 75.0407 67.7764 73.7513C67.0316 72.4618 65.6568 71.6673 64.168 71.6673H45.002C44.604 71.668 44.219 71.5258 43.917 71.2669C41.0763 68.8087 37.4678 67.4165 33.7119 67.3294Z" fill="black"/>
<path d="M33.3525 63.9974C37.8114 63.9974 42.1361 65.5278 45.6025 68.3333H64.168C66.7987 68.3343 69.2364 69.7138 70.5928 71.9681C71.9491 74.2226 72.0241 77.0227 70.792 79.347L89.6953 69.1673C90.7144 68.6214 91.852 68.3343 93.0078 68.3333C95.0329 68.3632 96.9498 69.2569 98.2734 70.7894C99.5977 72.3221 100.204 74.3485 99.9395 76.3558C99.6747 78.364 98.5631 80.1632 96.8867 81.3001L70.9365 98.5999C69.5689 99.5151 67.9603 100.003 66.3145 100H0V96.6673H20V71.6673H0V68.3333H21.1025C24.5682 65.5275 28.8928 63.9975 33.3525 63.9974ZM33.7119 67.3294C29.9559 67.2424 26.2866 68.467 23.335 70.7914V96.6673H66.3164C67.3029 96.671 68.2684 96.3802 69.0898 95.8333L95.0391 78.5277C96.0933 77.8127 96.7102 76.609 96.6738 75.3353C96.6381 74.0615 95.9543 72.8944 94.8613 72.2396C93.7684 71.5856 92.4165 71.5349 91.2773 72.1048V72.1039L70.791 83.1361C70.5479 83.2669 70.2768 83.3343 70.001 83.3343H46.668C45.7476 83.3343 45.001 82.5877 45.001 81.6673C45.0011 80.7471 45.7477 80.0013 46.668 80.0013H64.168C65.6567 80.0013 67.0316 79.2068 67.7764 77.9173C68.5203 76.6279 68.5202 75.0407 67.7764 73.7513C67.0316 72.4618 65.6568 71.6673 64.168 71.6673H45.002C44.604 71.668 44.219 71.5258 43.917 71.2669C41.0763 68.8087 37.4678 67.4165 33.7119 67.3294Z" stroke="black"/>
<path d="M11.6682 83.334C12.9937 83.334 14.2659 83.8608 15.2034 84.7979C16.1409 85.7352 16.6682 87.0081 16.6682 88.334C16.6682 89.6597 16.1407 90.9317 15.2034 91.8691C14.2661 92.8066 12.9939 93.334 11.6682 93.334C10.3425 93.334 9.06959 92.8065 8.13208 91.8691C7.19485 90.9319 6.66824 89.6595 6.66821 88.334C6.66821 87.0083 7.19475 85.7354 8.13208 84.7979C9.06941 83.8603 10.3425 83.334 11.6682 83.334ZM12.8469 87.1553C12.37 86.6783 11.6533 86.5367 11.0305 86.7949C10.4078 87.0524 10.0012 87.6599 10.0012 88.334C10.0013 89.2543 10.7479 90.001 11.6682 90.001C12.3422 90.0009 12.9498 89.5943 13.2073 88.9717C13.4654 88.349 13.3238 87.6322 12.8469 87.1553Z" fill="black"/>
<path d="M11.6682 83.334C12.9937 83.334 14.2659 83.8608 15.2034 84.7979C16.1409 85.7352 16.6682 87.0081 16.6682 88.334C16.6682 89.6597 16.1407 90.9317 15.2034 91.8691C14.2661 92.8066 12.9939 93.334 11.6682 93.334C10.3425 93.334 9.06959 92.8065 8.13208 91.8691C7.19485 90.9319 6.66824 89.6595 6.66821 88.334C6.66821 87.0083 7.19475 85.7354 8.13208 84.7979C9.06941 83.8603 10.3425 83.334 11.6682 83.334ZM12.8469 87.1553C12.37 86.6783 11.6533 86.5367 11.0305 86.7949C10.4078 87.0524 10.0012 87.6599 10.0012 88.334C10.0013 89.2543 10.7479 90.001 11.6682 90.001C12.3422 90.0009 12.9498 89.5943 13.2073 88.9717C13.4654 88.349 13.3238 87.6322 12.8469 87.1553Z" stroke="black"/>
</svg>
