<svg width="88" height="101" viewBox="0 0 88 101" fill="none" xmlns="http://www.w3.org/2000/svg">
<path d="M35.1716 96V72C35.1716 70.8954 36.0671 70 37.1716 70H50.6716C51.7762 70 52.6716 70.8954 52.6716 72V96C52.6716 97.1046 51.7762 98 50.6716 98H37.1716C36.0671 98 35.1716 97.1046 35.1716 96Z" stroke="black" stroke-width="6" stroke-linecap="round"/>
<path d="M37.6716 70H28.6716" stroke="black" stroke-width="6" stroke-linecap="round"/>
<path d="M32.6716 13.1561V12.8485C32.6716 7.40933 37.081 3 42.5202 3C48.0762 3 52.5324 7.59331 52.3642 13.1468L52.3548 13.4543C52.1937 18.7724 47.836 23 42.5155 23C37.0789 23 32.6716 18.5928 32.6716 13.1561Z" stroke="black" stroke-width="6" stroke-linecap="round"/>
<path d="M28.6716 70V44C28.6716 37.9249 33.5965 33 39.6716 33H47.6716C53.7468 33 58.6716 37.9249 58.6716 44V69.5" stroke="black" stroke-width="6" stroke-linecap="round"/>
<path d="M58.6716 70H50.6716" stroke="black" stroke-width="6" stroke-linecap="round"/>
<path d="M18.6716 35L3.58584 50.0858C2.8048 50.8668 2.8048 52.1332 3.58584 52.9142L18.6716 68" stroke="black" stroke-width="6" stroke-linecap="round"/>
<path d="M68.6716 35L83.7574 50.0858C84.5385 50.8668 84.5385 52.1332 83.7574 52.9142L68.6716 68" stroke="black" stroke-width="6" stroke-linecap="round"/>
</svg>
