<svg width="98" height="100" viewBox="0 0 98 100" fill="none" xmlns="http://www.w3.org/2000/svg">
<mask id="path-1-inside-1_2541_65" fill="white">
<path d="M95.7581 62.2155C94.3031 61.7431 92.7268 62.5335 92.2545 63.9878C84.5599 87.2735 59.3638 99.9523 36.078 92.2524C12.7942 84.5358 0.113508 59.3423 7.81341 36.0565C15.5104 12.7902 40.7042 0.11333 63.9899 7.80935C71.4696 10.2895 77.9447 14.6001 83.0836 20.3476L74.8167 18.9902C73.2821 18.7351 71.865 19.7586 71.628 21.2734C71.3721 22.7883 72.3941 24.2251 73.9104 24.4621L89.1682 26.98C90.7633 27.2374 92.101 26.1935 92.3553 24.6976L94.8755 9.44373C95.1314 7.92887 94.1071 6.49052 92.5923 6.25505C91.0578 5.99992 89.6407 7.02269 89.4036 8.53827L87.9289 17.4359C82.0436 10.605 74.3648 5.38893 65.7246 2.53553C39.5453 -6.12661 11.2012 8.12489 2.54007 34.3235C-6.11994 60.5028 8.07264 89.1046 34.3319 97.5294C61.3756 106.189 88.8533 91.2497 97.5339 65.7375C98.0252 64.259 97.2182 62.685 95.7601 62.212L95.7581 62.2155Z"/>
</mask>
<path d="M95.7581 62.2155C94.3031 61.7431 92.7268 62.5335 92.2545 63.9878C84.5599 87.2735 59.3638 99.9523 36.078 92.2524C12.7942 84.5358 0.113508 59.3423 7.81341 36.0565C15.5104 12.7902 40.7042 0.11333 63.9899 7.80935C71.4696 10.2895 77.9447 14.6001 83.0836 20.3476L74.8167 18.9902C73.2821 18.7351 71.865 19.7586 71.628 21.2734C71.3721 22.7883 72.3941 24.2251 73.9104 24.4621L89.1682 26.98C90.7633 27.2374 92.101 26.1935 92.3553 24.6976L94.8755 9.44373C95.1314 7.92887 94.1071 6.49052 92.5923 6.25505C91.0578 5.99992 89.6407 7.02269 89.4036 8.53827L87.9289 17.4359C82.0436 10.605 74.3648 5.38893 65.7246 2.53553C39.5453 -6.12661 11.2012 8.12489 2.54007 34.3235C-6.11994 60.5028 8.07264 89.1046 34.3319 97.5294C61.3756 106.189 88.8533 91.2497 97.5339 65.7375C98.0252 64.259 97.2182 62.685 95.7601 62.212L95.7581 62.2155Z" fill="black"/>
<path d="M95.7581 62.2155L93.9054 67.9223L98.5858 69.4419L100.992 65.1493L95.7581 62.2155ZM92.2545 63.9878L97.9515 65.8703L97.9564 65.8557L97.9611 65.8411L92.2545 63.9878ZM36.078 92.2524L34.1905 97.9478L34.1943 97.949L36.078 92.2524ZM7.81341 36.0565L2.11703 34.172L2.11677 34.1728L7.81341 36.0565ZM63.9899 7.80935L65.8783 2.11426L65.8728 2.11243L63.9899 7.80935ZM83.0836 20.3476L82.1115 26.2683L98.8892 29.0231L87.5565 16.3484L83.0836 20.3476ZM74.8167 18.9902L73.8326 24.909L73.8445 24.9109L74.8167 18.9902ZM71.628 21.2734L77.5442 22.2728L77.5502 22.2369L77.5558 22.201L71.628 21.2734ZM73.9104 24.4621L74.8874 18.5422L74.8622 18.538L74.8371 18.5341L73.9104 24.4621ZM89.1682 26.98L88.1912 32.9L88.2018 32.9017L88.2123 32.9034L89.1682 26.98ZM92.3553 24.6976L98.2704 25.7031L98.2728 25.6894L98.275 25.6757L92.3553 24.6976ZM94.8755 9.44373L88.9593 8.44441L88.9576 8.45504L88.9558 8.46567L94.8755 9.44373ZM92.5923 6.25505L91.6083 12.1738L91.6395 12.179L91.6707 12.1838L92.5923 6.25505ZM89.4036 8.53827L95.3229 9.51936L95.3273 9.49238L95.3316 9.46536L89.4036 8.53827ZM87.9289 17.4359L83.3833 21.3522L91.7517 31.0652L93.8481 18.417L87.9289 17.4359ZM65.7246 2.53553L63.8398 8.23181L63.8431 8.23289L65.7246 2.53553ZM2.54007 34.3235L8.23649 36.2079L8.23683 36.2069L2.54007 34.3235ZM34.3319 97.5294L32.499 103.243L32.5021 103.244L34.3319 97.5294ZM97.5339 65.7375L103.214 67.6702L103.221 67.6499L103.228 67.6296L97.5339 65.7375ZM95.7601 62.212L97.6118 56.5048L92.932 54.9864L90.5263 59.2782L95.7601 62.212ZM95.7581 62.2155L97.6109 56.5088C93.0497 55.0279 88.0584 57.4835 86.5479 62.1345L92.2545 63.9878L97.9611 65.8411C97.3952 67.5835 95.5564 68.4583 93.9054 67.9223L95.7581 62.2155ZM92.2545 63.9878L86.5575 62.1052C79.9026 82.2444 58.1006 93.2151 37.9617 86.5558L36.078 92.2524L34.1943 97.949C60.6269 106.69 89.2171 92.3027 97.9515 65.8703L92.2545 63.9878ZM36.078 92.2524L37.9655 86.557C17.8215 79.881 6.8514 58.077 13.51 37.9402L7.81341 36.0565L2.11677 34.1728C-6.62438 60.6075 7.76696 89.1907 34.1905 97.9478L36.078 92.2524ZM7.81341 36.0565L13.5098 37.941C20.166 17.8207 41.9663 6.84969 62.1071 13.5063L63.9899 7.80935L65.8728 2.11243C39.442 -6.62303 10.8548 7.75964 2.11703 34.172L7.81341 36.0565ZM63.9899 7.80935L62.1015 13.5044C68.5712 15.6497 74.1597 19.3686 78.6108 24.3468L83.0836 20.3476L87.5565 16.3484C81.7297 9.83161 74.3681 4.9293 65.8783 2.11426L63.9899 7.80935ZM83.0836 20.3476L84.0558 14.4269L75.7888 13.0695L74.8167 18.9902L73.8445 24.9109L82.1115 26.2683L83.0836 20.3476ZM74.8167 18.9902L75.8007 13.0715C71.006 12.2743 66.4577 15.5043 65.7001 20.3459L71.628 21.2734L77.5558 22.201C77.2723 24.0129 75.5582 25.1958 73.8326 24.909L74.8167 18.9902ZM71.628 21.2734L65.7118 20.2741C64.9065 25.0412 68.1216 29.6301 72.9838 30.3901L73.9104 24.4621L74.8371 18.5341C76.6666 18.8201 77.8376 20.5353 77.5442 22.2728L71.628 21.2734ZM73.9104 24.4621L72.9335 30.382L88.1912 32.9L89.1682 26.98L90.1451 21.0601L74.8874 18.5422L73.9104 24.4621ZM89.1682 26.98L88.2123 32.9034C93.1998 33.7082 97.4883 30.3044 98.2704 25.7031L92.3553 24.6976L86.4401 23.6921C86.5685 22.9368 86.9974 22.1864 87.7107 21.662C88.4484 21.1197 89.3416 20.9304 90.124 21.0567L89.1682 26.98ZM92.3553 24.6976L98.275 25.6757L100.795 10.4218L94.8755 9.44373L88.9558 8.46567L86.4356 23.7195L92.3553 24.6976ZM94.8755 9.44373L100.792 10.4431C101.597 5.67565 98.3787 1.08246 93.5139 0.326252L92.5923 6.25505L91.6707 12.1838C89.8356 11.8986 88.6658 10.1821 88.9593 8.44441L94.8755 9.44373ZM92.5923 6.25505L93.5763 0.33629C88.7832 -0.460594 84.2333 2.767 83.4757 7.61119L89.4036 8.53827L95.3316 9.46536C95.048 11.2784 93.3324 12.4604 91.6083 12.1738L92.5923 6.25505ZM89.4036 8.53827L83.4844 7.55718L82.0096 16.4548L87.9289 17.4359L93.8481 18.417L95.3229 9.51936L89.4036 8.53827ZM87.9289 17.4359L92.4745 13.5195C85.8965 5.88468 77.3045 0.0410153 67.6061 -3.16182L65.7246 2.53553L63.8431 8.23289C71.4252 10.7368 78.1907 15.3254 83.3833 21.3522L87.9289 17.4359ZM65.7246 2.53553L67.6094 -3.16075C38.2829 -12.8642 6.54458 3.09545 -3.15669 32.4402L2.54007 34.3235L8.23683 36.2069C15.8579 13.1543 40.8078 0.611018 63.8398 8.23181L65.7246 2.53553ZM2.54007 34.3235L-3.15635 32.4392C-12.8419 61.7187 2.99858 93.778 32.499 103.243L34.3319 97.5294L36.1649 91.8162C13.1467 84.4313 0.602024 59.2869 8.23649 36.2079L2.54007 34.3235ZM34.3319 97.5294L32.5021 103.244C62.7612 112.933 93.5138 96.1794 103.214 67.6702L97.5339 65.7375L91.8537 63.8048C84.1929 86.32 59.99 99.4455 36.1618 91.8152L34.3319 97.5294ZM97.5339 65.7375L103.228 67.6296C104.771 62.9864 102.233 58.0043 97.6118 56.5048L95.7601 62.212L93.9084 67.9191C92.203 67.3658 91.2797 65.5315 91.8401 63.8453L97.5339 65.7375ZM95.7601 62.212L90.5263 59.2782L90.5243 59.2818L95.7581 62.2155L100.992 65.1493L100.994 65.1457L95.7601 62.212Z" fill="black" mask="url(#path-1-inside-1_2541_65)"/>
<path d="M21 68.7432V38.2158C21 37.4689 21.4162 36.7842 22.0794 36.4403L47.0959 23.4688C47.6639 23.1743 48.3386 23.1693 48.9109 23.4555L73.8944 35.9472C74.572 36.286 75 36.9785 75 37.7361V68.2639C75 69.0215 74.572 69.714 73.8944 70.0528L48.8778 82.5611C48.3241 82.8379 47.6735 82.8428 47.1157 82.5742L22.1324 70.5452C21.4401 70.2119 21 69.5115 21 68.7432Z" stroke="black" stroke-width="5" stroke-linecap="round"/>
<path d="M22 37L47.8676 49.4548C48.5599 49.7881 49 50.4885 49 51.2568V82" stroke="black" stroke-width="5" stroke-linecap="round"/>
<path d="M49 50L75 37" stroke="black" stroke-width="5" stroke-linecap="round"/>
<path d="M63 60V43.7151C63 42.9685 62.5842 42.2841 61.9216 41.9401L37 29" stroke="black" stroke-width="5" stroke-linecap="round"/>
</svg>
