<svg width="100" height="100" viewBox="0 0 100 100" fill="none" xmlns="http://www.w3.org/2000/svg">
<path d="M91.6673 50C91.6673 73 73.0006 91.6667 50.0006 91.6667C27.0007 91.6667 8.33398 73 8.33398 50C8.33398 27 27.0007 8.33337 50.0006 8.33337C73.0006 8.33337 91.6673 27 91.6673 50Z" stroke="black" stroke-width="6" stroke-linecap="round" stroke-linejoin="round"/>
<path d="M52.6558 58.3438H45.187C45.2078 56.4479 45.3641 54.8229 45.6558 53.4688C45.9683 52.1146 46.4787 50.8958 47.187 49.8125C47.8953 48.7083 48.8537 47.5833 50.062 46.4375C51.0203 45.5417 51.8745 44.6979 52.6245 43.9062C53.3953 43.0938 53.9995 42.25 54.437 41.375C54.8745 40.4792 55.0933 39.4688 55.0933 38.3438C55.0933 37.0729 54.8849 36.0104 54.4683 35.1562C54.0724 34.3021 53.4787 33.6562 52.687 33.2188C51.9162 32.7604 50.9474 32.5312 49.7808 32.5312C48.8224 32.5312 47.9162 32.7292 47.062 33.125C46.2078 33.5208 45.5203 34.1354 44.9995 34.9688C44.4787 35.7812 44.1974 36.8438 44.1558 38.1562H35.8745C35.937 35.4271 36.5828 33.1562 37.812 31.3438C39.0412 29.5104 40.6974 28.1458 42.7808 27.25C44.8641 26.3333 47.1974 25.875 49.7808 25.875C52.6349 25.875 55.0724 26.3542 57.0933 27.3125C59.1349 28.25 60.687 29.625 61.7495 31.4375C62.8328 33.25 63.3745 35.4375 63.3745 38C63.3745 39.8333 63.0203 41.4792 62.312 42.9375C61.6037 44.375 60.6662 45.7188 59.4995 46.9688C58.3328 48.2188 57.0724 49.4792 55.7183 50.75C54.5308 51.8125 53.7287 52.9479 53.312 54.1562C52.8953 55.3646 52.6766 56.7604 52.6558 58.3438ZM44.4058 68.0625C44.4058 66.8125 44.8224 65.7708 45.6558 64.9375C46.5099 64.1042 47.6558 63.6875 49.0933 63.6875C50.5308 63.6875 51.6662 64.1042 52.4995 64.9375C53.3537 65.7708 53.7808 66.8125 53.7808 68.0625C53.7808 69.2708 53.3537 70.2917 52.4995 71.125C51.6662 71.9583 50.5308 72.375 49.0933 72.375C47.6558 72.375 46.5099 71.9583 45.6558 71.125C44.8224 70.2917 44.4058 69.2708 44.4058 68.0625Z" fill="black"/>
</svg>
