<svg width="100" height="80" viewBox="0 0 100 80" fill="none" xmlns="http://www.w3.org/2000/svg">
<path d="M3.33301 3H54.333C57.6449 3 60.333 5.68811 60.333 9V57.666C60.333 60.9779 57.6449 63.666 54.333 63.666H33.333C33.1499 63.6659 33 63.5161 33 63.333C33.0001 63.1499 33.15 63.0001 33.333 63H54.333C57.2785 63 59.666 60.6116 59.666 57.666V9C59.666 6.05446 57.2785 3.66699 54.333 3.66699H3.33301C3.14997 3.66682 3 3.51608 3 3.33301C3.00017 3.15008 3.15008 3.00017 3.33301 3Z" fill="black" stroke="black" stroke-width="6"/>
<path d="M3.33301 62.9998H13.333C13.5161 62.9998 13.6668 63.1498 13.667 63.3328C13.667 63.516 13.5162 63.6668 13.333 63.6668H3.33301C3.14997 63.6666 3 63.5159 3 63.3328C3.00017 63.1499 3.15008 63 3.33301 62.9998Z" fill="black" stroke="black" stroke-width="6"/>
<path d="M53.333 62.9998H68.4141C68.5969 63 68.7469 63.1499 68.7471 63.3328C68.7471 63.5159 68.5971 63.6666 68.4141 63.6668H53.333C53.15 63.6666 53 63.5159 53 63.3328C53.0002 63.1499 53.1501 63 53.333 62.9998Z" fill="black" stroke="black" stroke-width="6"/>
<path d="M96.4246 42.1445C96.7437 42.596 96.8723 42.8484 96.8962 42.9043C96.9904 43.1236 96.9997 43.2714 96.9998 43.334V59.667C96.9998 61.8724 95.2052 63.667 92.9998 63.667H88.4138C88.2306 63.667 88.0798 63.5172 88.0798 63.334C88.0799 63.1508 88.2307 63.001 88.4138 63.001H92.9998C94.8389 63.001 96.3328 61.5061 96.3328 59.667V42.0186C96.3641 42.0617 96.3954 42.1032 96.4246 42.1445ZM59.9988 26.335H79.9988C80.0821 26.335 80.1571 26.365 80.2126 26.4141L80.2185 26.4189L80.2195 26.4199C80.2206 26.4209 80.2229 26.4226 80.2253 26.4248C80.2302 26.4291 80.2378 26.4356 80.2478 26.4443C80.2678 26.462 80.298 26.4885 80.3376 26.5234C80.4169 26.5934 80.534 26.698 80.6853 26.832C80.9879 27.1002 81.4261 27.4891 81.9656 27.9717C83.0454 28.9376 84.5301 30.2755 86.1482 31.7637C88.8857 34.2815 91.9203 37.1566 94.0476 39.3828L93.5759 39.8145C92.0596 38.2112 90.1434 36.3624 88.3064 34.6387C85.3024 31.82 82.2322 29.0836 80.7283 27.7539L79.8777 27.002H59.9988C59.8157 27.0018 59.6658 26.851 59.6658 26.668C59.6659 26.5078 59.7809 26.3729 59.9324 26.3418L59.9988 26.335Z" fill="black" stroke="black" stroke-width="6"/>
<path d="M23.333 56.3331C29.0362 56.3331 33.6668 60.963 33.667 66.6661C33.667 72.3694 29.0363 77.0001 23.333 77.0001C17.6298 77 13 72.3694 13 66.6661C13.0002 60.963 17.6299 56.3333 23.333 56.3331ZM23.333 57.0001C17.9964 57.0003 13.6671 61.3295 13.667 66.6661C13.667 72.0029 17.9963 76.333 23.333 76.3331C28.6698 76.3331 33 72.003 33 66.6661C32.9998 61.3294 28.6698 57.0001 23.333 57.0001Z" fill="black" stroke="black" stroke-width="6"/>
<path d="M78.4111 56.3329C84.1144 56.3329 88.745 60.9628 88.7451 66.666C88.7451 72.3693 84.1144 76.9999 78.4111 76.9999C72.7119 76.9998 68.0781 72.3685 68.0781 66.666C68.0783 60.9635 72.7119 56.3331 78.4111 56.3329ZM78.4111 56.9999C73.0802 57.0001 68.7453 61.3281 68.7451 66.666C68.7451 72.004 73.0801 76.3328 78.4111 76.3329C83.748 76.3329 88.0781 72.0028 88.0781 66.666C88.078 61.3292 83.7479 56.9999 78.4111 56.9999Z" fill="black" stroke="black" stroke-width="6"/>
<path d="M79.9998 42.9998H96.6667C96.8498 42.9999 96.9996 43.1498 96.9998 43.3328C96.9998 43.516 96.8499 43.6668 96.6667 43.6668H79.9998C79.8167 43.6666 79.6667 43.5159 79.6667 43.3328C79.6669 43.1499 79.8168 43 79.9998 42.9998Z" fill="black" stroke="black" stroke-width="6"/>
<path d="M3.33301 19.6667H20C20.183 19.6667 20.3328 19.8167 20.333 19.9997C20.333 20.1828 20.1831 20.3336 20 20.3337H3.33301C3.14997 20.3335 3 20.1828 3 19.9997C3.00017 19.8168 3.15008 19.6669 3.33301 19.6667Z" fill="black" stroke="black" stroke-width="6"/>
<path d="M3.33301 32.9998H20C20.183 32.9999 20.3328 33.1498 20.333 33.3328C20.333 33.516 20.1831 33.6668 20 33.6668H3.33301C3.14997 33.6666 3 33.5159 3 33.3328C3.00017 33.1499 3.15008 33 3.33301 32.9998Z" fill="black" stroke="black" stroke-width="6"/>
<path d="M3.33301 46.3331H20C20.183 46.3332 20.3328 46.4831 20.333 46.6661C20.333 46.8493 20.1831 47.0001 20 47.0001H3.33301C3.14997 47 3 46.8492 3 46.6661C3.00017 46.4832 3.15008 46.3333 3.33301 46.3331Z" fill="black" stroke="black" stroke-width="6"/>
</svg>
