<svg width="100" height="100" viewBox="0 0 100 100" fill="none" xmlns="http://www.w3.org/2000/svg">
<path d="M59.6665 79.4584C59.6665 82 57.9997 85.3334 55.8747 86.625L49.9998 90.4167C44.5415 93.7917 36.9582 90 36.9582 83.25V60.9584C36.9582 58 35.2915 54.2084 33.5832 52.125L17.5831 35.2917C15.4581 33.1667 13.7915 29.4167 13.7915 26.8751V17.2084C13.7915 12.1667 17.5833 8.37504 22.2083 8.37504H77.7914C82.4164 8.37504 86.2082 12.1667 86.2082 16.7917V26.0417C86.2082 29.4167 84.0831 33.625 81.9998 35.7084" stroke="black" stroke-width="6" stroke-miterlimit="10" stroke-linecap="round" stroke-linejoin="round"/>
<path d="M66.9589 68.8333C74.3227 68.8333 80.2923 62.8638 80.2923 55.5C80.2923 48.1362 74.3227 42.1666 66.9589 42.1666C59.5951 42.1666 53.6255 48.1362 53.6255 55.5C53.6255 62.8638 59.5951 68.8333 66.9589 68.8333Z" stroke="black" stroke-width="6" stroke-linecap="round" stroke-linejoin="round"/>
<path d="M82.7922 71.3333L78.6255 67.1666" stroke="black" stroke-width="6" stroke-linecap="round" stroke-linejoin="round"/>
</svg>
