<svg width="100" height="100" viewBox="0 0 100 100" fill="none" xmlns="http://www.w3.org/2000/svg">
<path d="M37.4998 91.6666H62.4998C83.3331 91.6666 91.6665 83.3333 91.6665 62.5V37.5C91.6665 16.6666 83.3331 8.33331 62.4998 8.33331H37.4998C16.6665 8.33331 8.33313 16.6666 8.33313 37.5V62.5C8.33313 83.3333 16.6665 91.6666 37.4998 91.6666Z" stroke="black" stroke-width="3" stroke-linecap="round" stroke-linejoin="round"/>
<path d="M37.5003 41.6667C42.1027 41.6667 45.8337 37.9357 45.8337 33.3333C45.8337 28.731 42.1027 25 37.5003 25C32.898 25 29.167 28.731 29.167 33.3333C29.167 37.9357 32.898 41.6667 37.5003 41.6667Z" stroke="black" stroke-width="3" stroke-linecap="round" stroke-linejoin="round"/>
<path d="M11.1249 78.9583L31.6665 65.1666C34.9582 62.9583 39.7082 63.2083 42.6665 65.75L44.0415 66.9583C47.2915 69.75 52.5415 69.75 55.7915 66.9583L73.1249 52.0833C76.3749 49.2916 81.6249 49.2916 84.8749 52.0833L91.6666 57.9166" stroke="black" stroke-width="3" stroke-linecap="round" stroke-linejoin="round"/>
</svg>
