<svg width="100" height="100" viewBox="0 0 100 100" fill="none" xmlns="http://www.w3.org/2000/svg">
<path d="M83.2087 41.6667H16.542V75C16.542 87.5 20.7087 91.6667 33.2087 91.6667H66.542C79.042 91.6667 83.2087 87.5 83.2087 75V41.6667Z" stroke="black" stroke-width="6" stroke-miterlimit="10" stroke-linecap="round" stroke-linejoin="round"/>
<path d="M89.5827 29.1666V33.3333C89.5827 37.9166 87.3743 41.6666 81.2493 41.6666H18.7493C12.3743 41.6666 10.416 37.9166 10.416 33.3333V29.1666C10.416 24.5833 12.3743 20.8333 18.7493 20.8333H81.2493C87.3743 20.8333 89.5827 24.5833 89.5827 29.1666Z" stroke="black" stroke-width="6" stroke-miterlimit="10" stroke-linecap="round" stroke-linejoin="round"/>
<path d="M48.4999 20.8333H25.4999C24.0832 19.2917 24.1249 16.9167 25.6249 15.4167L31.5416 9.49998C33.0833 7.95832 35.6249 7.95832 37.1666 9.49998L48.4999 20.8333Z" stroke="black" stroke-width="6" stroke-miterlimit="10" stroke-linecap="round" stroke-linejoin="round"/>
<path d="M74.459 20.8333H51.459L62.7923 9.49998C64.334 7.95832 66.8757 7.95832 68.4173 9.49998L74.334 15.4167C75.834 16.9167 75.8757 19.2917 74.459 20.8333Z" stroke="black" stroke-width="6" stroke-miterlimit="10" stroke-linecap="round" stroke-linejoin="round"/>
<path d="M37.25 41.6667V63.0834C37.25 66.4167 40.9167 68.375 43.7083 66.5834L47.625 64C49.0417 63.0834 50.8333 63.0834 52.2083 64L55.9167 66.5C58.6667 68.3334 62.375 66.375 62.375 63.0417V41.6667H37.25Z" stroke="black" stroke-width="6" stroke-miterlimit="10" stroke-linecap="round" stroke-linejoin="round"/>
</svg>
