<svg width="100" height="100" viewBox="0 0 100 100" fill="none" xmlns="http://www.w3.org/2000/svg">
<path d="M37.3747 91.6667H62.3747C83.208 91.6667 91.5413 83.3333 91.5413 62.5V37.5C91.5413 16.6667 83.208 8.33334 62.3747 8.33334H37.3747C16.5413 8.33334 8.20801 16.6667 8.20801 37.5V62.5C8.20801 83.3333 16.5413 91.6667 37.3747 91.6667Z" stroke="black" stroke-width="6" stroke-linecap="round" stroke-linejoin="round"/>
<path d="M8.20801 52.9167L33.208 52.8333C36.333 52.8333 39.833 55.2083 40.9997 58.125L45.7497 70.125C46.833 72.8333 48.5413 72.8333 49.6247 70.125L59.1663 45.9167C60.083 43.5833 61.7913 43.5 62.958 45.7083L67.2913 53.9167C68.583 56.375 71.9163 58.375 74.6663 58.375H91.583" stroke="black" stroke-width="6" stroke-linecap="round" stroke-linejoin="round"/>
</svg>
