<svg width="100" height="100" viewBox="0 0 100 100" fill="none" xmlns="http://www.w3.org/2000/svg">
<path d="M8.33398 91.6666H91.6673" stroke="black" stroke-width="6" stroke-miterlimit="10" stroke-linecap="round" stroke-linejoin="round"/>
<path d="M12.291 91.6667L12.4993 41.5416C12.4993 38.9999 13.7077 36.5835 15.7077 35.0001L44.8743 12.2917C47.8743 9.95841 52.0827 9.95841 55.1243 12.2917L84.291 34.9584C86.3327 36.5418 87.4993 38.9582 87.4993 41.5416V91.6667" stroke="black" stroke-width="6" stroke-miterlimit="10" stroke-linejoin="round"/>
<path d="M54.1673 70.8334H45.834C42.3757 70.8334 39.584 73.625 39.584 77.0834V91.6667H60.4173V77.0834C60.4173 73.625 57.6257 70.8334 54.1673 70.8334Z" stroke="black" stroke-width="6" stroke-miterlimit="10" stroke-linejoin="round"/>
<path d="M39.584 57.2917H31.2507C28.959 57.2917 27.084 55.4167 27.084 53.125V46.875C27.084 44.5834 28.959 42.7084 31.2507 42.7084H39.584C41.8756 42.7084 43.7506 44.5834 43.7506 46.875V53.125C43.7506 55.4167 41.8756 57.2917 39.584 57.2917Z" stroke="black" stroke-width="6" stroke-miterlimit="10" stroke-linejoin="round"/>
<path d="M68.75 57.2917H60.4167C58.125 57.2917 56.25 55.4167 56.25 53.125V46.875C56.25 44.5834 58.125 42.7084 60.4167 42.7084H68.75C71.0417 42.7084 72.9167 44.5834 72.9167 46.875V53.125C72.9167 55.4167 71.0417 57.2917 68.75 57.2917Z" stroke="black" stroke-width="6" stroke-miterlimit="10" stroke-linejoin="round"/>
<path d="M79.1663 29.1666L79.0413 16.6666H60.708" stroke="black" stroke-width="6" stroke-miterlimit="10" stroke-linecap="round" stroke-linejoin="round"/>
</svg>
