<svg width="67" height="100" viewBox="0 0 67 100" fill="none" xmlns="http://www.w3.org/2000/svg">
<path d="M40.9396 0.00449367C39.946 0.059521 39.0283 0.556315 38.4392 1.35849L0.651782 52.4851H0.651007C0.16117 53.1501 -0.0651387 53.9724 0.0162495 54.7948C0.0984037 55.6163 0.482059 56.3782 1.09279 56.9338C1.70429 57.4888 2.50028 57.7973 3.32571 57.7996H29.3394L22.2889 96.0751C22.1106 97.0648 22.3896 98.0832 23.0476 98.8443C23.7049 99.6062 24.6713 100.03 25.6774 99.9983C26.6826 99.9658 27.6204 99.4814 28.2279 98.68L66.0153 47.5534C66.5059 46.8884 66.7323 46.0661 66.6501 45.2437C66.5687 44.4222 66.1851 43.6603 65.5736 43.1054C64.9628 42.5497 64.1669 42.2412 63.3414 42.2389H37.3277L44.3783 3.92772V3.92849C44.5589 2.92868 44.2744 1.90093 43.6048 1.13685C42.9352 0.372647 41.954 -0.0443142 40.9393 0.00374096L40.9396 0.00449367ZM35.2438 16.8849L30.0688 44.9502V44.9494C29.8828 45.9236 30.1409 46.9304 30.7718 47.6954C31.4027 48.4612 32.342 48.9053 33.3333 48.9084H56.7418L31.4226 83.1541L36.5975 55.0551H36.5983C36.7727 54.0863 36.5092 53.0896 35.8798 52.3323C35.2497 51.5759 34.3181 51.1357 33.333 51.131H9.92449L35.2438 16.8849Z" fill="#292D32"/>
</svg>
