<svg width="85" height="100" viewBox="0 0 85 100" fill="none" xmlns="http://www.w3.org/2000/svg">
<mask id="path-1-inside-1_2541_93" fill="white">
<path d="M48.8022 5.12149C48.1123 5.02658 45.9864 4.86013 44.1968 4.77178V1.81499C44.1968 0.817697 43.382 0 42.3781 0C41.3772 0 40.5631 0.817697 40.5631 1.81499V4.77178C38.7708 4.86012 36.6447 5.02658 35.9549 5.12149C15.7601 7.83587 0.639705 23.1633 0.00236901 41.5543C-0.0567687 43.1831 0.996745 44.6455 2.55041 45.1128C4.08431 45.5807 5.82418 44.9069 6.65197 43.546C7.61058 41.9763 9.25552 41.0404 11.0545 41.0404H14.2501C16.4871 41.0404 18.4532 42.4896 19.1432 44.6513C19.6178 46.1458 20.9881 47.1504 22.5615 47.1504C24.1282 47.1504 25.4986 46.1531 25.9863 44.6513C26.6762 42.4924 28.6423 41.0404 30.8793 41.0404H34.0683C36.3089 41.0404 38.2713 42.4896 38.9649 44.6543C39.446 46.1488 40.8194 47.1468 42.3832 47.1468C43.9463 47.1468 45.3174 46.1496 45.8044 44.6478C46.4944 42.4889 48.4635 41.0368 50.6975 41.0368H53.8894C56.1265 41.0368 58.0925 42.486 58.7861 44.6508C59.2636 46.1453 60.6376 47.1433 62.2043 47.1433C63.774 47.1433 65.148 46.1394 65.6226 44.6508C66.3125 42.4853 68.2817 41.0368 70.5157 41.0368H73.7113C75.5132 41.0368 77.1552 41.9692 78.1138 43.5424C78.9447 44.9033 80.7013 45.5735 82.2118 45.1092C83.775 44.6412 84.8219 43.1796 84.7627 41.5508C84.1173 23.1628 68.9966 7.8355 48.8027 5.12168L48.8022 5.12149ZM73.7032 37.407H70.5075C66.7331 37.407 63.4068 39.8206 62.1962 43.4316C60.9894 39.8206 57.6631 37.407 53.882 37.407H50.6901C46.8667 37.407 43.5105 39.8797 42.4182 43.5529C41.2472 39.8799 37.8881 37.407 34.0616 37.407H30.8727C27.0455 37.407 23.693 39.8797 22.6008 43.5529C21.4268 39.8799 18.0641 37.407 14.2442 37.407H11.0545C7.98298 37.407 5.17664 38.9964 3.62947 41.6816C4.20843 25.0597 18.0049 11.1979 36.4364 8.71955C37.2015 8.61806 40.7731 8.35011 42.3793 8.35011C43.9884 8.35011 47.5601 8.61806 48.3193 8.71955C66.7532 11.199 80.5505 25.0604 81.2066 41.6573C79.5843 39.0012 76.7815 37.4083 73.7034 37.4083L73.7032 37.407Z"/>
</mask>
<path d="M48.8022 5.12149C48.1123 5.02658 45.9864 4.86013 44.1968 4.77178V1.81499C44.1968 0.817697 43.382 0 42.3781 0C41.3772 0 40.5631 0.817697 40.5631 1.81499V4.77178C38.7708 4.86012 36.6447 5.02658 35.9549 5.12149C15.7601 7.83587 0.639705 23.1633 0.00236901 41.5543C-0.0567687 43.1831 0.996745 44.6455 2.55041 45.1128C4.08431 45.5807 5.82418 44.9069 6.65197 43.546C7.61058 41.9763 9.25552 41.0404 11.0545 41.0404H14.2501C16.4871 41.0404 18.4532 42.4896 19.1432 44.6513C19.6178 46.1458 20.9881 47.1504 22.5615 47.1504C24.1282 47.1504 25.4986 46.1531 25.9863 44.6513C26.6762 42.4924 28.6423 41.0404 30.8793 41.0404H34.0683C36.3089 41.0404 38.2713 42.4896 38.9649 44.6543C39.446 46.1488 40.8194 47.1468 42.3832 47.1468C43.9463 47.1468 45.3174 46.1496 45.8044 44.6478C46.4944 42.4889 48.4635 41.0368 50.6975 41.0368H53.8894C56.1265 41.0368 58.0925 42.486 58.7861 44.6508C59.2636 46.1453 60.6376 47.1433 62.2043 47.1433C63.774 47.1433 65.148 46.1394 65.6226 44.6508C66.3125 42.4853 68.2817 41.0368 70.5157 41.0368H73.7113C75.5132 41.0368 77.1552 41.9692 78.1138 43.5424C78.9447 44.9033 80.7013 45.5735 82.2118 45.1092C83.775 44.6412 84.8219 43.1796 84.7627 41.5508C84.1173 23.1628 68.9966 7.8355 48.8027 5.12168L48.8022 5.12149ZM73.7032 37.407H70.5075C66.7331 37.407 63.4068 39.8206 62.1962 43.4316C60.9894 39.8206 57.6631 37.407 53.882 37.407H50.6901C46.8667 37.407 43.5105 39.8797 42.4182 43.5529C41.2472 39.8799 37.8881 37.407 34.0616 37.407H30.8727C27.0455 37.407 23.693 39.8797 22.6008 43.5529C21.4268 39.8799 18.0641 37.407 14.2442 37.407H11.0545C7.98298 37.407 5.17664 38.9964 3.62947 41.6816C4.20843 25.0597 18.0049 11.1979 36.4364 8.71955C37.2015 8.61806 40.7731 8.35011 42.3793 8.35011C43.9884 8.35011 47.5601 8.61806 48.3193 8.71955C66.7532 11.199 80.5505 25.0604 81.2066 41.6573C79.5843 39.0012 76.7815 37.4083 73.7034 37.4083L73.7032 37.407Z" fill="black"/>
<path d="M48.8022 5.12149L50.9594 -0.477307L50.3097 -0.727638L49.6199 -0.822528L48.8022 5.12149ZM44.1968 4.77178H38.1968V10.4829L43.9009 10.7645L44.1968 4.77178ZM40.5631 4.77178L40.8585 10.7645L46.5631 10.4833V4.77178H40.5631ZM35.9549 5.12149L36.7541 11.068L36.7634 11.0668L36.7726 11.0655L35.9549 5.12149ZM0.00236901 41.5543L5.99843 41.772L5.99877 41.7621L0.00236901 41.5543ZM2.55041 45.1128L4.30129 39.3739L4.28986 39.3704L4.27842 39.367L2.55041 45.1128ZM6.65197 43.546L1.53134 40.4188L1.52583 40.4279L6.65197 43.546ZM19.1432 44.6513L24.8618 42.8354L24.8591 42.8268L19.1432 44.6513ZM25.9863 44.6513L31.693 46.5043L31.6973 46.491L31.7015 46.4778L25.9863 44.6513ZM38.9649 44.6543L33.2511 46.4851L33.2536 46.493L38.9649 44.6543ZM45.8044 44.6478L51.5118 46.4988L51.5157 46.4865L51.5197 46.4742L45.8044 44.6478ZM58.7861 44.6508L64.5015 42.8247L64.5 42.82L58.7861 44.6508ZM65.6226 44.6508L71.3392 46.4731L71.3394 46.4722L65.6226 44.6508ZM78.1138 43.5424L72.99 46.6644L72.9928 46.6689L78.1138 43.5424ZM82.2118 45.1092L80.491 39.3613L80.4699 39.3676L80.449 39.374L82.2118 45.1092ZM84.7627 41.5508L78.7664 41.7612L78.7666 41.7689L84.7627 41.5508ZM48.8027 5.12168L46.6455 10.7205L47.3041 10.9742L48.0036 11.0682L48.8027 5.12168ZM73.7032 37.407L79.6384 36.5277L78.8798 31.407H73.7032V37.407ZM62.1962 43.4316L56.5056 45.3334L62.1874 62.334L67.885 45.3387L62.1962 43.4316ZM42.4182 43.5529L36.7017 45.3754L42.618 63.9318L48.1693 45.263L42.4182 43.5529ZM22.6008 43.5529L16.8856 45.3796L22.8077 63.9079L28.3519 45.263L22.6008 43.5529ZM3.62947 41.6816L-2.3669 41.4727L8.82826 44.677L3.62947 41.6816ZM36.4364 8.71955L35.6475 2.77162L35.6368 2.77306L36.4364 8.71955ZM48.3193 8.71955L49.1191 2.77309L49.1143 2.77245L48.3193 8.71955ZM81.2066 41.6573L76.0861 44.7847L88.1132 64.4764L87.2019 41.4203L81.2066 41.6573ZM73.7034 37.4083L67.7682 38.2876L68.5268 43.4083H73.7034V37.4083ZM48.8022 5.12149L49.6199 -0.822528C48.6507 -0.955858 46.3001 -1.13169 44.4926 -1.22092L44.1968 4.77178L43.9009 10.7645C44.7344 10.8056 45.6586 10.8657 46.4531 10.9266C46.8496 10.957 47.2015 10.9867 47.4845 11.0132C47.6258 11.0264 47.7426 11.0381 47.8344 11.048C47.88 11.053 47.916 11.0571 47.9432 11.0603C47.9566 11.062 47.9668 11.0632 47.9742 11.0642C47.9816 11.0651 47.9849 11.0656 47.9845 11.0655L48.8022 5.12149ZM44.1968 4.77178H50.1968V1.81499H44.1968H38.1968V4.77178H44.1968ZM44.1968 1.81499H50.1968C50.1968 -2.49762 46.6941 -6 42.3781 -6V0V6C40.0699 6 38.1968 4.13301 38.1968 1.81499H44.1968ZM42.3781 0V-6C38.0556 -6 34.5631 -2.48814 34.5631 1.81499H40.5631H46.5631C46.5631 4.12353 44.6987 6 42.3781 6V0ZM40.5631 1.81499H34.5631V4.77178H40.5631H46.5631V1.81499H40.5631ZM40.5631 4.77178L40.2678 -1.22095C38.4573 -1.13171 36.1064 -0.955877 35.1371 -0.822518L35.9549 5.12149L36.7726 11.0655C36.7723 11.0656 36.7755 11.0651 36.783 11.0642C36.7903 11.0632 36.8005 11.0619 36.8139 11.0603C36.8411 11.0571 36.8771 11.053 36.9226 11.048C37.0144 11.0381 37.1312 11.0264 37.2726 11.0132C37.5556 10.9867 37.9075 10.957 38.3041 10.9266C39.0989 10.8657 40.0237 10.8057 40.8585 10.7645L40.5631 4.77178ZM35.9549 5.12149L35.1556 -0.825033C12.5162 2.21793 -5.24023 19.5949 -5.99403 41.3465L0.00236901 41.5543L5.99877 41.7621C6.51964 26.7318 19.004 13.4538 36.7541 11.068L35.9549 5.12149ZM0.00236901 41.5543L-5.99368 41.3366C-6.15223 45.7034 -3.33411 49.6085 0.822395 50.8585L2.55041 45.1128L4.27842 39.367C5.3276 39.6825 6.03869 40.6628 5.99842 41.772L0.00236901 41.5543ZM2.55041 45.1128L0.799522 50.8516C4.97633 52.1259 9.53724 50.3481 11.7781 46.6641L6.65197 43.546L1.52583 40.4279C1.85256 39.8907 2.30113 39.5728 2.71718 39.4132C3.13526 39.2528 3.69054 39.1876 4.30129 39.3739L2.55041 45.1128ZM6.65197 43.546L11.7726 46.6732C11.7295 46.7438 11.6441 46.8405 11.5057 46.9193C11.3661 46.9987 11.2057 47.0404 11.0545 47.0404V41.0404V35.0404C7.10895 35.0404 3.55031 37.1128 1.53134 40.4188L6.65197 43.546ZM11.0545 41.0404V47.0404H14.2501V41.0404V35.0404H11.0545V41.0404ZM14.2501 41.0404V47.0404C13.83 47.0404 13.517 46.7569 13.4273 46.4759L19.1432 44.6513L24.8591 42.8268C23.3893 38.2223 19.1443 35.0404 14.2501 35.0404V41.0404ZM19.1432 44.6513L13.4246 46.4672C14.6903 50.4533 18.374 53.1504 22.5615 53.1504V47.1504V41.1504C23.6023 41.1504 24.5452 41.8384 24.8618 42.8354L19.1432 44.6513ZM22.5615 47.1504V53.1504C26.7438 53.1504 30.4073 50.4637 31.693 46.5043L25.9863 44.6513L20.2795 42.7984C20.5899 41.8425 21.5126 41.1504 22.5615 41.1504V47.1504ZM25.9863 44.6513L31.7015 46.4778C31.6124 46.7566 31.3029 47.0404 30.8793 47.0404V41.0404V35.0404C25.9817 35.0404 21.74 38.2283 20.271 42.8249L25.9863 44.6513ZM30.8793 41.0404V47.0404H34.0683V41.0404V35.0404H30.8793V41.0404ZM34.0683 41.0404V47.0404C33.646 47.0404 33.3366 46.7521 33.2511 46.4851L38.9649 44.6543L44.6788 42.8236C43.2061 38.2271 38.9717 35.0404 34.0683 35.0404V41.0404ZM38.9649 44.6543L33.2536 46.493C34.5334 50.4683 38.2148 53.1468 42.3832 53.1468V47.1468V41.1468C43.4239 41.1468 44.3587 41.8294 44.6763 42.8157L38.9649 44.6543ZM42.3832 47.1468V53.1468C46.5638 53.1468 50.2276 50.4581 51.5118 46.4988L45.8044 44.6478L40.0971 42.7967C40.4071 41.841 41.3288 41.1468 42.3832 41.1468V47.1468ZM45.8044 44.6478L51.5197 46.4742C51.4299 46.755 51.122 47.0368 50.6975 47.0368V41.0368V35.0368C45.8049 35.0368 41.5588 38.2227 40.0892 42.8213L45.8044 44.6478ZM50.6975 41.0368V47.0368H53.8894V41.0368V35.0368H50.6975V41.0368ZM53.8894 41.0368V47.0368C53.466 47.0368 53.1585 46.7509 53.0722 46.4815L58.7861 44.6508L64.5 42.82C63.0265 38.2212 58.7869 35.0368 53.8894 35.0368V41.0368ZM58.7861 44.6508L53.0707 46.4768C54.3464 50.4696 58.0398 53.1433 62.2043 53.1433V47.1433V41.1433C63.2353 41.1433 64.1808 41.8209 64.5015 42.8247L58.7861 44.6508ZM62.2043 47.1433V53.1433C66.3778 53.1433 70.069 50.4575 71.3392 46.4731L65.6226 44.6508L59.906 42.8285C60.2271 41.8213 61.1702 41.1433 62.2043 41.1433V47.1433ZM65.6226 44.6508L71.3394 46.4722C71.2498 46.7536 70.9373 47.0368 70.5157 47.0368V41.0368V35.0368C65.626 35.0368 61.3753 38.217 59.9057 42.8293L65.6226 44.6508ZM70.5157 41.0368V47.0368H73.7113V41.0368V35.0368H70.5157V41.0368ZM73.7113 41.0368V47.0368C73.5668 47.0368 73.4063 46.9969 73.2624 46.9151C73.1195 46.8338 73.0325 46.7342 72.99 46.6644L78.1138 43.5424L83.2376 40.4205C81.2157 37.102 77.6552 35.0368 73.7113 35.0368V41.0368ZM78.1138 43.5424L72.9928 46.6689C75.2381 50.3466 79.8166 52.1225 83.9747 50.8444L82.2118 45.1092L80.449 39.374C81.0903 39.1769 81.6502 39.2529 82.0494 39.4054C82.4496 39.5583 82.9007 39.8686 83.2349 40.416L78.1138 43.5424ZM82.2118 45.1092L83.9327 50.8571C88.1122 49.6058 90.9173 45.6923 90.7587 41.3327L84.7627 41.5508L78.7666 41.7689C78.7266 40.667 79.4377 39.6766 80.491 39.3613L82.2118 45.1092ZM84.7627 41.5508L90.759 41.3403C89.9957 19.5939 72.2408 2.21754 49.6019 -0.824863L48.8027 5.12168L48.0036 11.0682C65.7523 13.4535 78.2389 26.7316 78.7664 41.7612L84.7627 41.5508ZM48.8027 5.12168L50.9599 -0.47712L50.9594 -0.477307L48.8022 5.12149L46.645 10.7203L46.6455 10.7205L48.8027 5.12168ZM73.7032 37.407V31.407H70.5075V37.407V43.407H73.7032V37.407ZM70.5075 37.407V31.407C64.1179 31.407 58.526 35.5031 56.5074 41.5244L62.1962 43.4316L67.885 45.3387C68.2875 44.1382 69.3482 43.407 70.5075 43.407V37.407ZM62.1962 43.4316L67.8868 41.5297C65.8717 35.5002 60.2746 31.407 53.882 31.407V37.407V43.407C55.0515 43.407 56.1071 44.141 56.5056 45.3334L62.1962 43.4316ZM53.882 37.407V31.407H50.6901V37.407V43.407H53.882V37.407ZM50.6901 37.407V31.407C44.2421 31.407 38.5247 35.5956 36.6671 41.8427L42.4182 43.5529L48.1693 45.263C48.4962 44.1638 49.4912 43.407 50.6901 43.407V37.407ZM42.4182 43.5529L48.1347 41.7303C46.18 35.5993 40.5311 31.407 34.0616 31.407V37.407V43.407C35.245 43.407 36.3144 44.1605 36.7017 45.3754L42.4182 43.5529ZM34.0616 37.407V31.407H30.8727V37.407V43.407H34.0616V37.407ZM30.8727 37.407V31.407C24.4194 31.407 18.7069 35.597 16.8497 41.8427L22.6008 43.5529L28.3519 45.263C28.6792 44.1623 29.6716 43.407 30.8727 43.407V37.407ZM22.6008 43.5529L28.316 41.7262C26.3577 35.5992 20.7077 31.407 14.2442 31.407V37.407V43.407C15.4206 43.407 16.496 44.1605 16.8856 45.3796L22.6008 43.5529ZM14.2442 37.407V31.407H11.0545V37.407V43.407H14.2442V37.407ZM11.0545 37.407V31.407C5.87089 31.407 1.06552 34.1132 -1.56932 38.6862L3.62947 41.6816L8.82826 44.677C9.28776 43.8795 10.0951 43.407 11.0545 43.407V37.407ZM3.62947 41.6816L9.62583 41.8905C10.0863 28.6707 21.2021 16.822 37.236 14.666L36.4364 8.71955L35.6368 2.77306C14.8077 5.57377 -1.66943 21.4486 -2.3669 41.4727L3.62947 41.6816ZM36.4364 8.71955L37.2253 14.6675C37.2176 14.6685 37.276 14.6611 37.4302 14.646C37.5701 14.6323 37.7505 14.616 37.9656 14.5978C38.3953 14.5616 38.9293 14.5212 39.4935 14.4834C40.675 14.4042 41.7946 14.3501 42.3793 14.3501V8.35011V2.35011C40.5016 2.35011 36.6665 2.63648 35.6475 2.77163L36.4364 8.71955ZM42.3793 8.35011V14.3501C42.9656 14.3501 44.0861 14.4042 45.2669 14.4833C45.8308 14.5211 46.364 14.5616 46.7926 14.5978C47.0071 14.6159 47.1867 14.6322 47.3255 14.6458C47.4792 14.6609 47.535 14.6681 47.5243 14.6666L48.3193 8.71955L49.1143 2.77245C48.0952 2.63623 44.258 2.35011 42.3793 2.35011V8.35011ZM48.3193 8.71955L47.5194 14.666C63.5525 16.8225 74.6888 28.6756 75.2113 41.8943L81.2066 41.6573L87.2019 41.4203C86.4123 21.4452 69.954 5.57547 49.1191 2.77309L48.3193 8.71955ZM81.2066 41.6573L86.327 38.5299C83.6363 34.1245 78.9128 31.4083 73.7034 31.4083V37.4083V43.4083C74.6502 43.4083 75.5323 43.878 76.0861 44.7847L81.2066 41.6573ZM73.7034 37.4083L79.6386 36.529L79.6384 36.5277L73.7032 37.407L67.768 38.2863L67.7682 38.2876L73.7034 37.4083Z" fill="black" mask="url(#path-1-inside-1_2541_93)"/>
<mask id="path-3-inside-2_2541_93" fill="white">
<path d="M42.3827 52.8035C29.3681 52.8035 18.7844 63.3876 18.7844 76.4017C18.7844 89.4163 29.3685 100 42.3827 100C55.3969 100 65.981 89.4159 65.981 76.4017C65.9817 63.3879 55.3939 52.8035 42.3827 52.8035ZM42.3827 96.3741C31.373 96.3741 22.4141 87.4189 22.4141 76.4055C22.4141 65.3921 31.373 56.4368 42.3827 56.4368C53.3923 56.4368 62.3513 65.3921 62.3513 76.4055C62.352 87.4181 53.3931 96.3741 42.3827 96.3741Z"/>
</mask>
<path d="M42.3827 52.8035C29.3681 52.8035 18.7844 63.3876 18.7844 76.4017C18.7844 89.4163 29.3685 100 42.3827 100C55.3969 100 65.981 89.4159 65.981 76.4017C65.9817 63.3879 55.3939 52.8035 42.3827 52.8035ZM42.3827 96.3741C31.373 96.3741 22.4141 87.4189 22.4141 76.4055C22.4141 65.3921 31.373 56.4368 42.3827 56.4368C53.3923 56.4368 62.3513 65.3921 62.3513 76.4055C62.352 87.4181 53.3931 96.3741 42.3827 96.3741Z" fill="black"/>
<path d="M65.981 76.4017L59.981 76.4014V76.4017H65.981ZM62.3513 76.4055H56.3513V76.4059L62.3513 76.4055ZM42.3827 52.8035V46.8035C26.0544 46.8035 12.7844 60.0739 12.7844 76.4017H18.7844H24.7844C24.7844 66.7012 32.6819 58.8035 42.3827 58.8035V52.8035ZM18.7844 76.4017H12.7844C12.7844 92.7301 26.0549 106 42.3827 106V100V94C32.6822 94 24.7844 86.1025 24.7844 76.4017H18.7844ZM42.3827 100V106C58.7106 106 71.981 92.7296 71.981 76.4017H65.981H59.981C59.981 86.1022 52.0832 94 42.3827 94V100ZM65.981 76.4017L71.981 76.4021C71.9819 60.0735 58.7068 46.8035 42.3827 46.8035V52.8035V58.8035C52.0809 58.8035 59.9815 66.7023 59.981 76.4014L65.981 76.4017ZM42.3827 96.3741V90.3741C34.686 90.3741 28.4141 84.1044 28.4141 76.4055H22.4141H16.4141C16.4141 90.7333 28.0601 102.374 42.3827 102.374V96.3741ZM22.4141 76.4055H28.4141C28.4141 68.7065 34.686 62.4368 42.3827 62.4368V56.4368V50.4368C28.0601 50.4368 16.4141 62.0776 16.4141 76.4055H22.4141ZM42.3827 56.4368V62.4368C50.0794 62.4368 56.3513 68.7065 56.3513 76.4055H62.3513H68.3513C68.3513 62.0776 56.7053 50.4368 42.3827 50.4368V56.4368ZM62.3513 76.4055L56.3513 76.4059C56.3518 84.1037 50.0802 90.3741 42.3827 90.3741V96.3741V102.374C56.706 102.374 68.3523 90.7325 68.3513 76.4051L62.3513 76.4055Z" fill="black" mask="url(#path-3-inside-2_2541_93)"/>
<mask id="path-5-inside-3_2541_93" fill="white">
<path d="M43.7508 68.5128C46.3345 68.7741 48.2254 70.0467 48.2452 70.0598L50.3157 67.0832C50.2142 67.008 47.8269 65.3821 44.4546 64.9572L44.4539 62.5925H40.8232V65.18C39.6295 65.5005 38.4489 66.086 37.5232 67.0513C36.5617 68.0551 35.5017 69.8541 35.9104 72.7555C36.385 76.1343 40.0281 77.4952 41.984 78.2312C42.2914 78.3458 42.5535 78.4407 42.7462 78.532C42.9492 78.6203 43.2106 78.7247 43.5084 78.8394C46.0462 79.8177 46.7953 80.5631 46.5865 81.9174C46.439 82.8826 45.9126 83.5528 44.9774 83.9749C43.2113 84.7663 39.8916 84.5932 36.4603 82.392L34.4978 85.4468C36.5223 86.7485 38.7169 87.5662 40.8168 87.8802V90.2187H44.4475V87.8671C45.1608 87.7459 45.8442 87.5663 46.4691 87.2853C48.5199 86.3595 49.8348 84.646 50.1714 82.474C50.8942 77.7904 46.4721 76.093 44.8075 75.4549C44.5914 75.3666 44.3957 75.2943 44.2483 75.2322C43.9964 75.111 43.6496 74.984 43.2473 74.83C41.9945 74.362 39.6691 73.4954 39.4954 72.2558C39.329 71.0752 39.5378 70.1918 40.1335 69.5733C40.9936 68.6731 42.5698 68.3986 43.751 68.5133L43.7508 68.5128Z"/>
</mask>
<path d="M43.7508 68.5128C46.3345 68.7741 48.2254 70.0467 48.2452 70.0598L50.3157 67.0832C50.2142 67.008 47.8269 65.3821 44.4546 64.9572L44.4539 62.5925H40.8232V65.18C39.6295 65.5005 38.4489 66.086 37.5232 67.0513C36.5617 68.0551 35.5017 69.8541 35.9104 72.7555C36.385 76.1343 40.0281 77.4952 41.984 78.2312C42.2914 78.3458 42.5535 78.4407 42.7462 78.532C42.9492 78.6203 43.2106 78.7247 43.5084 78.8394C46.0462 79.8177 46.7953 80.5631 46.5865 81.9174C46.439 82.8826 45.9126 83.5528 44.9774 83.9749C43.2113 84.7663 39.8916 84.5932 36.4603 82.392L34.4978 85.4468C36.5223 86.7485 38.7169 87.5662 40.8168 87.8802V90.2187H44.4475V87.8671C45.1608 87.7459 45.8442 87.5663 46.4691 87.2853C48.5199 86.3595 49.8348 84.646 50.1714 82.474C50.8942 77.7904 46.4721 76.093 44.8075 75.4549C44.5914 75.3666 44.3957 75.2943 44.2483 75.2322C43.9964 75.111 43.6496 74.984 43.2473 74.83C41.9945 74.362 39.6691 73.4954 39.4954 72.2558C39.329 71.0752 39.5378 70.1918 40.1335 69.5733C40.9936 68.6731 42.5698 68.3986 43.751 68.5133L43.7508 68.5128Z" fill="black"/>
<path d="M43.7508 68.5128L44.3546 62.5432L33.0004 61.3947L38.4908 71.3994L43.7508 68.5128ZM48.2452 70.0598L44.929 75.0601L49.8197 78.3036L53.1708 73.486L48.2452 70.0598ZM50.3157 67.0832L55.2413 70.5094L58.5663 65.7292L53.8879 62.2625L50.3157 67.0832ZM44.4546 64.9572L38.4546 64.9591L38.4563 70.2489L43.7046 70.9101L44.4546 64.9572ZM44.4539 62.5925L50.4539 62.5907L50.4521 56.5925H44.4539V62.5925ZM40.8232 62.5925V56.5925H34.8232V62.5925H40.8232ZM40.8232 65.18L42.379 70.9748L46.8232 69.7815V65.18H40.8232ZM37.5232 67.0513L33.1929 62.8981L33.1901 62.901L37.5232 67.0513ZM35.9104 72.7555L41.8521 71.921L41.8518 71.9185L35.9104 72.7555ZM41.984 78.2312L39.8709 83.8468L39.8792 83.8499L39.8875 83.853L41.984 78.2312ZM42.7462 78.532L40.1784 83.9548L40.2644 83.9955L40.3516 84.0334L42.7462 78.532ZM43.5084 78.8394L45.6667 73.241L45.6633 73.2397L43.5084 78.8394ZM46.5865 81.9174L40.6566 81.0034L40.6554 81.0112L46.5865 81.9174ZM44.9774 83.9749L47.431 89.4502L47.4382 89.447L47.4453 89.4438L44.9774 83.9749ZM36.4603 82.392L39.7 77.3419L34.6531 74.1043L31.4122 79.149L36.4603 82.392ZM34.4978 85.4468L29.4498 82.2037L26.208 87.2498L31.2528 90.4935L34.4978 85.4468ZM40.8168 87.8802H46.8168V82.7107L41.7041 81.9462L40.8168 87.8802ZM40.8168 90.2187H34.8168V96.2187H40.8168V90.2187ZM44.4475 90.2187V96.2187H50.4475V90.2187H44.4475ZM44.4475 87.8671L43.4425 81.9519L38.4475 82.8006V87.8671H44.4475ZM46.4691 87.2853L48.9305 92.7571L48.9376 92.7539L46.4691 87.2853ZM50.1714 82.474L56.1006 83.3929L56.1012 83.3891L50.1714 82.474ZM44.8075 75.4549L42.5371 81.0088L42.5982 81.0337L42.6599 81.0574L44.8075 75.4549ZM44.2483 75.2322L41.6468 80.639L41.7825 80.7042L41.9213 80.7626L44.2483 75.2322ZM43.2473 74.83L45.3929 69.2267L45.3699 69.2179L45.3469 69.2093L43.2473 74.83ZM39.4954 72.2558L45.4374 71.4235L45.4367 71.418L39.4954 72.2558ZM40.1335 69.5733L44.4547 73.7359L44.4633 73.7271L44.4718 73.7181L40.1335 69.5733ZM43.751 68.5133L43.1715 74.4852L54.4743 75.582L49.011 65.6267L43.751 68.5133ZM43.7508 68.5128L43.1469 74.4823C43.6394 74.5321 44.1332 74.6903 44.5358 74.8681C44.7253 74.9518 44.8635 75.0261 44.9341 75.0662C44.9684 75.0857 44.9838 75.0954 44.978 75.0918C44.975 75.0899 44.9667 75.0847 44.953 75.0758C44.9371 75.0655 44.9138 75.05 44.929 75.0601L48.2452 70.0598L51.5614 65.0596C51.5742 65.068 51.5337 65.041 51.4867 65.0105C51.4418 64.9814 51.3884 64.9472 51.3268 64.9088C51.2037 64.8321 51.0478 64.7382 50.8618 64.6325C50.4915 64.4221 49.9918 64.1595 49.3831 63.8907C48.1894 63.3636 46.4459 62.7548 44.3546 62.5432L43.7508 68.5128ZM48.2452 70.0598L53.1708 73.486L55.2413 70.5094L50.3157 67.0832L45.3901 63.657L43.3196 66.6336L48.2452 70.0598ZM50.3157 67.0832L53.8879 62.2625C53.286 61.8165 49.9392 59.6008 45.2047 59.0043L44.4546 64.9572L43.7046 70.9101C44.642 71.0283 45.4904 71.3231 46.1274 71.6129C46.4371 71.7538 46.6703 71.8813 46.8078 71.9615C46.876 72.0013 46.9165 72.027 46.9266 72.0336C46.9776 72.0664 46.893 72.0147 46.7435 71.904L50.3157 67.0832ZM44.4546 64.9572L50.4546 64.9554L50.4539 62.5907L44.4539 62.5925L38.4539 62.5944L38.4546 64.9591L44.4546 64.9572ZM44.4539 62.5925V56.5925H40.8232V62.5925V68.5925H44.4539V62.5925ZM40.8232 62.5925H34.8232V65.18H40.8232H46.8232V62.5925H40.8232ZM40.8232 65.18L39.2673 59.3852C37.2942 59.915 35.0535 60.9582 33.1929 62.8981L37.5232 67.0513L41.8535 71.2044C41.8535 71.2044 41.8548 71.2031 41.8577 71.2005C41.8606 71.1979 41.8657 71.1936 41.8734 71.1878C41.8887 71.1763 41.9156 71.1578 41.9575 71.1349C42.0443 71.0873 42.1823 71.0276 42.379 70.9748L40.8232 65.18ZM37.5232 67.0513L33.1901 62.901C31.1485 65.0326 29.2674 68.6119 29.9691 73.5926L35.9104 72.7555L41.8518 71.9185C41.812 71.6361 41.8178 71.4537 41.8273 71.3552C41.8366 71.2579 41.8523 71.2129 41.8551 71.2052C41.8576 71.1982 41.8543 71.2036 41.8563 71.2015L37.5232 67.0513ZM35.9104 72.7555L29.9688 73.59C30.5166 77.4906 32.921 79.9716 34.9391 81.3915C36.8693 82.7495 38.9729 83.5089 39.8709 83.8468L41.984 78.2312L44.0972 72.6156C43.5913 72.4253 43.1765 72.2678 42.7611 72.0788C42.3504 71.892 42.0514 71.723 41.8443 71.5773C41.6372 71.4316 41.6167 71.3752 41.6666 71.4451C41.7399 71.5476 41.825 71.7276 41.8521 71.921L35.9104 72.7555ZM41.984 78.2312L39.8875 83.853C39.9291 83.8685 39.9698 83.8836 40.0059 83.8971C40.0431 83.9109 40.0756 83.923 40.1066 83.9345C40.1695 83.958 40.2128 83.9744 40.2459 83.9872C40.2791 84 40.2884 84.004 40.2821 84.0014C40.2768 83.9992 40.2385 83.9832 40.1784 83.9548L42.7462 78.532L45.314 73.1092C44.8244 72.8774 44.2315 72.6657 44.0805 72.6094L41.984 78.2312ZM42.7462 78.532L40.3516 84.0334C40.6742 84.1739 41.0309 84.3149 41.3535 84.439L43.5084 78.8394L45.6633 73.2397C45.3903 73.1346 45.2241 73.0668 45.1408 73.0306L42.7462 78.532ZM43.5084 78.8394L41.3502 84.4378C41.8621 84.6351 42.1267 84.7617 42.2409 84.8233C42.3679 84.8918 42.152 84.7969 41.8368 84.4821C41.468 84.1136 41.0326 83.5114 40.7913 82.6852C40.5619 81.9001 40.6146 81.2756 40.6566 81.0034L46.5865 81.9174L52.5165 82.8315C52.6628 81.8821 52.7002 80.6565 52.3098 79.3202C51.9074 77.9427 51.1653 76.8391 50.318 75.9927C48.8664 74.5425 46.9729 73.7445 45.6667 73.241L43.5084 78.8394ZM46.5865 81.9174L40.6554 81.0112C40.7162 80.6128 40.9036 80.0252 41.3531 79.4511C41.7915 78.8911 42.2667 78.6155 42.5095 78.5059L44.9774 83.9749L47.4453 89.4438C50.1073 88.2426 52.0429 85.9312 52.5177 82.8237L46.5865 81.9174ZM44.9774 83.9749L42.5238 78.4995C42.9581 78.3048 42.908 78.4721 42.2237 78.3706C41.6298 78.2825 40.7405 78.0093 39.7 77.3419L36.4603 82.392L33.2206 87.4422C37.7627 90.356 43.2545 91.3218 47.431 89.4502L44.9774 83.9749ZM36.4603 82.392L31.4122 79.149L29.4498 82.2037L34.4978 85.4468L39.5458 88.6898L41.5083 85.6351L36.4603 82.392ZM34.4978 85.4468L31.2528 90.4935C33.9577 92.2328 36.9509 93.3689 39.9295 93.8142L40.8168 87.8802L41.7041 81.9462C40.483 81.7636 39.0869 81.2642 37.7428 80.4L34.4978 85.4468ZM40.8168 87.8802H34.8168V90.2187H40.8168H46.8168V87.8802H40.8168ZM40.8168 90.2187V96.2187H44.4475V90.2187V84.2187H40.8168V90.2187ZM44.4475 90.2187H50.4475V87.8671H44.4475H38.4475V90.2187H44.4475ZM44.4475 87.8671L45.4526 93.7824C46.4867 93.6067 47.6986 93.3113 48.9305 92.7571L46.4691 87.2853L44.0077 81.8134C43.9898 81.8214 43.835 81.8852 43.4425 81.9519L44.4475 87.8671ZM46.4691 87.2853L48.9376 92.7539C52.793 91.0136 55.4462 87.6159 56.1006 83.3929L50.1714 82.474L44.2422 81.5551C44.2306 81.63 44.2159 81.6685 44.2108 81.6805C44.206 81.6919 44.2045 81.6924 44.2067 81.6895C44.2088 81.6868 44.2029 81.6959 44.1784 81.7149C44.1533 81.7345 44.0986 81.7723 44.0006 81.8166L46.4691 87.2853ZM50.1714 82.474L56.1012 83.3891C56.8311 78.6595 54.8095 75.1351 52.3755 72.967C50.2351 71.0605 47.7358 70.1517 46.9551 69.8524L44.8075 75.4549L42.6599 81.0574C43.0729 81.2157 43.4062 81.3469 43.7436 81.5174C44.084 81.6894 44.2897 81.8349 44.394 81.9278C44.4846 82.0085 44.4 81.9607 44.3198 81.7648C44.2229 81.5281 44.2654 81.4046 44.2416 81.5589L50.1714 82.474ZM44.8075 75.4549L47.078 69.9011C46.9193 69.8362 46.7725 69.779 46.6857 69.7451C46.6366 69.7259 46.6077 69.7146 46.5844 69.7054C46.5614 69.6962 46.5617 69.6961 46.5752 69.7018L44.2483 75.2322L41.9213 80.7626C42.08 80.8294 42.2416 80.8922 42.3186 80.9223C42.4206 80.9621 42.4797 80.9853 42.5371 81.0088L44.8075 75.4549ZM44.2483 75.2322L46.8497 69.8255C46.3057 69.5638 45.6068 69.3086 45.3929 69.2267L43.2473 74.83L41.1017 80.4332C41.2062 80.4732 41.3221 80.5172 41.4004 80.5471C41.489 80.5809 41.5553 80.6064 41.6109 80.6282C41.6663 80.6499 41.6952 80.6619 41.7069 80.6668C41.7197 80.6722 41.6954 80.6623 41.6468 80.639L44.2483 75.2322ZM43.2473 74.83L45.3469 69.2093C45.0235 69.0885 44.7492 68.9855 44.4771 68.8714C44.2015 68.7558 44.0224 68.6674 43.9228 68.611C43.7898 68.5357 43.9573 68.6075 44.2285 68.8796C44.4822 69.1341 45.2348 69.9769 45.4374 71.4235L39.4954 72.2558L33.5534 73.0881C33.8429 75.1544 34.9513 76.5704 35.729 77.3507C36.5241 78.1485 37.3838 78.6986 38.0105 79.0535C39.2509 79.7557 40.5945 80.244 41.1477 80.4506L43.2473 74.83ZM39.4954 72.2558L45.4367 71.418C45.4272 71.3509 45.4779 71.6201 45.3663 72.0902C45.2406 72.6192 44.9497 73.2221 44.4547 73.7359L40.1335 69.5733L35.8123 65.4107C33.4829 67.829 33.2377 70.8491 33.5542 73.0935L39.4954 72.2558ZM40.1335 69.5733L44.4718 73.7181C44.1617 74.0427 43.8676 74.2282 43.6812 74.3259C43.4951 74.4235 43.3644 74.4613 43.3151 74.4739C43.248 74.4912 43.2335 74.4912 43.1715 74.4852L43.751 68.5133L44.3306 62.5413C43.0873 62.4207 41.6941 62.5006 40.3286 62.8515C39.0042 63.1919 37.2474 63.9086 35.7953 65.4285L40.1335 69.5733ZM43.751 68.5133L49.011 65.6267L49.0108 65.6262L43.7508 68.5128L38.4908 71.3994L38.491 71.3998L43.751 68.5133Z" fill="black" mask="url(#path-5-inside-3_2541_93)"/>
</svg>
