<svg width="100" height="100" viewBox="0 0 100 100" fill="none" xmlns="http://www.w3.org/2000/svg">
<path d="M44.792 10.2081C47.667 7.74974 52.3753 7.74974 55.2919 10.2081L61.8753 15.8752C63.1253 16.9585 65.4586 17.8334 67.1253 17.8334H74.2086C78.6253 17.8334 82.2503 21.4581 82.2503 25.8748V32.9584C82.2503 34.5834 83.1253 36.9585 84.2086 38.2085L89.8753 44.7916C92.3337 47.6666 92.3337 52.375 89.8753 55.2917L84.2086 61.8748C83.1253 63.1248 82.2503 65.4582 82.2503 67.1249V74.2085C82.2503 78.6252 78.6253 82.2499 74.2086 82.2499H67.1253C65.5003 82.2499 63.1253 83.1248 61.8753 84.2081L55.2919 89.8747C52.4169 92.333 47.7086 92.333 44.792 89.8747L38.2087 84.2081C36.9587 83.1248 34.6253 82.2499 32.9587 82.2499H25.7503C21.3336 82.2499 17.7086 78.6252 17.7086 74.2085V67.0832C17.7086 65.4582 16.8337 63.1248 15.792 61.8748L10.167 55.25C7.75033 52.375 7.75033 47.7083 10.167 44.8333L15.792 38.2085C16.8337 36.9585 17.7086 34.6251 17.7086 33.0001V25.8748C17.7086 21.4581 21.3336 17.8334 25.7503 17.8334H32.9587C34.5837 17.8334 36.9587 16.9585 38.2087 15.8752L44.792 10.2081Z" stroke="black" stroke-width="6" stroke-linecap="round" stroke-linejoin="round"/>
<path d="M41.2089 61.7499L47.2505 66.4165C48.0422 67.2082 49.7922 67.5833 50.9589 67.5833H58.3338C60.6672 67.5833 63.2088 65.8334 63.7922 63.5001L68.4588 49.2499C69.4171 46.5416 67.6672 44.1667 64.7505 44.1667H56.9589C55.7922 44.1667 54.8339 43.2086 55.0006 41.8336L55.9588 35.5836C56.3338 33.8336 55.1672 31.8752 53.4172 31.2918C51.8755 30.7085 49.9172 31.5 49.1255 32.6666L41.1255 44.5415" stroke="black" stroke-width="6" stroke-miterlimit="10"/>
<path d="M31.25 61.7497V42.6666C31.25 39.9166 32.4167 38.9582 35.1667 38.9582H37.125C39.8334 38.9582 41.0417 39.9166 41.0417 42.6666V61.7497C41.0417 64.4581 39.875 65.4581 37.125 65.4581H35.1667C32.4167 65.4581 31.25 64.4997 31.25 61.7497Z" stroke="black" stroke-width="6" stroke-linecap="round" stroke-linejoin="round"/>
</svg>
