<svg width="71" height="47" viewBox="0 0 71 47" fill="none" xmlns="http://www.w3.org/2000/svg">
<path d="M35.2 20.5342C33.5799 20.5342 32.2668 21.8478 32.2668 23.4673V27.8673H38.1337V23.4673C38.1332 21.8473 36.8201 20.5342 35.2 20.5342Z" fill="#ECF0F0"/>
<path d="M60.285 18.8974C60.2968 18.6268 60.3057 18.3547 60.3057 18.0802C60.3057 8.09524 52.2045 0 42.2104 0C34.973 0 28.7313 4.24675 25.8373 10.3802C24.2301 9.23407 22.2442 8.55486 20.0937 8.55486C14.7439 8.55486 10.4078 12.7472 10.4078 17.9181C10.4078 18.6861 10.5055 19.431 10.6857 20.1446C4.58417 21.444 0 26.9631 0 33.5759C0 41.1541 6.01907 46.933 13.4439 46.933H57.5344C64.6398 46.933 70.4 40.8653 70.4 32.931C70.4 26.051 66.0683 20.303 60.2849 18.8962L60.285 18.8974ZM44 37.4C44 37.8046 43.6715 38.1332 43.2668 38.1332L27.1327 38.1337C26.728 38.1337 26.3995 37.8051 26.3995 37.4005V28.6C26.3995 28.1953 26.728 27.8668 27.1327 27.8668H29.3327V23.4668C29.3327 20.2268 31.9595 17.6 35.1995 17.6C38.4395 17.6 41.0663 20.2268 41.0663 23.4668V27.8668H43.2663C43.671 27.8668 43.9995 28.1954 43.9995 28.6L44 37.4Z" fill="#ECF0F0"/>
</svg>
