<svg width="100" height="100" viewBox="0 0 100 100" fill="none" xmlns="http://www.w3.org/2000/svg">
<path d="M29.1665 35.4167L41.4249 42.6642C48.5715 46.8896 51.4282 46.8896 58.5748 42.6642L70.8332 35.4167" stroke="black" stroke-width="6" stroke-linecap="round" stroke-linejoin="round"/>
<path d="M8.39918 56.1483C8.6716 68.9213 8.80777 75.3079 13.5208 80.0388C18.2339 84.77 24.7932 84.9346 37.912 85.2642C45.9973 85.4675 54.0031 85.4675 62.0885 85.2642C75.2073 84.9346 81.7664 84.77 86.4793 80.0388C91.1927 75.3079 91.3289 68.9213 91.601 56.1483C91.6889 52.0413 91.6889 47.9583 91.601 43.8517C91.3289 31.0785 91.1927 24.6919 86.4793 19.961C81.7664 15.23 75.2073 15.0652 62.0885 14.7356C54.0031 14.5324 45.9973 14.5324 37.9119 14.7355C24.7932 15.0651 18.2339 15.2299 13.5208 19.9609C8.80777 24.6919 8.67156 31.0784 8.39918 43.8513C8.3116 47.9583 8.3116 52.0413 8.39918 56.1483Z" stroke="black" stroke-width="6" stroke-linejoin="round"/>
</svg>
