<svg width="100" height="100" viewBox="0 0 100 100" fill="none" xmlns="http://www.w3.org/2000/svg">
<path d="M91.6666 26.0417V47.2916C91.6666 52.5832 89.9166 57.0416 86.7916 60.125C83.7083 63.25 79.2499 64.9999 73.9583 64.9999V72.5416C73.9583 75.3749 70.7916 77.0833 68.4582 75.5L64.4166 72.8333C64.7916 71.5416 64.9582 70.1249 64.9582 68.6249V51.6668C64.9582 43.1668 59.2916 37.5 50.7916 37.5H22.4999C21.9166 37.5 21.3749 37.5418 20.8333 37.5834V26.0417C20.8333 15.4167 27.9166 8.33334 38.5416 8.33334H73.9583C84.5833 8.33334 91.6666 15.4167 91.6666 26.0417Z" stroke="black" stroke-width="6" stroke-miterlimit="10" stroke-linecap="round" stroke-linejoin="round"/>
<path d="M64.9582 51.6668V68.6249C64.9582 70.1249 64.7916 71.5416 64.4166 72.8333C62.8749 78.9583 57.7916 82.7916 50.7916 82.7916H39.4583L26.8749 91.1667C24.9999 92.4584 22.4999 91.0834 22.4999 88.8334V82.7916C18.2499 82.7916 14.7083 81.375 12.2499 78.9167C9.74993 76.4167 8.33325 72.8749 8.33325 68.6249V51.6668C8.33325 43.7501 13.2499 38.2917 20.8333 37.5834C21.3749 37.5417 21.9166 37.5 22.4999 37.5H50.7916C59.2916 37.5 64.9582 43.1668 64.9582 51.6668Z" stroke="black" stroke-width="6" stroke-miterlimit="10" stroke-linecap="round" stroke-linejoin="round"/>
</svg>
