<svg width="100" height="100" viewBox="0 0 100 100" fill="none" xmlns="http://www.w3.org/2000/svg">
<path d="M70.834 76.7919H54.1673L35.6256 89.1251C32.8756 90.9584 29.1673 89.0003 29.1673 85.6669V76.7919C16.6673 76.7919 8.33398 68.4586 8.33398 55.9586V30.9583C8.33398 18.4583 16.6673 10.125 29.1673 10.125H70.834C83.334 10.125 91.6673 18.4583 91.6673 30.9583V55.9586C91.6673 68.4586 83.334 76.7919 70.834 76.7919Z" stroke="black" stroke-width="6" stroke-miterlimit="10" stroke-linecap="round" stroke-linejoin="round"/>
<path d="M50 47.3332V46.4584C50 43.6251 51.7502 42.125 53.5002 40.9167C55.2085 39.75 56.9166 38.2501 56.9166 35.5001C56.9166 31.6667 53.8334 28.5833 50 28.5833C46.1667 28.5833 43.0835 31.6667 43.0835 35.5001" stroke="black" stroke-width="6" stroke-linecap="round" stroke-linejoin="round"/>
<path d="M49.9806 57.2917H50.0181" stroke="black" stroke-width="6" stroke-linecap="round" stroke-linejoin="round"/>
</svg>
