<svg width="100" height="100" viewBox="0 0 100 100" fill="none" xmlns="http://www.w3.org/2000/svg">
<path d="M50.0007 64.5833C59.209 64.5833 66.6673 57.1249 66.6673 47.9166V24.9999C66.6673 15.7916 59.209 8.33328 50.0007 8.33328C40.7923 8.33328 33.334 15.7916 33.334 24.9999V47.9166C33.334 57.1249 40.7923 64.5833 50.0007 64.5833Z" stroke="black" stroke-width="6" stroke-linecap="round" stroke-linejoin="round"/>
<path d="M18.125 40.2084V47.2917C18.125 64.875 32.4167 79.1667 50 79.1667C67.5833 79.1667 81.875 64.875 81.875 47.2917V40.2084" stroke="black" stroke-width="6" stroke-linecap="round" stroke-linejoin="round"/>
<path d="M44.208 26.7917C47.958 25.4167 52.0413 25.4167 55.7913 26.7917" stroke="black" stroke-width="6" stroke-linecap="round" stroke-linejoin="round"/>
<path d="M46.666 35.625C48.8743 35.0417 51.166 35.0417 53.3744 35.625" stroke="black" stroke-width="6" stroke-linecap="round" stroke-linejoin="round"/>
<path d="M50 79.1666V91.6666" stroke="black" stroke-width="6" stroke-linecap="round" stroke-linejoin="round"/>
</svg>
