<svg width="100" height="100" viewBox="0 0 100 100" fill="none" xmlns="http://www.w3.org/2000/svg">
<path d="M50.0835 12.125C36.2918 12.125 25.0835 23.3333 25.0835 37.125V49.1667C25.0835 51.7083 24.0001 55.5833 22.7085 57.75L17.9168 65.7083C14.9585 70.625 17.0001 76.0833 22.4168 77.9167C40.3751 83.9167 59.7501 83.9167 77.7085 77.9167C82.7501 76.25 84.9585 70.2917 82.2085 65.7083L77.4168 57.75C76.1668 55.5833 75.0835 51.7083 75.0835 49.1667V37.125C75.0835 23.375 63.8335 12.125 50.0835 12.125Z" stroke="black" stroke-width="6" stroke-miterlimit="10" stroke-linecap="round"/>
<path d="M57.7922 13.3333C56.5005 12.9583 55.1672 12.6667 53.7922 12.5C49.7922 12 45.9588 12.2917 42.3755 13.3333C43.5838 10.25 46.5838 8.08334 50.0838 8.08334C53.5838 8.08334 56.5838 10.25 57.7922 13.3333Z" stroke="black" stroke-width="6" stroke-miterlimit="10" stroke-linecap="round" stroke-linejoin="round"/>
<path d="M62.583 79.4167C62.583 86.2917 56.958 91.9167 50.083 91.9167C46.6663 91.9167 43.4997 90.5 41.2497 88.25C38.9997 86 37.583 82.8333 37.583 79.4167" stroke="black" stroke-width="6" stroke-miterlimit="10"/>
</svg>
