<svg width="100" height="100" viewBox="0 0 100 100" fill="none" xmlns="http://www.w3.org/2000/svg">
<path d="M49.8569 99.9462C45.7087 99.9462 41.8457 98.3725 38.9845 95.5116L35.408 91.935C34.1206 90.6477 32.4032 89.9322 30.5441 89.9322H25.5365C16.9522 89.9322 10.0858 83.0655 10.0858 74.4816V69.3313C10.0858 67.4712 9.37028 65.7548 8.08298 64.4675L4.50644 60.8909C-1.50215 54.8824 -1.50215 45.1537 4.50644 39.0025L8.08298 35.426C9.37031 34.1386 10.0858 32.4212 10.0858 30.5621V25.5545C10.0858 16.9702 16.9525 10.1038 25.5365 10.1038H30.6867C32.5468 10.1038 34.2632 9.38828 35.5505 8.10098L39.1271 4.52444C45.1356 -1.48415 54.8644 -1.48415 60.8727 4.38174L64.592 8.10109C65.8794 9.38841 67.5968 10.1039 69.4559 10.1039H74.4636C83.0478 10.1039 89.9142 16.9706 89.9142 25.5546V30.5622C89.9142 32.4223 90.6297 34.1388 91.917 35.4261L95.4936 39.0026C101.502 45.0112 101.502 54.7399 95.4936 60.8911L91.917 64.4676C90.6297 65.7549 89.9142 67.4724 89.9142 69.3314V74.4817C89.9142 83.0659 83.0475 89.9323 74.4636 89.9323H69.3133C67.4532 89.9323 65.7368 90.6478 64.4495 91.9351L60.8729 95.5117C57.8681 98.3727 54.0052 99.9462 49.8569 99.9462ZM44.9931 89.3594C46.2804 90.6467 47.9979 91.3622 49.8569 91.3622C51.7171 91.3622 53.4335 90.6467 54.7208 89.3594L58.2973 85.7829C61.1583 82.9219 65.0212 81.3482 69.1698 81.3482H74.32C78.1829 81.3482 81.1867 78.2009 81.1867 74.4815V69.3313C81.1867 65.183 82.7604 61.3201 85.6213 58.4588L89.1979 54.8823C91.9163 52.1639 91.9163 47.7292 89.1979 45.1546L85.6224 41.5771C82.7614 38.7161 81.1877 34.7104 81.1877 30.7046V25.697C81.1877 21.9776 78.0403 18.8303 74.321 18.8303H69.3133C65.1651 18.8303 61.3021 17.2565 58.4409 14.3956L54.8644 10.8191C52.1459 8.24445 47.8541 8.24445 45.1367 10.8191L41.4166 14.252C38.5556 17.113 34.6927 18.6867 30.5441 18.6867H25.3939C21.6746 18.6867 18.5272 21.834 18.5272 25.5534V30.5611C18.5272 34.7093 16.9535 38.5723 14.0925 41.4335L10.516 45.01C7.79758 47.7285 7.79758 52.1631 10.516 54.7377L14.0925 58.3143C16.9535 61.1752 18.5272 65.0382 18.5272 69.1867V74.3369C18.5272 78.0563 21.6746 81.2036 25.3939 81.2036H30.4016C34.5499 81.2036 38.4128 82.7774 41.274 85.6383L44.9931 89.3594Z" fill="#292D32"/>
<path d="M37.1466 66.8991C36.002 66.8991 35.0011 66.47 34.1418 65.6117C32.4254 63.8953 32.4254 61.1771 34.1418 59.6032L59.464 34.281C61.1804 32.5645 63.8986 32.5645 65.4726 34.281C67.189 35.9974 67.189 38.7156 65.4726 40.2896L40.1514 65.7556C39.4359 66.6138 38.2913 66.8991 37.1466 66.8991Z" fill="#292D32"/>
<path d="M36.5463 42.8646C35.8308 42.8646 34.9726 42.7219 34.2571 42.4355C33.5416 42.1491 32.8261 41.72 32.2543 41.1482C31.6825 40.5764 31.2524 39.8609 30.9669 39.1454C30.6805 38.4299 30.5378 37.7144 30.5378 36.8562C30.5378 35.998 30.6805 35.2824 30.9669 34.567C31.2534 33.8514 31.6825 33.1359 32.2543 32.5641C34.6862 30.2749 38.4054 30.2749 40.8385 32.5641C41.9831 33.7088 42.5549 35.2826 42.5549 36.8562C42.5549 37.5718 42.4122 38.43 42.1258 39.1455C41.8394 39.861 41.2676 40.5765 40.6948 41.1483C40.123 41.7201 39.4075 42.1502 38.692 42.4356C38.2629 42.722 37.4045 42.8646 36.5463 42.8646Z" fill="#292D32"/>
<path d="M63.1447 69.331C62.4292 69.331 61.571 69.1883 60.8555 68.9019C60.14 68.6155 59.4245 68.1864 58.8527 67.6146C58.2809 67.0428 57.8508 66.3273 57.5653 65.6118C57.2789 64.8963 57.1362 64.1807 57.1362 63.3225C57.1362 62.4644 57.2789 61.7488 57.5653 61.0333C57.8517 60.3178 58.2809 59.6023 58.8527 59.0305C61.2846 56.7413 65.0038 56.7413 67.4369 59.0305C68.5815 60.1751 69.1533 61.7489 69.1533 63.3226C69.1533 64.0381 69.0106 64.8963 68.7242 65.6118C68.4378 66.3273 67.866 67.0429 67.2932 67.6146C66.7214 68.1865 66.0059 68.6166 65.2904 68.902C64.7186 69.1874 63.8602 69.331 63.1447 69.331Z" fill="#292D32"/>
</svg>
