<svg width="100" height="100" viewBox="0 0 100 100" fill="none" xmlns="http://www.w3.org/2000/svg">
<path d="M20.8333 37.5C20.8333 23.7507 20.8333 16.876 25.1046 12.6047C29.376 8.33334 36.2506 8.33334 49.9999 8.33334C63.7491 8.33334 70.6237 8.33334 74.8953 12.6047C79.1666 16.876 79.1666 23.7507 79.1666 37.5V62.5C79.1666 76.2492 79.1666 83.1238 74.8953 87.3954C70.6237 91.6667 63.7491 91.6667 49.9999 91.6667C36.2506 91.6667 29.376 91.6667 25.1046 87.3954C20.8333 83.1238 20.8333 76.2492 20.8333 62.5V37.5Z" stroke="black" stroke-width="6" stroke-linecap="round"/>
<path d="M45.8333 79.1667H54.1666" stroke="black" stroke-width="6" stroke-linecap="round" stroke-linejoin="round"/>
<path d="M37.5 8.33334L37.8708 10.5584C38.6745 15.3804 39.0763 17.7914 40.73 19.2585C42.455 20.7889 44.9004 20.8333 50 20.8333C55.0996 20.8333 57.545 20.7889 59.27 19.2585C60.9237 17.7914 61.3254 15.3804 62.1292 10.5584L62.5 8.33334" stroke="black" stroke-width="6" stroke-linejoin="round"/>
</svg>
