<svg width="100" height="93" viewBox="0 0 100 93" fill="none" xmlns="http://www.w3.org/2000/svg">
<mask id="path-1-inside-1_2541_52" fill="white">
<path d="M95.49 38.7345L91.2042 35.9792L86.1022 22.081V22.0817C85.5135 20.4923 84.4537 19.1207 83.0635 18.1505C81.6741 17.1804 80.0214 16.6579 78.3266 16.6529H63.6631V6.99966C63.6631 5.14324 62.9257 3.36244 61.6125 2.04994C60.3 0.737412 58.5197 0 56.6627 0H6.99966C5.14324 0 3.36244 0.737412 2.04993 2.04994C0.737412 3.36246 0 5.14342 0 6.99966V77.091C0.00213539 78.5865 0.59789 80.0207 1.6556 81.0785C2.71331 82.1362 4.14686 82.7312 5.64231 82.7341H12.9488C13.4499 86.4881 15.7482 89.7629 19.1087 91.5096C22.4689 93.2563 26.4698 93.2563 29.8303 91.5096C33.1905 89.7629 35.489 86.4879 35.9901 82.7341H63.8874C64.3885 86.4881 66.6868 89.7629 70.0473 91.5096C73.4075 93.2563 77.4084 93.2563 80.7689 91.5096C84.1291 89.7629 86.4276 86.4879 86.9287 82.7341H94.3577C95.8531 82.7312 97.2866 82.1362 98.3444 81.0785C99.4021 80.0208 99.9979 78.5865 100 77.091V46.9889C100.006 43.647 98.3059 40.5337 95.4901 38.7336L95.49 38.7345ZM78.3061 21.7548C78.9524 21.7527 79.5844 21.9463 80.1183 22.3107C80.6521 22.6751 81.0628 23.1926 81.2963 23.7955L86.735 38.5408C86.9279 39.0625 87.286 39.5067 87.755 39.8056L92.7653 43.0201C94.1063 43.8935 94.9105 45.3897 94.8977 46.9897V59.2345H63.664V21.7544L78.3061 21.7548ZM6.9993 5.10186H56.6733C57.7211 5.10186 58.5709 5.95102 58.5709 6.99946V59.2446H5.10133V6.99946C5.10133 5.95101 5.9505 5.10186 6.99893 5.10186H6.9993ZM24.4892 87.7334C22.7574 87.7334 21.0961 87.0458 19.8711 85.8208C18.6468 84.5965 17.9585 82.9352 17.9585 81.2027C17.9585 79.471 18.6468 77.8097 19.8711 76.5854C21.0961 75.3604 22.7574 74.6721 24.4892 74.6721C26.2209 74.6721 27.8822 75.3604 29.1073 76.5854C30.3315 77.8096 31.0198 79.4709 31.0198 81.2027C31.017 82.9345 30.3279 84.5936 29.1043 85.8179C27.8801 87.0422 26.2202 87.7312 24.4892 87.7334ZM75.4278 87.7334C73.696 87.7334 72.0347 87.0458 70.8104 85.8208C69.5854 84.5965 68.8971 82.9352 68.8971 81.2027C68.8971 79.471 69.5854 77.8097 70.8104 76.5854C72.0347 75.3604 73.696 74.6721 75.4278 74.6721C77.1602 74.6721 78.8208 75.3604 80.0459 76.5854C81.2708 77.8096 81.9584 79.4709 81.9584 81.2027C81.9563 82.9395 81.263 84.6036 80.0324 85.8287C78.8017 87.0536 77.134 87.739 75.3972 87.7334H75.4278ZM94.3765 77.6417H86.4686C85.455 74.4984 83.1532 71.9339 80.1366 70.5879C77.12 69.2426 73.6736 69.2426 70.6577 70.5879C67.6411 71.9339 65.3392 74.4984 64.3257 77.6417H35.5391C34.5327 74.4913 32.2315 71.9183 29.2128 70.568C26.1934 69.2178 22.7419 69.2178 19.7226 70.568C16.7032 71.9183 14.4028 74.4913 13.3962 77.6417H5.64069C5.49549 77.6417 5.35669 77.5833 5.2549 77.4801C5.15312 77.3762 5.0976 77.236 5.10045 77.0908V64.3456H94.8967V77.0908C94.8967 77.2345 94.8398 77.3719 94.7387 77.473C94.6369 77.5748 94.4995 77.6317 94.3565 77.6317L94.3765 77.6417Z"/>
</mask>
<path d="M95.49 38.7345L91.2042 35.9792L86.1022 22.081V22.0817C85.5135 20.4923 84.4537 19.1207 83.0635 18.1505C81.6741 17.1804 80.0214 16.6579 78.3266 16.6529H63.6631V6.99966C63.6631 5.14324 62.9257 3.36244 61.6125 2.04994C60.3 0.737412 58.5197 0 56.6627 0H6.99966C5.14324 0 3.36244 0.737412 2.04993 2.04994C0.737412 3.36246 0 5.14342 0 6.99966V77.091C0.00213539 78.5865 0.59789 80.0207 1.6556 81.0785C2.71331 82.1362 4.14686 82.7312 5.64231 82.7341H12.9488C13.4499 86.4881 15.7482 89.7629 19.1087 91.5096C22.4689 93.2563 26.4698 93.2563 29.8303 91.5096C33.1905 89.7629 35.489 86.4879 35.9901 82.7341H63.8874C64.3885 86.4881 66.6868 89.7629 70.0473 91.5096C73.4075 93.2563 77.4084 93.2563 80.7689 91.5096C84.1291 89.7629 86.4276 86.4879 86.9287 82.7341H94.3577C95.8531 82.7312 97.2866 82.1362 98.3444 81.0785C99.4021 80.0208 99.9979 78.5865 100 77.091V46.9889C100.006 43.647 98.3059 40.5337 95.4901 38.7336L95.49 38.7345ZM78.3061 21.7548C78.9524 21.7527 79.5844 21.9463 80.1183 22.3107C80.6521 22.6751 81.0628 23.1926 81.2963 23.7955L86.735 38.5408C86.9279 39.0625 87.286 39.5067 87.755 39.8056L92.7653 43.0201C94.1063 43.8935 94.9105 45.3897 94.8977 46.9897V59.2345H63.664V21.7544L78.3061 21.7548ZM6.9993 5.10186H56.6733C57.7211 5.10186 58.5709 5.95102 58.5709 6.99946V59.2446H5.10133V6.99946C5.10133 5.95101 5.9505 5.10186 6.99893 5.10186H6.9993ZM24.4892 87.7334C22.7574 87.7334 21.0961 87.0458 19.8711 85.8208C18.6468 84.5965 17.9585 82.9352 17.9585 81.2027C17.9585 79.471 18.6468 77.8097 19.8711 76.5854C21.0961 75.3604 22.7574 74.6721 24.4892 74.6721C26.2209 74.6721 27.8822 75.3604 29.1073 76.5854C30.3315 77.8096 31.0198 79.4709 31.0198 81.2027C31.017 82.9345 30.3279 84.5936 29.1043 85.8179C27.8801 87.0422 26.2202 87.7312 24.4892 87.7334ZM75.4278 87.7334C73.696 87.7334 72.0347 87.0458 70.8104 85.8208C69.5854 84.5965 68.8971 82.9352 68.8971 81.2027C68.8971 79.471 69.5854 77.8097 70.8104 76.5854C72.0347 75.3604 73.696 74.6721 75.4278 74.6721C77.1602 74.6721 78.8208 75.3604 80.0459 76.5854C81.2708 77.8096 81.9584 79.4709 81.9584 81.2027C81.9563 82.9395 81.263 84.6036 80.0324 85.8287C78.8017 87.0536 77.134 87.739 75.3972 87.7334H75.4278ZM94.3765 77.6417H86.4686C85.455 74.4984 83.1532 71.9339 80.1366 70.5879C77.12 69.2426 73.6736 69.2426 70.6577 70.5879C67.6411 71.9339 65.3392 74.4984 64.3257 77.6417H35.5391C34.5327 74.4913 32.2315 71.9183 29.2128 70.568C26.1934 69.2178 22.7419 69.2178 19.7226 70.568C16.7032 71.9183 14.4028 74.4913 13.3962 77.6417H5.64069C5.49549 77.6417 5.35669 77.5833 5.2549 77.4801C5.15312 77.3762 5.0976 77.236 5.10045 77.0908V64.3456H94.8967V77.0908C94.8967 77.2345 94.8398 77.3719 94.7387 77.473C94.6369 77.5748 94.4995 77.6317 94.3565 77.6317L94.3765 77.6417Z" fill="black"/>
<path d="M95.49 38.7345L92.2453 43.7814L99.8475 48.6689L101.401 39.7656L95.49 38.7345ZM91.2042 35.9792L85.5718 38.0469L86.2657 39.9372L87.9595 41.0261L91.2042 35.9792ZM86.1022 22.081L91.7347 20.0133L80.1022 22.081H86.1022ZM86.1022 22.0817L80.4757 24.1655L92.1022 22.0817H86.1022ZM83.0635 18.1505L79.6285 23.07L79.6299 23.0709L83.0635 18.1505ZM78.3266 16.6529L78.3443 10.653L78.3355 10.6529H78.3266V16.6529ZM63.6631 16.6529H57.6631V22.6529H63.6631V16.6529ZM61.6125 2.04994L57.3698 6.29258L57.371 6.29378L61.6125 2.04994ZM2.04993 2.04994L6.29258 6.29258L6.2926 6.29255L2.04993 2.04994ZM0 77.091L-6.00001 77.091L-5.99999 77.0996L0 77.091ZM5.64231 82.7341L5.63091 88.7341H5.64231V82.7341ZM12.9488 82.7341L18.8961 81.9402L18.2012 76.7341H12.9488V82.7341ZM19.1087 91.5096L21.876 86.1859L21.8759 86.1859L19.1087 91.5096ZM29.8303 91.5096L32.5975 96.8334L32.5976 96.8333L29.8303 91.5096ZM35.9901 82.7341V76.7341H30.7378L30.0429 81.9402L35.9901 82.7341ZM63.8874 82.7341L69.8347 81.9402L69.1398 76.7341H63.8874V82.7341ZM70.0473 91.5096L72.8146 86.1859L72.8145 86.1859L70.0473 91.5096ZM80.7689 91.5096L83.5361 96.8334L83.5362 96.8333L80.7689 91.5096ZM86.9287 82.7341V76.7341H81.6764L80.9815 81.9402L86.9287 82.7341ZM94.3577 82.7341L94.3577 88.7341L94.3691 88.7341L94.3577 82.7341ZM100 77.091L106 77.0996V77.091H100ZM100 46.9889L94 46.9774V46.9889H100ZM95.4901 38.7336L98.7219 33.6783L91.1283 28.8238L89.5794 37.7024L95.4901 38.7336ZM78.3061 21.7548L78.3059 27.7548L78.3159 27.7548L78.3259 27.7548L78.3061 21.7548ZM81.2963 23.7955L86.9255 21.7191L86.9088 21.6739L86.8914 21.6288L81.2963 23.7955ZM86.735 38.5408L81.1058 40.6171L81.1073 40.6214L86.735 38.5408ZM87.755 39.8056L90.995 34.7556L90.9874 34.7507L90.9797 34.7458L87.755 39.8056ZM92.7653 43.0201L96.0397 37.9924L96.0225 37.9812L96.0053 37.9701L92.7653 43.0201ZM94.8977 46.9897L88.8979 46.9419L88.8977 46.9658V46.9897H94.8977ZM94.8977 59.2345V65.2345H100.898V59.2345H94.8977ZM63.664 59.2345H57.664V65.2345H63.664V59.2345ZM63.664 21.7544L63.6642 15.7544L57.664 15.7542V21.7544H63.664ZM58.5709 59.2446V65.2446H64.5709V59.2446H58.5709ZM5.10133 59.2446H-0.898668V65.2446H5.10133V59.2446ZM24.4892 87.7334L24.4892 93.7334L24.4967 93.7334L24.4892 87.7334ZM19.8711 85.8208L15.6284 90.0635L15.6286 90.0636L19.8711 85.8208ZM19.8711 76.5854L15.6284 72.3427L15.6283 72.3428L19.8711 76.5854ZM29.1073 76.5854L33.3499 72.3427L33.3498 72.3426L29.1073 76.5854ZM31.0198 81.2027L37.0198 81.2126V81.2027H31.0198ZM29.1043 85.8179L33.347 90.0605L33.3482 90.0593L29.1043 85.8179ZM70.8104 85.8208L75.0542 81.5793L75.0518 81.5769L70.8104 85.8208ZM70.8104 76.5854L75.0519 80.8292L75.0543 80.8268L70.8104 76.5854ZM80.0459 76.5854L75.8033 80.8281L75.8045 80.8292L80.0459 76.5854ZM81.9584 81.2027L87.9584 81.2101V81.2027H81.9584ZM80.0324 85.8287L84.2652 90.0811L84.2654 90.0809L80.0324 85.8287ZM75.3972 87.7334V81.7334L75.3776 93.7333L75.3972 87.7334ZM94.3765 77.6417V83.6417L97.0502 72.2703L94.3765 77.6417ZM86.4686 77.6417L80.7582 79.4831L82.0992 83.6417H86.4686V77.6417ZM80.1366 70.5879L82.5815 65.1086L82.5803 65.1081L80.1366 70.5879ZM70.6577 70.5879L68.2135 65.1083L68.2129 65.1086L70.6577 70.5879ZM64.3257 77.6417V83.6417H68.6953L70.0362 79.4829L64.3257 77.6417ZM35.5391 77.6417L29.8237 79.4676L31.1572 83.6417H35.5391V77.6417ZM29.2128 70.568L31.6625 65.0909L31.6622 65.0908L29.2128 70.568ZM13.3962 77.6417V83.6417H17.7779L19.1115 79.4678L13.3962 77.6417ZM5.2549 77.4801L0.968449 81.6785L0.975669 81.6858L0.982914 81.6932L5.2549 77.4801ZM5.10045 77.0908L11.0993 77.2083L11.1004 77.1496V77.0908H5.10045ZM5.10045 64.3456V58.3456H-0.899554V64.3456H5.10045ZM94.8967 64.3456H100.897V58.3456H94.8967V64.3456ZM94.7387 77.473L98.9813 81.7156L98.9814 81.7156L94.7387 77.473ZM94.3565 77.6317V71.6317L91.6827 83.003L94.3565 77.6317ZM95.49 38.7345L98.7347 33.6875L94.4489 30.9322L91.2042 35.9792L87.9595 41.0261L92.2453 43.7814L95.49 38.7345ZM91.2042 35.9792L96.8367 33.9115L91.7347 20.0133L86.1022 22.081L80.4697 24.1487L85.5718 38.0469L91.2042 35.9792ZM86.1022 22.081H80.1022V22.0817H86.1022H92.1022V22.081H86.1022ZM86.1022 22.0817L91.7287 19.9979C90.7156 17.2624 88.8911 14.9007 86.4972 13.2302L83.0635 18.1505L79.6299 23.0709C80.0163 23.3406 80.3115 23.7222 80.4757 24.1655L86.1022 22.0817ZM83.0635 18.1505L86.4986 13.2311C84.1064 11.5608 81.2613 10.6616 78.3443 10.653L78.3266 16.6529L78.309 22.6529C78.7816 22.6543 79.2419 22.8 79.6285 23.07L83.0635 18.1505ZM78.3266 16.6529V10.6529H63.6631V16.6529V22.6529H78.3266V16.6529ZM63.6631 16.6529H69.6631V6.99966H63.6631H57.6631V16.6529H63.6631ZM63.6631 6.99966H69.6631C69.6631 3.55236 68.2938 0.244625 65.8539 -2.19391L61.6125 2.04994L57.371 6.29378C57.5576 6.48025 57.6631 6.73412 57.6631 6.99966H63.6631ZM61.6125 2.04994L65.8551 -2.19271C63.4171 -4.63068 60.1107 -6 56.6627 -6V0V6C56.9287 6 57.1828 6.1055 57.3698 6.29258L61.6125 2.04994ZM56.6627 0V-6H6.99966V0V6H56.6627V0ZM6.99966 0V-6C3.55254 -6 0.245423 -4.63087 -2.19274 -2.19268L2.04993 2.04994L6.2926 6.29255C6.47946 6.10569 6.73394 6 6.99966 6V0ZM2.04993 2.04994L-2.19271 -2.19271C-4.63091 0.245499 -6 3.55278 -6 6.99966H0H6C6 6.73407 6.10573 6.47942 6.29258 6.29258L2.04993 2.04994ZM0 6.99966H-6V77.091H0H6V6.99966H0ZM0 77.091L-5.99999 77.0996C-5.99559 80.1849 -4.76678 83.1413 -2.58715 85.321L1.6556 81.0785L5.89835 76.8359C5.96256 76.9002 5.99986 76.988 5.99999 77.0825L0 77.091ZM1.6556 81.0785L-2.58715 85.321C-0.406356 87.5019 2.54898 88.7282 5.63091 88.7341L5.64231 82.7341L5.65372 76.7341C5.74475 76.7343 5.83298 76.7706 5.89835 76.8359L1.6556 81.0785ZM5.64231 82.7341V88.7341H12.9488V82.7341V76.7341H5.64231V82.7341ZM12.9488 82.7341L7.00158 83.5279C7.76126 89.2192 11.2457 94.1847 16.3414 96.8334L19.1087 91.5096L21.8759 86.1859C20.2507 85.3411 19.1386 83.757 18.8961 81.9402L12.9488 82.7341ZM19.1087 91.5096L16.3413 96.8333C21.4363 99.4818 27.5025 99.4817 32.5975 96.8334L29.8303 91.5096L27.063 86.1858C25.4372 87.0309 23.5015 87.0309 21.876 86.1859L19.1087 91.5096ZM29.8303 91.5096L32.5976 96.8333C37.693 94.1847 41.1776 89.2191 41.9373 83.528L35.9901 82.7341L30.0429 81.9402C29.8004 83.7567 28.688 85.3412 27.0629 86.1859L29.8303 91.5096ZM35.9901 82.7341V88.7341H63.8874V82.7341V76.7341H35.9901V82.7341ZM63.8874 82.7341L57.9402 83.5279C58.6999 89.2192 62.1843 94.1847 67.28 96.8334L70.0473 91.5096L72.8145 86.1859C71.1893 85.3411 70.0772 83.757 69.8347 81.9402L63.8874 82.7341ZM70.0473 91.5096L67.2799 96.8333C72.3749 99.4818 78.4411 99.4817 83.5361 96.8334L80.7689 91.5096L78.0017 86.1858C76.3758 87.0309 74.4401 87.0309 72.8146 86.1859L70.0473 91.5096ZM80.7689 91.5096L83.5362 96.8333C88.6316 94.1847 92.1162 89.2191 92.8759 83.528L86.9287 82.7341L80.9815 81.9402C80.739 83.7567 79.6266 85.3412 78.0015 86.1859L80.7689 91.5096ZM86.9287 82.7341V88.7341H94.3577V82.7341V76.7341H86.9287V82.7341ZM94.3577 82.7341L94.3691 88.7341C97.4512 88.7282 100.406 87.5017 102.587 85.3212L98.3444 81.0785L94.1019 76.8357C94.1669 76.7706 94.255 76.7343 94.3462 76.7341L94.3577 82.7341ZM98.3444 81.0785L102.587 85.3212C104.767 83.1413 105.996 80.1847 106 77.0996L100 77.091L94 77.0825C94.0001 76.9882 94.0373 76.9002 94.1019 76.8357L98.3444 81.0785ZM100 77.091H106V46.9889H100H94V77.091H100ZM100 46.9889L106 47.0004C106.01 41.6081 103.266 36.5835 98.7219 33.6783L95.4901 38.7336L92.2584 43.7888C93.3456 44.4839 94.0025 45.686 94 46.9774L100 46.9889ZM95.4901 38.7336L89.5794 37.7024L89.5792 37.7033L95.49 38.7345L101.401 39.7656L101.401 39.7647L95.4901 38.7336ZM78.3061 21.7548L78.3259 27.7548C77.761 27.7566 77.2061 27.5875 76.7354 27.2661L80.1183 22.3107L83.5011 17.3553C81.9627 16.3051 80.1438 15.7487 78.2862 15.7548L78.3061 21.7548ZM80.1183 22.3107L76.7354 27.2661C76.2675 26.9467 75.9063 26.4921 75.7011 25.9621L81.2963 23.7955L86.8914 21.6288C86.2192 19.8931 85.0367 18.4036 83.5011 17.3553L80.1183 22.3107ZM81.2963 23.7955L75.667 25.8718L81.1058 40.6171L86.735 38.5408L92.3643 36.4644L86.9255 21.7191L81.2963 23.7955ZM86.735 38.5408L81.1073 40.6214C81.754 42.3706 82.9553 43.8616 84.5304 44.8655L87.755 39.8056L90.9797 34.7458C91.6166 35.1517 92.1018 35.7545 92.3627 36.4602L86.735 38.5408ZM87.755 39.8056L84.515 44.8556L89.5253 48.0701L92.7653 43.0201L96.0053 37.9701L90.995 34.7556L87.755 39.8056ZM92.7653 43.0201L89.4908 48.0478C89.1194 47.8059 88.8943 47.39 88.8979 46.9419L94.8977 46.9897L100.898 47.0375C100.927 43.3893 99.0931 39.981 96.0397 37.9924L92.7653 43.0201ZM94.8977 46.9897H88.8977V59.2345H94.8977H100.898V46.9897H94.8977ZM94.8977 59.2345V53.2345H63.664V59.2345V65.2345H94.8977V59.2345ZM63.664 59.2345H69.664V21.7544H63.664H57.664V59.2345H63.664ZM63.664 21.7544L63.6638 27.7544L78.3059 27.7548L78.3061 21.7548L78.3062 15.7548L63.6642 15.7544L63.664 21.7544ZM6.9993 5.10186V11.1019H56.6733V5.10186V-0.898141H6.9993V5.10186ZM56.6733 5.10186V11.1019C54.4088 11.1019 52.5709 9.26616 52.5709 6.99946H58.5709H64.5709C64.5709 2.63589 61.0333 -0.898141 56.6733 -0.898141V5.10186ZM58.5709 6.99946H52.5709V59.2446H58.5709H64.5709V6.99946H58.5709ZM58.5709 59.2446V53.2446H5.10133V59.2446V65.2446H58.5709V59.2446ZM5.10133 59.2446H11.1013V6.99946H5.10133H-0.898668V59.2446H5.10133ZM5.10133 6.99946H11.1013C11.1013 9.26475 9.26417 11.1019 6.99893 11.1019V5.10186V-0.898141C2.63683 -0.898141 -0.898668 2.63726 -0.898668 6.99946H5.10133ZM6.99893 5.10186V11.1019H6.9993V5.10186V-0.898141H6.99893V5.10186ZM24.4892 87.7334V81.7334C24.3477 81.7334 24.2128 81.6772 24.1136 81.5781L19.8711 85.8208L15.6286 90.0636C17.9795 92.4143 21.1671 93.7334 24.4892 93.7334V87.7334ZM19.8711 85.8208L24.1137 81.5782C24.0148 81.4793 23.9585 81.3442 23.9585 81.2027H17.9585H11.9585C11.9585 84.5263 13.2788 87.7138 15.6284 90.0635L19.8711 85.8208ZM17.9585 81.2027H23.9585C23.9585 81.0625 24.0145 80.9272 24.1138 80.8279L19.8711 76.5854L15.6283 72.3428C13.2791 74.6922 11.9585 77.8795 11.9585 81.2027H17.9585ZM19.8711 76.5854L24.1137 80.828C24.2139 80.7278 24.3493 80.6721 24.4892 80.6721V74.6721V68.6721C21.1654 68.6721 17.9782 69.993 15.6284 72.3427L19.8711 76.5854ZM24.4892 74.6721V80.6721C24.6289 80.6721 24.7643 80.7277 24.8647 80.8281L29.1073 76.5854L33.3498 72.3426C31.0001 69.993 27.813 68.6721 24.4892 68.6721V74.6721ZM29.1073 76.5854L24.8646 80.828C24.9638 80.9271 25.0198 81.0624 25.0198 81.2027H31.0198H37.0198C37.0198 77.8795 35.6993 74.6921 33.3499 72.3427L29.1073 76.5854ZM31.0198 81.2027L25.0198 81.1929C25.0196 81.3366 24.9625 81.4744 24.8605 81.5765L29.1043 85.8179L33.3482 90.0593C35.6934 87.7128 37.0143 84.5323 37.0198 81.2126L31.0198 81.2027ZM29.1043 85.8179L24.8617 81.5753C24.7603 81.6767 24.6232 81.7332 24.4816 81.7334L24.4892 87.7334L24.4967 93.7334C27.8172 93.7292 30.9998 92.4077 33.347 90.0605L29.1043 85.8179ZM75.4278 87.7334V81.7334C75.286 81.7334 75.1519 81.6771 75.0542 81.5793L70.8104 85.8208L66.5666 90.0623C68.9176 92.4145 72.106 93.7334 75.4278 93.7334V87.7334ZM70.8104 85.8208L75.0518 81.5769C74.9532 81.4784 74.8971 81.344 74.8971 81.2027H68.8971H62.8971C62.8971 84.5265 64.2176 87.7147 66.569 90.0647L70.8104 85.8208ZM68.8971 81.2027H74.8971C74.8971 81.0626 74.953 80.928 75.0519 80.8292L70.8104 76.5854L66.5689 72.3416C64.2179 74.6913 62.8971 77.8793 62.8971 81.2027H68.8971ZM70.8104 76.5854L75.0543 80.8268C75.1531 80.7279 75.2876 80.6721 75.4278 80.6721V74.6721V68.6721C72.1043 68.6721 68.9163 69.9928 66.5665 72.3439L70.8104 76.5854ZM75.4278 74.6721V80.6721C75.5679 80.6721 75.7027 80.7275 75.8033 80.8281L80.0459 76.5854L84.2884 72.3426C81.9389 69.9933 78.7526 68.6721 75.4278 68.6721V74.6721ZM80.0459 76.5854L75.8045 80.8292C75.9021 80.9268 75.9584 81.0609 75.9584 81.2027H81.9584H87.9584C87.9584 77.881 86.6396 74.6925 84.2873 72.3415L80.0459 76.5854ZM81.9584 81.2027L75.9584 81.1953C75.9582 81.3375 75.9015 81.4747 75.7994 81.5764L80.0324 85.8287L84.2654 90.0809C86.6245 87.7325 87.9543 84.5414 87.9584 81.2101L81.9584 81.2027ZM80.0324 85.8287L75.7996 81.5762C75.6982 81.6771 75.5605 81.7339 75.4167 81.7334L75.3972 87.7334L75.3776 93.7333C78.7076 93.7442 81.9052 92.4302 84.2652 90.0811L80.0324 85.8287ZM75.3972 87.7334V93.7334H75.4278V87.7334V81.7334H75.3972V87.7334ZM94.3765 77.6417V71.6417H86.4686V77.6417V83.6417H94.3765V77.6417ZM86.4686 77.6417L92.1791 75.8003C90.6427 71.0359 87.1537 67.1488 82.5815 65.1086L80.1366 70.5879L77.6917 76.0672C79.1527 76.7191 80.2674 77.961 80.7582 79.4831L86.4686 77.6417ZM80.1366 70.5879L82.5803 65.1081C78.0086 63.0693 72.7851 63.0691 68.2135 65.1083L70.6577 70.5879L73.1019 76.0675C74.562 75.4162 76.2314 75.4159 77.6929 76.0677L80.1366 70.5879ZM70.6577 70.5879L68.2129 65.1086C63.6407 67.1486 60.1514 71.0358 58.6152 75.8004L64.3257 77.6417L70.0362 79.4829C70.5269 77.961 71.6415 76.7191 73.1025 76.0672L70.6577 70.5879ZM64.3257 77.6417V71.6417H35.5391V77.6417V83.6417H64.3257V77.6417ZM35.5391 77.6417L41.2545 75.8157C39.7286 71.0395 36.24 67.1383 31.6625 65.0909L29.2128 70.568L26.763 76.0451C28.2231 76.6982 29.3367 77.9432 29.8237 79.4676L35.5391 77.6417ZM29.2128 70.568L31.6622 65.0908C27.0843 63.0435 21.851 63.0435 17.2731 65.0908L19.7226 70.568L22.172 76.0453C23.6327 75.392 25.3026 75.392 26.7633 76.0453L29.2128 70.568ZM19.7226 70.568L17.2731 65.0908C12.6943 67.1384 9.20669 71.0399 7.68083 75.8156L13.3962 77.6417L19.1115 79.4678C19.5988 77.9427 20.7121 76.6981 22.172 76.0453L19.7226 70.568ZM13.3962 77.6417V71.6417H5.64069V77.6417V83.6417H13.3962V77.6417ZM5.64069 77.6417V71.6417C7.10844 71.6417 8.50624 72.2321 9.5269 73.267L5.2549 77.4801L0.982914 81.6932C2.20714 82.9345 3.88253 83.6417 5.64069 83.6417V77.6417ZM5.2549 77.4801L9.54136 73.2817C10.5677 74.3296 11.128 75.7452 11.0993 77.2083L5.10045 77.0908L-0.898402 76.9732C-0.932774 78.7268 -0.261472 80.4227 0.968449 81.6785L5.2549 77.4801ZM5.10045 77.0908H11.1004V64.3456H5.10045H-0.899554V77.0908H5.10045ZM5.10045 64.3456V70.3456H94.8967V64.3456V58.3456H5.10045V64.3456ZM94.8967 64.3456H88.8967V77.0908H94.8967H100.897V64.3456H94.8967ZM94.8967 77.0908H88.8967C88.8967 75.6471 89.4692 74.2572 90.496 73.2304L94.7387 77.473L98.9814 81.7156C100.21 80.4866 100.897 78.822 100.897 77.0908H94.8967ZM94.7387 77.473L90.496 73.2303C91.515 72.2114 92.9019 71.6317 94.3565 71.6317V77.6317V83.6317C96.0972 83.6317 97.7588 82.9381 98.9813 81.7156L94.7387 77.473ZM94.3565 77.6317L91.6827 83.003L91.7027 83.013L94.3765 77.6417L97.0502 72.2703L97.0302 72.2604L94.3565 77.6317Z" fill="black" mask="url(#path-1-inside-1_2541_52)"/>
<mask id="path-3-inside-2_2541_52" fill="white">
<path d="M15.1633 14.8987H17.1023C17.6148 14.8987 18.0305 15.3144 18.0305 15.8276V36.2158C18.0333 38.1312 18.7956 39.9669 20.1495 41.3215C21.504 42.676 23.3397 43.4375 25.2552 43.4405H44.4389C45.8475 43.4405 46.9899 42.298 46.9899 40.8894C46.9899 39.4801 45.8475 38.3384 44.4389 38.3384H25.2552C24.0829 38.3384 23.1327 37.3882 23.1327 36.2159V33.7161H42.3365C43.7949 33.7161 45.1937 33.1367 46.2257 32.1046C47.2571 31.0732 47.8365 29.6746 47.8365 28.2161V19.0321C47.8365 18.3559 47.5674 17.7067 47.0891 17.2284C46.6108 16.7501 45.9617 16.481 45.2855 16.481H23.1316V15.8077C23.1295 14.209 22.4931 12.6765 21.3628 11.5462C20.2318 10.4159 18.7001 9.77955 17.1013 9.7767H15.1624C13.7537 9.7767 12.6113 10.9191 12.6113 12.3277C12.6113 13.7371 13.7537 14.8788 15.1624 14.8788L15.1633 14.8987ZM42.7145 21.5518V28.2154C42.7145 28.4346 42.5365 28.6133 42.3166 28.6133H23.1328V21.5517L42.7145 21.5518Z"/>
</mask>
<path d="M15.1633 14.8987H17.1023C17.6148 14.8987 18.0305 15.3144 18.0305 15.8276V36.2158C18.0333 38.1312 18.7956 39.9669 20.1495 41.3215C21.504 42.676 23.3397 43.4375 25.2552 43.4405H44.4389C45.8475 43.4405 46.9899 42.298 46.9899 40.8894C46.9899 39.4801 45.8475 38.3384 44.4389 38.3384H25.2552C24.0829 38.3384 23.1327 37.3882 23.1327 36.2159V33.7161H42.3365C43.7949 33.7161 45.1937 33.1367 46.2257 32.1046C47.2571 31.0732 47.8365 29.6746 47.8365 28.2161V19.0321C47.8365 18.3559 47.5674 17.7067 47.0891 17.2284C46.6108 16.7501 45.9617 16.481 45.2855 16.481H23.1316V15.8077C23.1295 14.209 22.4931 12.6765 21.3628 11.5462C20.2318 10.4159 18.7001 9.77955 17.1013 9.7767H15.1624C13.7537 9.7767 12.6113 10.9191 12.6113 12.3277C12.6113 13.7371 13.7537 14.8788 15.1624 14.8788L15.1633 14.8987ZM42.7145 21.5518V28.2154C42.7145 28.4346 42.5365 28.6133 42.3166 28.6133H23.1328V21.5517L42.7145 21.5518Z" fill="black"/>
<path d="M15.1633 14.8987L9.17066 15.1948L9.45254 20.8987H15.1633V14.8987ZM18.0305 36.2158L12.0305 36.2158L12.0305 36.2247L18.0305 36.2158ZM20.1495 41.3215L15.9056 45.5629L15.9068 45.5641L20.1495 41.3215ZM25.2552 43.4405L25.246 49.4405H25.2552V43.4405ZM23.1327 33.7161V27.7161H17.1327V33.7161H23.1327ZM46.2257 32.1046L41.9831 27.862L41.9831 27.862L46.2257 32.1046ZM23.1316 16.481H17.1316V22.481H23.1316V16.481ZM23.1316 15.8077L29.1316 15.8077L29.1316 15.7997L23.1316 15.8077ZM21.3628 11.5462L25.6054 7.30351L25.6041 7.30221L21.3628 11.5462ZM17.1013 9.7767L17.112 3.7767H17.1013V9.7767ZM15.1624 14.8788L21.155 14.5826L20.8732 8.87876H15.1624V14.8788ZM42.7145 21.5518H48.7145V15.5518L42.7145 15.5518L42.7145 21.5518ZM23.1328 28.6133H17.1328V34.6133H23.1328V28.6133ZM23.1328 21.5517L23.1329 15.5517L17.1328 15.5517V21.5517H23.1328ZM15.1633 14.8987V20.8987H17.1023V14.8987V8.89868H15.1633V14.8987ZM17.1023 14.8987V20.8987C14.2982 20.8987 12.0305 18.6251 12.0305 15.8276H18.0305H24.0305C24.0305 12.0036 20.9314 8.89868 17.1023 8.89868V14.8987ZM18.0305 15.8276H12.0305V36.2158H18.0305H24.0305V15.8276H18.0305ZM18.0305 36.2158L12.0305 36.2247C12.0357 39.7291 13.4304 43.0863 15.9056 45.5629L20.1495 41.3215L24.3933 37.08C24.1609 36.8474 24.031 36.5334 24.0305 36.2068L18.0305 36.2158ZM20.1495 41.3215L15.9068 45.5641C18.385 48.0423 21.7434 49.4351 25.246 49.4404L25.2552 43.4405L25.2643 37.4405C24.9361 37.44 24.623 37.3097 24.3921 37.0788L20.1495 41.3215ZM25.2552 43.4405V49.4405H44.4389V43.4405V37.4405H25.2552V43.4405ZM44.4389 43.4405V49.4405C49.1613 49.4405 52.9899 45.6118 52.9899 40.8894H46.9899H40.9899C40.9899 38.9843 42.5338 37.4405 44.4389 37.4405V43.4405ZM46.9899 40.8894H52.9899C52.9899 36.1653 49.1602 32.3384 44.4389 32.3384V38.3384V44.3384C42.5349 44.3384 40.9899 42.7949 40.9899 40.8894H46.9899ZM44.4389 38.3384V32.3384H25.2552V38.3384V44.3384H44.4389V38.3384ZM25.2552 38.3384V32.3384C27.3967 32.3384 29.1327 34.0746 29.1327 36.2159H23.1327H17.1327C17.1327 40.7017 20.769 44.3384 25.2552 44.3384V38.3384ZM23.1327 36.2159H29.1327V33.7161H23.1327H17.1327V36.2159H23.1327ZM23.1327 33.7161V39.7161H42.3365V33.7161V27.7161H23.1327V33.7161ZM42.3365 33.7161V39.7161C45.387 39.7161 48.3116 38.5041 50.4684 36.3472L46.2257 32.1046L41.9831 27.862C42.0757 27.7694 42.2029 27.7161 42.3365 27.7161V33.7161ZM46.2257 32.1046L50.4684 36.3473C52.6249 34.1908 53.8365 31.2661 53.8365 28.2161H47.8365H41.8365C41.8365 28.0831 41.8894 27.9557 41.9831 27.862L46.2257 32.1046ZM47.8365 28.2161H53.8365V19.0321H47.8365H41.8365V28.2161H47.8365ZM47.8365 19.0321H53.8365C53.8365 16.7632 52.9343 14.5883 51.3318 12.9858L47.0891 17.2284L42.8465 21.471C42.2005 20.8251 41.8365 19.9485 41.8365 19.0321H47.8365ZM47.0891 17.2284L51.3318 12.9858C49.7292 11.3832 47.5543 10.481 45.2855 10.481V16.481V22.481C44.369 22.481 43.4924 22.117 42.8465 21.471L47.0891 17.2284ZM45.2855 16.481V10.481H23.1316V16.481V22.481H45.2855V16.481ZM23.1316 16.481H29.1316V15.8077H23.1316H17.1316V16.481H23.1316ZM23.1316 15.8077L29.1316 15.7997C29.1273 12.6117 27.8585 9.55654 25.6054 7.30351L21.3628 11.5462L17.1202 15.7889C17.1278 15.7964 17.1316 15.8063 17.1316 15.8157L23.1316 15.8077ZM21.3628 11.5462L25.6041 7.30221C23.3517 5.05122 20.2993 3.78238 17.112 3.77671L17.1013 9.7767L17.0907 15.7767C17.1009 15.7767 17.1119 15.7805 17.1215 15.7902L21.3628 11.5462ZM17.1013 9.7767V3.7767H15.1624V9.7767V15.7767H17.1013V9.7767ZM15.1624 9.7767V3.7767C10.44 3.7767 6.61133 7.6054 6.61133 12.3277H12.6113H18.6113C18.6113 14.2328 17.0674 15.7767 15.1624 15.7767V9.7767ZM12.6113 12.3277H6.61133C6.61133 17.0519 10.4411 20.8788 15.1624 20.8788V14.8788V8.87876C17.0664 8.87876 18.6113 10.4223 18.6113 12.3277H12.6113ZM15.1624 14.8788L9.16967 15.1749L9.17066 15.1948L15.1633 14.8987L21.156 14.6025L21.155 14.5826L15.1624 14.8788ZM42.7145 21.5518H36.7145V28.2154H42.7145H48.7145V21.5518H42.7145ZM42.7145 28.2154H36.7145C36.7145 25.128 39.2158 22.6133 42.3166 22.6133V28.6133V34.6133C45.8573 34.6133 48.7145 31.7413 48.7145 28.2154H42.7145ZM42.3166 28.6133V22.6133H23.1328V28.6133V34.6133H42.3166V28.6133ZM23.1328 28.6133H29.1328V21.5517H23.1328H17.1328V28.6133H23.1328ZM23.1328 21.5517L23.1328 27.5517L42.7144 27.5518L42.7145 21.5518L42.7145 15.5518L23.1329 15.5517L23.1328 21.5517Z" fill="black" mask="url(#path-3-inside-2_2541_52)"/>
<path d="M26.3979 50.1118C26.6065 50.1118 26.7756 50.2803 26.7759 50.4888C26.7759 50.6975 26.6066 50.8667 26.3979 50.8667C26.1895 50.8665 26.021 50.6973 26.021 50.4888C26.0212 50.2804 26.1896 50.1121 26.3979 50.1118Z" fill="black" stroke="black" stroke-width="6"/>
<path d="M40.1619 50.1118C40.3704 50.1118 40.5396 50.2803 40.5398 50.4888C40.5398 50.6975 40.3705 50.8667 40.1619 50.8667C39.9534 50.8665 39.7849 50.6974 39.7849 50.4888C39.7851 50.2804 39.9535 50.1121 40.1619 50.1118Z" fill="black" stroke="black" stroke-width="6"/>
</svg>
