<svg width="100" height="100" viewBox="0 0 100 100" fill="none" xmlns="http://www.w3.org/2000/svg">
<path d="M63.3697 41.3689H57.8957L60.2115 30.2111C60.843 27.2637 59.3693 24.5272 56.6327 23.3693C53.8961 22.2113 50.9488 22.9485 49.1586 25.2636L31.5795 48.8428C30.2108 50.738 30.0008 53.1589 31.053 55.264C32.1059 57.3691 34.2111 58.6328 36.5269 58.6328H42.0009L39.685 69.7906C39.0536 72.738 40.5273 75.4745 43.2638 76.6324C44.106 77.0531 44.9482 77.1589 45.7904 77.1589C47.6848 77.1589 49.475 76.3167 50.6329 74.6324L68.212 51.0532C69.5807 49.1588 69.7907 46.7371 68.7385 44.632C67.6848 42.5269 65.6855 41.3689 63.3697 41.3689ZM64.0011 48.0007L46.422 71.5799C46.1063 72.0007 45.7905 72.0007 45.369 71.8957C44.9483 71.6849 44.7376 71.3692 44.8426 70.9484L47.79 56.6325C48.0007 55.8953 47.79 55.0538 47.2635 54.4216C46.737 53.7901 46.0006 53.4744 45.2633 53.4744H36.6312C36.2105 53.4744 35.894 53.1586 35.894 52.9479C35.789 52.7372 35.6833 52.4214 35.999 52.0007L53.5782 28.4215C53.7889 28.2108 53.9989 28.1058 54.2096 28.1058C54.3146 28.1058 54.4204 28.1057 54.6304 28.2107C55.0511 28.4215 55.2619 28.7372 55.1569 29.158L52.2095 43.4739C51.9987 44.2111 52.2095 45.0526 52.7359 45.6848C53.2624 46.3163 53.9989 46.632 54.7361 46.632H63.3682C63.7889 46.632 64.1054 46.9478 64.1054 47.1585C64.2119 47.3692 64.3169 47.685 64.0011 48.0007Z" fill="black"/>
<path d="M49.8941 15.4738C51.3677 15.4738 52.5257 14.3159 52.5257 12.8422V2.63161C52.5257 1.15794 51.3677 0 49.8941 0C48.4204 0 47.2625 1.15794 47.2625 2.63161V12.8422C47.2625 14.3159 48.4204 15.4738 49.8941 15.4738Z" fill="black"/>
<path d="M49.8941 84.5272C48.4204 84.5272 47.2625 85.6851 47.2625 87.1588V97.3694C47.2625 98.8431 48.4204 100.001 49.8941 100.001C51.3677 100.001 52.5257 98.8431 52.5257 97.3694V87.1588C52.6307 85.6851 51.3677 84.5272 49.8941 84.5272Z" fill="black"/>
<path d="M18.4213 14.6317C17.3683 13.5788 15.6846 13.5788 14.6317 14.6317C13.5788 15.6847 13.5788 17.3684 14.6317 18.4213L21.7893 25.5789C22.3158 26.1053 22.9473 26.3161 23.6837 26.3161C24.4209 26.3161 25.0524 26.1053 25.5781 25.5789C26.6311 24.5259 26.6311 22.8422 25.5781 21.7893L18.4213 14.6317Z" fill="black"/>
<path d="M78.1038 74.4218C77.0509 73.3689 75.3672 73.3689 74.3143 74.4218C73.2615 75.4748 73.2614 77.1585 74.3143 78.2114L81.4719 85.369C81.9984 85.8954 82.6299 86.1062 83.3663 86.1062C84.1035 86.1062 84.735 85.8954 85.2607 85.369C86.3136 84.316 86.3136 82.6323 85.2607 81.5794L78.1038 74.4218Z" fill="black"/>
<path d="M15.4738 49.8953C15.4738 48.4216 14.3159 47.2637 12.8422 47.2637H2.63161C1.15794 47.2637 0 48.4216 0 49.8953C0 51.3689 1.15794 52.5269 2.63161 52.5269H12.8422C14.3159 52.6319 15.4738 51.3689 15.4738 49.8953Z" fill="black"/>
<path d="M97.3684 47.2637H87.1577C85.6841 47.2637 84.5261 48.4216 84.5261 49.8953C84.5261 51.3689 85.6841 52.5269 87.1577 52.5269H97.3684C98.842 52.5269 100 51.3689 100 49.8953C100 48.5266 98.842 47.2637 97.3684 47.2637Z" fill="black"/>
<path d="M21.7893 74.3166L14.6317 81.4742C13.5788 82.5271 13.5788 84.2109 14.6317 85.2637C15.1582 85.7902 15.7897 86.0009 16.5261 86.0009C17.2633 86.0009 17.8948 85.7902 18.4205 85.2637L25.5781 78.1061C26.6311 77.0532 26.6311 75.3694 25.5781 74.3166C24.5259 73.2644 22.8414 73.2644 21.7893 74.3166Z" fill="black"/>
<path d="M76.3147 26.2108C76.9462 26.2108 77.6834 26.0001 78.2091 25.4736L85.3667 18.316C86.4196 17.2631 86.4196 15.5793 85.3667 14.5265C84.3138 13.4737 82.63 13.4735 81.5772 14.5265L74.4196 21.6841C73.3666 22.737 73.3666 24.4208 74.4196 25.4736C74.9461 26.0001 75.5775 26.2108 76.3147 26.2108Z" fill="black"/>
</svg>
