<svg width="106" height="75" viewBox="0 0 106 75" fill="none" xmlns="http://www.w3.org/2000/svg">
<path d="M53 28V48" stroke="black" stroke-width="6" stroke-linecap="square"/>
<path d="M37 51V71" stroke="black" stroke-width="6" stroke-linecap="square"/>
<path d="M70 51V71" stroke="black" stroke-width="6" stroke-linecap="square"/>
<path d="M3 72H102.747" stroke="black" stroke-width="6" stroke-linecap="round"/>
<path d="M10 69V52C10 49.7909 11.7909 48 14 48H92.5C94.7091 48 96.5 49.7909 96.5 52V69" stroke="black" stroke-width="6" stroke-linecap="round"/>
<path d="M23 47V30C23 27.7909 24.7909 26 27 26H78C80.2091 26 82 27.7909 82 30V47" stroke="black" stroke-width="6" stroke-linecap="round"/>
<path d="M37 24V7C37 4.79086 38.7909 3 41 3H66C68.2091 3 70 4.79086 70 7V24" stroke="black" stroke-width="6" stroke-linecap="round"/>
</svg>
