<svg width="95" height="102" viewBox="0 0 95 102" fill="none" xmlns="http://www.w3.org/2000/svg">
<path d="M3.00073 3.00073L19.3212 10.4615C20.0387 10.7895 20.4964 11.5087 20.4896 12.2976L20.0007 69.5007" stroke="black" stroke-width="6" stroke-linecap="round"/>
<path d="M20.0007 67.0007V70.5007C20.0007 76.0236 24.4779 80.5007 30.0007 80.5007H35.5007H82.5007" stroke="black" stroke-width="6" stroke-linecap="round"/>
<path d="M92.0007 25.0007V51.5007C92.0007 55.3667 88.8667 58.5007 85.0007 58.5007H27.0007C23.1347 58.5007 20.0007 55.3667 20.0007 51.5007V48.5007" stroke="black" stroke-width="5.5" stroke-linecap="round"/>
<path d="M30.0007 89.5007C30.0007 94.4713 34.0302 98.5007 39.0007 98.5007C43.9713 98.5007 48.0007 94.4713 48.0007 89.5007C48.0007 84.5302 43.9713 80.5007 39.0007 80.5007C34.0302 80.5007 30.0007 84.5302 30.0007 89.5007Z" stroke="black" stroke-width="6" stroke-linecap="round"/>
<path d="M44.0007 29.0007L54.7517 41.154C55.1497 41.6039 55.8517 41.6039 56.2497 41.154L67.0007 29.0007" stroke="black" stroke-width="6" stroke-linecap="round"/>
<path d="M56.0007 3.00073V36.0007" stroke="black" stroke-width="6" stroke-linecap="round"/>
<path d="M73.0007 89.4507C73.0007 94.4213 77.0302 98.4507 82.0007 98.4507C86.9713 98.4507 91.0007 94.4213 91.0007 89.4507C91.0007 84.4802 86.9713 80.4507 82.0007 80.4507C77.0302 80.4507 73.0007 84.4802 73.0007 89.4507Z" stroke="black" stroke-width="6" stroke-linecap="round"/>
</svg>
