<svg width="100" height="100" viewBox="0 0 100 100" fill="none" xmlns="http://www.w3.org/2000/svg">
<path d="M28.0423 82.0833C31.459 78.4166 36.6673 78.7083 39.6673 82.7083L43.8756 88.3333C47.2506 92.7916 52.709 92.7916 56.084 88.3333L60.2923 82.7083C63.2923 78.7083 68.5006 78.4166 71.9173 82.0833C79.334 89.9999 85.3756 87.3749 85.3756 76.2916V29.3333C85.4173 12.5416 81.5006 8.33325 65.7506 8.33325H34.2507C18.5007 8.33325 14.584 12.5416 14.584 29.3333V76.2499C14.584 87.3749 20.6673 89.9583 28.0423 82.0833Z" stroke="black" stroke-width="6" stroke-linecap="round" stroke-linejoin="round"/>
<path d="M37.5 54.1668L62.5 29.1667" stroke="black" stroke-width="6" stroke-linecap="round" stroke-linejoin="round"/>
<path d="M62.4765 54.1666H62.5139" stroke="black" stroke-width="8" stroke-linecap="round" stroke-linejoin="round"/>
<path d="M37.4765 31.2501H37.5139" stroke="black" stroke-width="8" stroke-linecap="round" stroke-linejoin="round"/>
</svg>
