<svg width="100" height="100" viewBox="0 0 100 100" fill="none" xmlns="http://www.w3.org/2000/svg">
<path d="M49.998 3C75.9114 3 96.9979 24.0862 96.998 50V50.3027C96.8344 76.0775 75.8126 97 50 97C24.0864 97 3.00015 75.9138 3 50C3 49.9304 3.05547 49.875 3.125 49.875C3.19436 49.8751 3.24902 49.9306 3.24902 50C3.24917 75.7797 24.2185 96.7498 49.999 96.75C75.7788 96.75 96.7489 75.7808 96.749 50C96.749 24.22 75.7786 3.24902 49.999 3.24902C37.5749 3.24913 26.0271 8.08391 17.3525 16.6104L12.374 21.5029V3.125C12.374 3.05544 12.4295 3 12.499 3C12.5683 3.00021 12.623 3.0556 12.623 3.125V20.7939L17.6943 15.9541C26.3654 7.67975 37.7414 3.00008 49.998 3ZM49.9473 28.0088C49.98 27.9971 50.0202 27.9967 50.0557 28.0098L75.043 37.3799V37.3809C75.0924 37.3996 75.1258 37.4488 75.126 37.499V65.625C75.1258 65.6759 75.0919 65.7244 75.042 65.7432L50.0566 75.1133C50.0321 75.1224 50.0106 75.125 50 75.125C49.9895 75.125 49.9692 75.1219 49.9453 75.1133L24.957 65.7432H24.958C24.9079 65.7243 24.8752 65.6758 24.875 65.625V37.499C24.8751 37.4481 24.9072 37.3987 24.957 37.3799L49.9473 28.0088ZM70.8223 39.2012L52.0723 46.2324L50.126 46.9629V74.8193L54.1787 73.2988L72.9287 66.2666L74.875 65.5371V37.6816L70.8223 39.2012ZM48.9463 28.6543L32.8457 34.6904L25.3516 37.499L32.8457 40.3086L48.9463 46.3447L50 46.7393L51.0527 46.3447L67.1543 40.3086L74.6475 37.499L67.1543 34.6904L51.0527 28.6543L50 28.2598L48.9463 28.6543ZM31.249 21.75C31.3185 21.75 31.374 21.8054 31.374 21.875C31.3738 21.9443 31.3184 21.999 31.249 21.999H12.5C12.4306 21.999 12.3752 21.9444 12.375 21.875V21.75H31.249ZM49.875 46.9629L47.9287 46.2324L29.1787 39.2012L25.125 37.6816V65.5371L27.0723 66.2666L45.8213 73.2979L49.875 74.8184V46.9629Z" fill="black" stroke="black" stroke-width="6"/>
</svg>
