<svg width="100" height="100" viewBox="0 0 100 100" fill="none" xmlns="http://www.w3.org/2000/svg">
<mask id="path-1-inside-1_2541_72" fill="white">
<path fill-rule="evenodd" clip-rule="evenodd" d="M10.8507 68.462L31.5406 89.1519C32.2133 89.8239 33.3063 89.8239 33.979 89.1519C34.651 88.4792 34.651 87.3862 33.979 86.7135L13.2891 66.0235C12.6164 65.3516 11.5234 65.3516 10.8507 66.0235C10.1787 66.6963 10.1787 67.7893 10.8507 68.462Z"/>
</mask>
<path fill-rule="evenodd" clip-rule="evenodd" d="M10.8507 68.462L31.5406 89.1519C32.2133 89.8239 33.3063 89.8239 33.979 89.1519C34.651 88.4792 34.651 87.3862 33.979 86.7135L13.2891 66.0235C12.6164 65.3516 11.5234 65.3516 10.8507 66.0235C10.1787 66.6963 10.1787 67.7893 10.8507 68.462Z" fill="black"/>
<path d="M10.8507 68.462L6.60559 72.7022L6.60802 72.7046L10.8507 68.462ZM31.5406 89.1519L27.2979 93.3946L27.3004 93.397L31.5406 89.1519ZM33.979 89.1519L38.2193 93.397L38.2241 93.3921L33.979 89.1519ZM33.979 86.7135L38.2241 82.4732L38.2217 82.4708L33.979 86.7135ZM13.2891 66.0235L17.5318 61.7809L17.5293 61.7785L13.2891 66.0235ZM10.8507 66.0235L6.61044 61.7785L6.60559 61.7833L10.8507 66.0235ZM10.8507 68.462L6.60802 72.7046L27.2979 93.3946L31.5406 89.1519L35.7832 84.9093L15.0933 64.2194L10.8507 68.462ZM31.5406 89.1519L27.3004 93.397C30.3157 96.4089 35.2039 96.4089 38.2193 93.397L33.979 89.1519L29.7388 84.9069C31.4087 83.2389 34.1109 83.2389 35.7808 84.9069L31.5406 89.1519ZM33.979 89.1519L38.2241 93.3921C41.236 90.3768 41.236 85.4886 38.2241 82.4732L33.979 86.7135L29.734 90.9537C28.066 89.2838 28.066 86.5816 29.734 84.9117L33.979 89.1519ZM33.979 86.7135L38.2217 82.4708L17.5318 61.7809L13.2891 66.0235L9.04647 70.2662L29.7364 90.9561L33.979 86.7135ZM13.2891 66.0235L17.5293 61.7785C14.514 58.7666 9.62577 58.7666 6.61044 61.7785L10.8507 66.0235L15.0909 70.2686C13.421 71.9365 10.7187 71.9365 9.0489 70.2686L13.2891 66.0235ZM10.8507 66.0235L6.60559 61.7833C3.59371 64.7987 3.59371 69.6869 6.60559 72.7022L10.8507 68.462L15.0957 64.2218C16.7637 65.8916 16.7637 68.5939 15.0957 70.2638L10.8507 66.0235Z" fill="black" mask="url(#path-1-inside-1_2541_72)"/>
<mask id="path-3-inside-2_2541_72" fill="white">
<path fill-rule="evenodd" clip-rule="evenodd" d="M68.5468 10.345L65.7773 13.1158C60.9274 17.9658 54.3478 20.6899 47.4896 20.6899H32.7579C29.9031 20.6899 27.5854 23.0076 27.5854 25.8624C27.5854 28.7172 29.9031 31.0349 32.7579 31.0349H47.4896C57.0924 31.0349 66.3014 27.221 73.0919 20.4298L75.8627 17.6603V18.9658C75.8627 21.8206 78.1804 24.1383 81.0352 24.1383C83.89 24.1383 86.2077 21.8206 86.2077 18.9658V5.17248C86.2077 2.3153 83.8924 0 81.0352 0H67.2419C64.3871 0 62.0695 2.31767 62.0695 5.17248C62.0695 8.0273 64.3871 10.345 67.2419 10.345H68.5468ZM73.9293 9.84003C74.4227 9.34665 74.569 8.60541 74.3019 7.96038C74.0363 7.31767 73.4067 6.89664 72.7101 6.89664H67.2413C66.2899 6.89664 65.5171 6.12384 65.5171 5.17248C65.5171 4.22112 66.2899 3.44832 67.2413 3.44832H81.0345C81.9859 3.44832 82.7587 4.22112 82.7587 5.17248V18.9658C82.7587 19.9171 81.9859 20.6899 81.0345 20.6899C80.0832 20.6899 79.3104 19.9171 79.3104 18.9658V13.4969C79.3104 12.8003 78.8893 12.1707 78.2466 11.9052C77.6016 11.6381 76.8604 11.7843 76.367 12.2777L70.6534 17.9913C64.5103 24.1352 56.1774 27.5865 47.4905 27.5865H32.7589C31.8076 27.5865 31.0348 26.8137 31.0348 25.8623C31.0348 24.911 31.8076 24.1382 32.7589 24.1382H47.4905C55.2646 24.1382 62.7193 21.05 68.2159 15.5536L73.9295 9.84003H73.9293Z"/>
</mask>
<path fill-rule="evenodd" clip-rule="evenodd" d="M68.5468 10.345L65.7773 13.1158C60.9274 17.9658 54.3478 20.6899 47.4896 20.6899H32.7579C29.9031 20.6899 27.5854 23.0076 27.5854 25.8624C27.5854 28.7172 29.9031 31.0349 32.7579 31.0349H47.4896C57.0924 31.0349 66.3014 27.221 73.0919 20.4298L75.8627 17.6603V18.9658C75.8627 21.8206 78.1804 24.1383 81.0352 24.1383C83.89 24.1383 86.2077 21.8206 86.2077 18.9658V5.17248C86.2077 2.3153 83.8924 0 81.0352 0H67.2419C64.3871 0 62.0695 2.31767 62.0695 5.17248C62.0695 8.0273 64.3871 10.345 67.2419 10.345H68.5468ZM73.9293 9.84003C74.4227 9.34665 74.569 8.60541 74.3019 7.96038C74.0363 7.31767 73.4067 6.89664 72.7101 6.89664H67.2413C66.2899 6.89664 65.5171 6.12384 65.5171 5.17248C65.5171 4.22112 66.2899 3.44832 67.2413 3.44832H81.0345C81.9859 3.44832 82.7587 4.22112 82.7587 5.17248V18.9658C82.7587 19.9171 81.9859 20.6899 81.0345 20.6899C80.0832 20.6899 79.3104 19.9171 79.3104 18.9658V13.4969C79.3104 12.8003 78.8893 12.1707 78.2466 11.9052C77.6016 11.6381 76.8604 11.7843 76.367 12.2777L70.6534 17.9913C64.5103 24.1352 56.1774 27.5865 47.4905 27.5865H32.7589C31.8076 27.5865 31.0348 26.8137 31.0348 25.8623C31.0348 24.911 31.8076 24.1382 32.7589 24.1382H47.4905C55.2646 24.1382 62.7193 21.05 68.2159 15.5536L73.9295 9.84003H73.9293Z" fill="black"/>
<path d="M68.5468 10.345L72.7905 14.5865L83.027 4.34496L68.5468 4.34496V10.345ZM65.7773 13.1158L70.0199 17.3585L70.021 17.3574L65.7773 13.1158ZM73.0919 20.4298L68.8503 16.1861L68.849 16.1874L73.0919 20.4298ZM75.8627 17.6603H81.8627V3.18014L71.6212 13.4166L75.8627 17.6603ZM73.9293 9.84003L69.6867 5.59739L59.444 15.84H73.9293V9.84003ZM74.3019 7.96038L68.7566 10.2516L68.7583 10.2559L74.3019 7.96038ZM78.2466 11.9052L75.9511 17.4487L75.9555 17.4505L78.2466 11.9052ZM76.367 12.2777L72.1244 8.03504L72.1243 8.03506L76.367 12.2777ZM70.6534 17.9913L66.4108 13.7486L66.4105 13.7489L70.6534 17.9913ZM68.2159 15.5536L72.4585 19.7963L72.4586 19.7962L68.2159 15.5536ZM73.9295 9.84003L78.1722 14.0827L88.4148 3.84003L73.9295 3.84003V9.84003ZM68.5468 10.345L64.3031 6.10338L61.5336 8.87425L65.7773 13.1158L70.021 17.3574L72.7905 14.5865L68.5468 10.345ZM65.7773 13.1158L61.5346 8.8732C57.8104 12.5975 52.7571 14.6899 47.4896 14.6899V20.6899V26.6899C55.9384 26.6899 64.0443 23.3341 70.0199 17.3585L65.7773 13.1158ZM47.4896 20.6899V14.6899H32.7579V20.6899V26.6899H47.4896V20.6899ZM32.7579 20.6899V14.6899C26.5894 14.6899 21.5854 19.6939 21.5854 25.8624H27.5854H33.5854C33.5854 26.3213 33.2168 26.6899 32.7579 26.6899V20.6899ZM27.5854 25.8624H21.5854C21.5854 32.0309 26.5894 37.0349 32.7579 37.0349V31.0349V25.0349C33.2168 25.0349 33.5854 25.4035 33.5854 25.8624H27.5854ZM32.7579 31.0349V37.0349H47.4896V31.0349V25.0349H32.7579V31.0349ZM47.4896 31.0349V37.0349C58.6835 37.0349 69.4188 32.5891 77.3348 24.6722L73.0919 20.4298L68.849 16.1874C63.184 21.853 55.5014 25.0349 47.4896 25.0349V31.0349ZM73.0919 20.4298L77.3335 24.6735L80.1043 21.904L75.8627 17.6603L71.6212 13.4166L68.8503 16.1861L73.0919 20.4298ZM75.8627 17.6603H69.8627V18.9658H75.8627H81.8627V17.6603H75.8627ZM75.8627 18.9658H69.8627C69.8627 25.1343 74.8667 30.1383 81.0352 30.1383V24.1383V18.1383C81.4941 18.1383 81.8627 18.5069 81.8627 18.9658H75.8627ZM81.0352 24.1383V30.1383C87.2037 30.1383 92.2077 25.1343 92.2077 18.9658H86.2077H80.2077C80.2077 18.5069 80.5763 18.1383 81.0352 18.1383V24.1383ZM86.2077 18.9658H92.2077V5.17248H86.2077H80.2077V18.9658H86.2077ZM86.2077 5.17248H92.2077C92.2077 -0.998407 87.2061 -6 81.0352 -6V0V6C80.5787 6 80.2077 5.62901 80.2077 5.17248H86.2077ZM81.0352 0V-6H67.2419V0V6H81.0352V0ZM67.2419 0V-6C61.0734 -6 56.0695 -0.996043 56.0695 5.17248H62.0695H68.0695C68.0695 5.63138 67.7008 6 67.2419 6V0ZM62.0695 5.17248H56.0695C56.0695 11.341 61.0734 16.345 67.2419 16.345V10.345V4.34496C67.7008 4.34496 68.0695 4.71359 68.0695 5.17248H62.0695ZM67.2419 10.345V16.345H68.5468V10.345V4.34496H67.2419V10.345ZM73.9293 9.84003L78.172 14.0827C80.3879 11.8667 81.0372 8.54306 79.8454 5.6649L74.3019 7.96038L68.7583 10.2559C68.1007 8.66777 68.4575 6.82655 69.6867 5.59739L73.9293 9.84003ZM74.3019 7.96038L79.8471 5.66913C78.6531 2.77925 75.8326 0.896643 72.7101 0.896643V6.89664V12.8966C70.9807 12.8966 69.4195 11.8561 68.7566 10.2516L74.3019 7.96038ZM72.7101 6.89664V0.896643H67.2413V6.89664V12.8966H72.7101V6.89664ZM67.2413 6.89664V0.896643C69.6036 0.896643 71.5171 2.81014 71.5171 5.17248H65.5171H59.5171C59.5171 9.43755 62.9762 12.8966 67.2413 12.8966V6.89664ZM65.5171 5.17248H71.5171C71.5171 7.53483 69.6036 9.44832 67.2413 9.44832V3.44832V-2.55168C62.9762 -2.55168 59.5171 0.907411 59.5171 5.17248H65.5171ZM67.2413 3.44832V9.44832H81.0345V3.44832V-2.55168H67.2413V3.44832ZM81.0345 3.44832V9.44832C78.6722 9.44832 76.7587 7.53483 76.7587 5.17248H82.7587H88.7587C88.7587 0.907411 85.2996 -2.55168 81.0345 -2.55168V3.44832ZM82.7587 5.17248H76.7587V18.9658H82.7587H88.7587V5.17248H82.7587ZM82.7587 18.9658H76.7587C76.7587 16.6034 78.6722 14.6899 81.0345 14.6899V20.6899V26.6899C85.2996 26.6899 88.7587 23.2308 88.7587 18.9658H82.7587ZM81.0345 20.6899V14.6899C83.3969 14.6899 85.3104 16.6034 85.3104 18.9658H79.3104H73.3104C73.3104 23.2308 76.7695 26.6899 81.0345 26.6899V20.6899ZM79.3104 18.9658H85.3104V13.4969H79.3104H73.3104V18.9658H79.3104ZM79.3104 13.4969H85.3104C85.3104 10.3745 83.4278 7.55389 80.5377 6.35982L78.2466 11.9052L75.9555 17.4505C74.3508 16.7875 73.3104 15.2262 73.3104 13.4969H79.3104ZM78.2466 11.9052L80.5422 6.36165C77.664 5.1698 74.3403 5.81917 72.1244 8.03504L76.367 12.2777L80.6096 16.5204C79.3805 17.7495 77.5393 18.1063 75.9511 17.4487L78.2466 11.9052ZM76.367 12.2777L72.1243 8.03506L66.4108 13.7486L70.6534 17.9913L74.8961 22.2339L80.6096 16.5203L76.367 12.2777ZM70.6534 17.9913L66.4105 13.7489C61.3927 18.7673 54.5861 21.5865 47.4905 21.5865V27.5865V33.5865C57.7686 33.5865 67.6278 29.5031 74.8963 22.2336L70.6534 17.9913ZM47.4905 27.5865V21.5865H32.7589V27.5865V33.5865H47.4905V27.5865ZM32.7589 27.5865V21.5865C35.1213 21.5865 37.0348 23.5 37.0348 25.8623H31.0348H25.0348C25.0348 30.1274 28.4938 33.5865 32.7589 33.5865V27.5865ZM31.0348 25.8623H37.0348C37.0348 28.2247 35.1213 30.1382 32.7589 30.1382V24.1382V18.1382C28.4938 18.1382 25.0348 21.5972 25.0348 25.8623H31.0348ZM32.7589 24.1382V30.1382H47.4905V24.1382V18.1382H32.7589V24.1382ZM47.4905 24.1382V30.1382C56.856 30.1382 65.8367 26.4179 72.4585 19.7963L68.2159 15.5536L63.9734 11.3109C59.6019 15.6822 53.6733 18.1382 47.4905 18.1382V24.1382ZM68.2159 15.5536L72.4586 19.7962L78.1722 14.0827L73.9295 9.84003L69.6869 5.59739L63.9733 11.311L68.2159 15.5536ZM73.9295 9.84003V3.84003H73.9293V9.84003V15.84H73.9295V9.84003Z" fill="black" mask="url(#path-3-inside-2_2541_72)"/>
<mask id="path-5-inside-3_2541_72" fill="white">
<path fill-rule="evenodd" clip-rule="evenodd" d="M68.9662 50.0007V32.7591C68.9662 31.3867 69.5112 30.0712 70.4818 29.1021C71.4509 28.1315 72.7664 27.5865 74.1388 27.5865H81.0354C82.4078 27.5865 83.7233 28.1315 84.6924 29.1021C85.663 30.0712 86.208 31.3866 86.208 32.7591V43.1025C89.584 40.5663 94.4047 40.8333 97.4773 43.9037C100.841 47.2697 100.841 52.7316 97.4773 56.0976L76.7874 76.7875C75.1702 78.4031 72.9765 79.3115 70.6905 79.3115H45.9612C44.5888 79.3115 43.2732 79.8564 42.3042 80.8271L41.0834 82.0463L43.3124 84.2753C45.3329 86.2942 45.3329 89.5701 43.3124 91.5891L36.4158 98.4857C34.3968 100.506 31.1209 100.506 29.102 98.4857L1.51539 70.8991C-0.50513 68.8802 -0.50513 65.6043 1.51539 63.5854L8.41203 56.6887C10.431 54.6682 13.7069 54.6682 15.7258 56.6887L16.9066 57.8695L27.5863 48.716V39.6558C27.5863 36.7986 29.9016 34.4833 32.7588 34.4833H39.6554C42.5126 34.4833 44.8279 36.7986 44.8279 39.6558V45.6504C45.4968 45.8767 46.1503 46.1491 46.7868 46.4663L48.2762 47.2113V39.6558C48.2762 36.7986 50.5915 34.4833 53.4487 34.4833H60.3454C63.2025 34.4833 65.5178 36.7986 65.5178 39.6558V48.4506C66.7663 48.7061 67.9439 49.2333 68.9662 50.0007ZM3.95256 66.023L10.8492 59.1263C11.5219 58.452 12.6149 58.452 13.2877 59.1263L40.8742 86.7129C41.5485 87.3856 41.5485 88.4786 40.8742 89.1514L33.9776 96.048C33.3049 96.7223 32.2119 96.7223 31.5391 96.048L3.95256 68.4614C3.27829 67.7887 3.27829 66.6957 3.95256 66.023ZM38.6446 79.6076L19.3534 60.3147L30.0069 51.1836C32.1951 49.3078 34.9792 48.2779 37.8602 48.2779H39.8484C41.7211 48.2779 43.5692 48.7143 45.2449 49.5502C46.1178 49.9867 47.0384 50.447 47.7742 50.8141C48.9711 51.413 50.2897 51.7247 51.6283 51.7247H63.7935C65.1659 51.7247 66.4815 52.2696 67.4505 53.2403C68.4212 54.2093 68.9661 55.5248 68.9661 56.8972C68.9661 59.7544 66.6508 62.0697 63.7952 62.0697H43.1033C42.1519 62.0697 41.3791 62.8425 41.3791 63.7939C41.3791 64.7453 42.1519 65.5181 43.1033 65.5181H67.8327C68.2899 65.5181 68.7294 65.3372 69.0519 65.0131L87.7229 46.3437C89.7403 44.3248 93.0193 44.3248 95.0367 46.3437C97.0556 48.3611 97.0556 51.6401 95.0367 53.6575L74.3468 74.3474C73.3777 75.318 72.0622 75.863 70.6898 75.863H45.9604C43.6737 75.863 41.4807 76.7713 39.8636 78.387L38.6446 79.6076ZM82.7595 46.4288L72.4146 56.7738V32.7577C72.4146 32.3005 72.5954 31.861 72.9195 31.5385C73.242 31.2144 73.6815 31.0335 74.1387 31.0335H81.0354C81.4926 31.0335 81.9321 31.2144 82.2546 31.5385C82.5786 31.861 82.7595 32.3005 82.7595 32.7577V46.4288ZM62.0696 48.2754H51.7246V39.6546C51.7246 38.7032 52.4974 37.9304 53.4488 37.9304H60.3454C61.2968 37.9304 62.0696 38.7032 62.0696 39.6546V48.2754ZM41.3797 44.9049V39.6546C41.3797 38.7032 40.6069 37.9304 39.6555 37.9304H32.7589C31.8075 37.9304 31.0347 38.7032 31.0347 39.6546V46.4119C33.1453 45.3774 35.4775 44.8286 37.8606 44.8286H39.8488C40.3607 44.8286 40.8724 44.8548 41.3797 44.9049Z"/>
</mask>
<path fill-rule="evenodd" clip-rule="evenodd" d="M68.9662 50.0007V32.7591C68.9662 31.3867 69.5112 30.0712 70.4818 29.1021C71.4509 28.1315 72.7664 27.5865 74.1388 27.5865H81.0354C82.4078 27.5865 83.7233 28.1315 84.6924 29.1021C85.663 30.0712 86.208 31.3866 86.208 32.7591V43.1025C89.584 40.5663 94.4047 40.8333 97.4773 43.9037C100.841 47.2697 100.841 52.7316 97.4773 56.0976L76.7874 76.7875C75.1702 78.4031 72.9765 79.3115 70.6905 79.3115H45.9612C44.5888 79.3115 43.2732 79.8564 42.3042 80.8271L41.0834 82.0463L43.3124 84.2753C45.3329 86.2942 45.3329 89.5701 43.3124 91.5891L36.4158 98.4857C34.3968 100.506 31.1209 100.506 29.102 98.4857L1.51539 70.8991C-0.50513 68.8802 -0.50513 65.6043 1.51539 63.5854L8.41203 56.6887C10.431 54.6682 13.7069 54.6682 15.7258 56.6887L16.9066 57.8695L27.5863 48.716V39.6558C27.5863 36.7986 29.9016 34.4833 32.7588 34.4833H39.6554C42.5126 34.4833 44.8279 36.7986 44.8279 39.6558V45.6504C45.4968 45.8767 46.1503 46.1491 46.7868 46.4663L48.2762 47.2113V39.6558C48.2762 36.7986 50.5915 34.4833 53.4487 34.4833H60.3454C63.2025 34.4833 65.5178 36.7986 65.5178 39.6558V48.4506C66.7663 48.7061 67.9439 49.2333 68.9662 50.0007ZM3.95256 66.023L10.8492 59.1263C11.5219 58.452 12.6149 58.452 13.2877 59.1263L40.8742 86.7129C41.5485 87.3856 41.5485 88.4786 40.8742 89.1514L33.9776 96.048C33.3049 96.7223 32.2119 96.7223 31.5391 96.048L3.95256 68.4614C3.27829 67.7887 3.27829 66.6957 3.95256 66.023ZM38.6446 79.6076L19.3534 60.3147L30.0069 51.1836C32.1951 49.3078 34.9792 48.2779 37.8602 48.2779H39.8484C41.7211 48.2779 43.5692 48.7143 45.2449 49.5502C46.1178 49.9867 47.0384 50.447 47.7742 50.8141C48.9711 51.413 50.2897 51.7247 51.6283 51.7247H63.7935C65.1659 51.7247 66.4815 52.2696 67.4505 53.2403C68.4212 54.2093 68.9661 55.5248 68.9661 56.8972C68.9661 59.7544 66.6508 62.0697 63.7952 62.0697H43.1033C42.1519 62.0697 41.3791 62.8425 41.3791 63.7939C41.3791 64.7453 42.1519 65.5181 43.1033 65.5181H67.8327C68.2899 65.5181 68.7294 65.3372 69.0519 65.0131L87.7229 46.3437C89.7403 44.3248 93.0193 44.3248 95.0367 46.3437C97.0556 48.3611 97.0556 51.6401 95.0367 53.6575L74.3468 74.3474C73.3777 75.318 72.0622 75.863 70.6898 75.863H45.9604C43.6737 75.863 41.4807 76.7713 39.8636 78.387L38.6446 79.6076ZM82.7595 46.4288L72.4146 56.7738V32.7577C72.4146 32.3005 72.5954 31.861 72.9195 31.5385C73.242 31.2144 73.6815 31.0335 74.1387 31.0335H81.0354C81.4926 31.0335 81.9321 31.2144 82.2546 31.5385C82.5786 31.861 82.7595 32.3005 82.7595 32.7577V46.4288ZM62.0696 48.2754H51.7246V39.6546C51.7246 38.7032 52.4974 37.9304 53.4488 37.9304H60.3454C61.2968 37.9304 62.0696 38.7032 62.0696 39.6546V48.2754ZM41.3797 44.9049V39.6546C41.3797 38.7032 40.6069 37.9304 39.6555 37.9304H32.7589C31.8075 37.9304 31.0347 38.7032 31.0347 39.6546V46.4119C33.1453 45.3774 35.4775 44.8286 37.8606 44.8286H39.8488C40.3607 44.8286 40.8724 44.8548 41.3797 44.9049Z" fill="black"/>
<path d="M68.9662 50.0007L65.3642 54.7991L74.9662 62.0072V50.0007H68.9662ZM70.4818 29.1021L74.7211 33.3481L74.7278 33.3414L70.4818 29.1021ZM84.6924 29.1021L80.4464 33.3414L80.4531 33.3481L84.6924 29.1021ZM86.208 43.1025H80.208V55.1144L89.8118 47.8996L86.208 43.1025ZM97.4773 43.9037L101.721 39.6626L101.718 39.6597L97.4773 43.9037ZM97.4773 56.0976L101.72 60.3402L101.721 60.3387L97.4773 56.0976ZM76.7874 76.7875L81.028 81.0322L81.03 81.0302L76.7874 76.7875ZM42.3042 80.8271L46.5441 85.0724L46.5502 85.0663L42.3042 80.8271ZM41.0834 82.0463L36.8434 77.801L32.5954 82.0436L36.8408 86.2889L41.0834 82.0463ZM43.3124 84.2753L39.0698 88.5179L39.0714 88.5196L43.3124 84.2753ZM43.3124 91.5891L39.0714 87.3448L39.0698 87.3464L43.3124 91.5891ZM36.4158 98.4857L32.1731 94.2431L32.1715 94.2447L36.4158 98.4857ZM29.102 98.4857L33.3463 94.2447L33.3446 94.2431L29.102 98.4857ZM1.51539 70.8991L5.75803 66.6565L5.75637 66.6548L1.51539 70.8991ZM1.51539 63.5854L5.75637 67.8297L5.75803 67.828L1.51539 63.5854ZM8.41203 56.6887L12.6547 60.9314L12.6563 60.9297L8.41203 56.6887ZM15.7258 56.6887L11.4815 60.9297L11.4832 60.9314L15.7258 56.6887ZM16.9066 57.8695L12.6639 62.1121L16.5926 66.0408L20.8112 62.4251L16.9066 57.8695ZM27.5863 48.716L31.4909 53.2717L33.5863 51.4758V48.716H27.5863ZM44.8279 45.6504H38.8279V49.9546L42.9051 51.3339L44.8279 45.6504ZM46.7868 46.4663L49.4712 41.1002L49.4623 41.0958L46.7868 46.4663ZM48.2762 47.2113L45.5919 52.5774L54.2762 56.9217V47.2113H48.2762ZM65.5178 48.4506H59.5178V53.3468L64.3147 54.3287L65.5178 48.4506ZM3.95256 66.023L8.19036 70.2704L8.19521 70.2656L3.95256 66.023ZM10.8492 59.1263L15.0919 63.369L15.0967 63.3641L10.8492 59.1263ZM13.2877 59.1263L9.04018 63.3641L9.04502 63.369L13.2877 59.1263ZM40.8742 86.7129L36.6316 90.9555L36.6364 90.9604L40.8742 86.7129ZM40.8742 89.1514L36.6364 84.9039L36.6316 84.9087L40.8742 89.1514ZM33.9776 96.048L29.7349 91.8054L29.7301 91.8102L33.9776 96.048ZM31.5391 96.048L35.7866 91.8102L35.7818 91.8054L31.5391 96.048ZM3.95256 68.4614L8.19521 64.2188L8.19036 64.2139L3.95256 68.4614ZM38.6446 79.6076L34.4018 83.85L38.6474 88.096L42.8902 83.8473L38.6446 79.6076ZM19.3534 60.3147L15.4487 55.7591L10.5293 59.9755L15.1105 64.5572L19.3534 60.3147ZM30.0069 51.1836L33.9115 55.7392L33.9119 55.7389L30.0069 51.1836ZM45.2449 49.5502L47.9282 44.1836L47.9233 44.1812L45.2449 49.5502ZM47.7742 50.8141L50.4589 45.4483L50.453 45.4453L47.7742 50.8141ZM67.4505 53.2403L63.2045 57.4795L63.2113 57.4863L67.4505 53.2403ZM69.0519 65.0131L64.8095 60.7703L64.8043 60.7755L64.7992 60.7806L69.0519 65.0131ZM87.7229 46.3437L91.9654 50.5865L91.9672 50.5847L87.7229 46.3437ZM95.0367 46.3437L90.7924 50.5847L90.7957 50.588L95.0367 46.3437ZM95.0367 53.6575L90.7957 49.4132L90.7941 49.4149L95.0367 53.6575ZM74.3468 74.3474L70.1041 70.1048L70.1008 70.1082L74.3468 74.3474ZM39.8636 78.387L35.6228 74.1424L35.618 74.1473L39.8636 78.387ZM82.7595 46.4288L87.0022 50.6715L88.7595 48.9141V46.4288H82.7595ZM72.4146 56.7738H66.4146V71.2591L76.6572 61.0164L72.4146 56.7738ZM72.9195 31.5385L77.152 35.7912L77.1621 35.7811L77.1722 35.771L72.9195 31.5385ZM82.2546 31.5385L78.0018 35.771L78.0119 35.7811L78.022 35.7912L82.2546 31.5385ZM62.0696 48.2754V54.2754H68.0696V48.2754H62.0696ZM51.7246 48.2754H45.7246V54.2754H51.7246V48.2754ZM41.3797 44.9049L40.7907 50.8759L47.3797 51.5258V44.9049H41.3797ZM31.0347 46.4119H25.0347V56.0348L33.6754 51.7995L31.0347 46.4119ZM68.9662 50.0007H74.9662V32.7591H68.9662H62.9662V50.0007H68.9662ZM68.9662 32.7591H74.9662C74.9662 32.9774 74.8793 33.1901 74.7211 33.3481L70.4818 29.1021L66.2425 24.8561C64.1431 26.9522 62.9662 29.7959 62.9662 32.7591H68.9662ZM70.4818 29.1021L74.7278 33.3414C74.5699 33.4996 74.3571 33.5865 74.1388 33.5865V27.5865V21.5865C71.1756 21.5865 68.3319 22.7634 66.2358 24.8628L70.4818 29.1021ZM74.1388 27.5865V33.5865H81.0354V27.5865V21.5865H74.1388V27.5865ZM81.0354 27.5865V33.5865C80.8171 33.5865 80.6044 33.4996 80.4464 33.3414L84.6924 29.1021L88.9384 24.8628C86.8423 22.7634 83.9986 21.5865 81.0354 21.5865V27.5865ZM84.6924 29.1021L80.4531 33.3481C80.295 33.1901 80.208 32.9774 80.208 32.7591H86.208H92.208C92.208 29.7959 91.0311 26.9522 88.9317 24.8561L84.6924 29.1021ZM86.208 32.7591H80.208V43.1025H86.208H92.208V32.7591H86.208ZM86.208 43.1025L89.8118 47.8996C90.8344 47.1314 92.3069 47.2192 93.2361 48.1478L97.4773 43.9037L101.718 39.6597C96.5026 34.4473 88.3336 34.0011 82.6042 38.3053L86.208 43.1025ZM97.4773 43.9037L93.2332 48.1449C94.2556 49.168 94.2556 50.8333 93.2332 51.8564L97.4773 56.0976L101.721 60.3387C107.426 54.63 107.426 45.3713 101.721 39.6626L97.4773 43.9037ZM97.4773 56.0976L93.2347 51.855L72.5447 72.5449L76.7874 76.7875L81.03 81.0302L101.72 60.3402L97.4773 56.0976ZM76.7874 76.7875L72.5468 72.5429C72.0543 73.0349 71.3857 73.3115 70.6905 73.3115V79.3115V85.3115C74.5673 85.3115 78.2861 83.7714 81.028 81.0322L76.7874 76.7875ZM70.6905 79.3115V73.3115H45.9612V79.3115V85.3115H70.6905V79.3115ZM45.9612 79.3115V73.3115C42.998 73.3115 40.1543 74.4884 38.0582 76.5878L42.3042 80.8271L46.5502 85.0663C46.3922 85.2245 46.1795 85.3115 45.9612 85.3115V79.3115ZM42.3042 80.8271L38.0642 76.5817L36.8434 77.801L41.0834 82.0463L45.3234 86.2916L46.5441 85.0724L42.3042 80.8271ZM41.0834 82.0463L36.8408 86.2889L39.0698 88.5179L43.3124 84.2753L47.555 80.0326L45.326 77.8036L41.0834 82.0463ZM43.3124 84.2753L39.0714 88.5196C38.7466 88.195 38.7466 87.6694 39.0714 87.3448L43.3124 91.5891L47.5534 95.8334C51.9193 91.4709 51.9193 84.3935 47.5534 80.031L43.3124 84.2753ZM43.3124 91.5891L39.0698 87.3464L32.1731 94.2431L36.4158 98.4857L40.6584 102.728L47.555 95.8317L43.3124 91.5891ZM36.4158 98.4857L32.1715 94.2447C32.496 93.9199 33.0217 93.9199 33.3463 94.2447L29.102 98.4857L24.8577 102.727C29.2201 107.093 36.2976 107.093 40.66 102.727L36.4158 98.4857ZM29.102 98.4857L33.3446 94.2431L5.75803 66.6565L1.51539 70.8991L-2.72725 75.1418L24.8593 102.728L29.102 98.4857ZM1.51539 70.8991L5.75637 66.6548C6.08121 66.9794 6.08121 67.5051 5.75637 67.8297L1.51539 63.5854L-2.7256 59.3411C-7.09147 63.7035 -7.09147 70.781 -2.7256 75.1434L1.51539 70.8991ZM1.51539 63.5854L5.75803 67.828L12.6547 60.9314L8.41203 56.6887L4.16939 52.4461L-2.72725 59.3427L1.51539 63.5854ZM8.41203 56.6887L12.6563 60.9297C12.3317 61.2545 11.8061 61.2545 11.4815 60.9297L15.7258 56.6887L19.9701 52.4477C15.6077 48.0819 8.5302 48.0819 4.16774 52.4477L8.41203 56.6887ZM15.7258 56.6887L11.4832 60.9314L12.6639 62.1121L16.9066 57.8695L21.1492 53.6268L19.9685 52.4461L15.7258 56.6887ZM16.9066 57.8695L20.8112 62.4251L31.4909 53.2717L27.5863 48.716L23.6817 44.1604L13.002 53.3138L16.9066 57.8695ZM27.5863 48.716H33.5863V39.6558H27.5863H21.5863V48.716H27.5863ZM27.5863 39.6558H33.5863C33.5863 40.1123 33.2153 40.4833 32.7588 40.4833V34.4833V28.4833C26.5879 28.4833 21.5863 33.4849 21.5863 39.6558H27.5863ZM32.7588 34.4833V40.4833H39.6554V34.4833V28.4833H32.7588V34.4833ZM39.6554 34.4833V40.4833C39.1989 40.4833 38.8279 40.1123 38.8279 39.6558H44.8279H50.8279C50.8279 33.4849 45.8263 28.4833 39.6554 28.4833V34.4833ZM44.8279 39.6558H38.8279V45.6504H44.8279H50.8279V39.6558H44.8279ZM44.8279 45.6504L42.9051 51.3339C43.3122 51.4717 43.7144 51.639 44.1113 51.8367L46.7868 46.4663L49.4623 41.0958C48.5862 40.6593 47.6814 40.2817 46.7507 39.9668L44.8279 45.6504ZM46.7868 46.4663L44.1025 51.8323L45.5919 52.5774L48.2762 47.2113L50.9606 41.8453L49.4712 41.1002L46.7868 46.4663ZM48.2762 47.2113H54.2762V39.6558H48.2762H42.2762V47.2113H48.2762ZM48.2762 39.6558H54.2762C54.2762 40.1123 53.9053 40.4833 53.4487 40.4833V34.4833V28.4833C47.2778 28.4833 42.2762 33.4849 42.2762 39.6558H48.2762ZM53.4487 34.4833V40.4833H60.3454V34.4833V28.4833H53.4487V34.4833ZM60.3454 34.4833V40.4833C59.8888 40.4833 59.5178 40.1123 59.5178 39.6558H65.5178H71.5178C71.5178 33.4849 66.5163 28.4833 60.3454 28.4833V34.4833ZM65.5178 39.6558H59.5178V48.4506H65.5178H71.5178V39.6558H65.5178ZM65.5178 48.4506L64.3147 54.3287C64.7004 54.4077 65.0574 54.5689 65.3642 54.7991L68.9662 50.0007L72.5683 45.2022C70.8305 43.8977 68.8322 43.0046 66.721 42.5725L65.5178 48.4506ZM3.95256 66.023L8.19521 70.2656L15.0918 63.369L10.8492 59.1263L6.60657 54.8837L-0.290076 61.7803L3.95256 66.023ZM10.8492 59.1263L15.0967 63.3641C13.4252 65.0395 10.7117 65.0395 9.04018 63.3641L13.2877 59.1263L17.5351 54.8885C14.5182 51.8646 9.61871 51.8646 6.60173 54.8885L10.8492 59.1263ZM13.2877 59.1263L9.04502 63.369L36.6316 90.9555L40.8742 86.7129L45.1169 82.4703L17.5303 54.8837L13.2877 59.1263ZM40.8742 86.7129L36.6364 90.9604C34.9611 89.2889 34.9611 86.5754 36.6364 84.9039L40.8742 89.1514L45.112 93.3988C48.1359 90.3818 48.1359 85.4824 45.112 82.4654L40.8742 86.7129ZM40.8742 89.1514L36.6316 84.9087L29.735 91.8054L33.9776 96.048L38.2202 100.291L45.1169 93.394L40.8742 89.1514ZM33.9776 96.048L29.7301 91.8102C31.4016 90.1349 34.1151 90.1349 35.7866 91.8102L31.5391 96.048L27.2917 100.286C30.3086 103.31 35.2081 103.31 38.2251 100.286L33.9776 96.048ZM31.5391 96.048L35.7818 91.8054L8.19521 64.2188L3.95256 68.4614L-0.290076 72.7041L27.2965 100.291L31.5391 96.048ZM3.95256 68.4614L8.19036 64.2139C9.86569 65.8855 9.86569 68.5989 8.19036 70.2704L3.95256 66.023L-0.285232 61.7755C-3.30911 64.7925 -3.30911 69.6919 -0.285232 72.7089L3.95256 68.4614ZM38.6446 79.6076L42.8875 75.3651L23.5962 56.0722L19.3534 60.3147L15.1105 64.5572L34.4018 83.85L38.6446 79.6076ZM19.3534 60.3147L23.258 64.8703L33.9115 55.7392L30.0069 51.1836L26.1023 46.6279L15.4487 55.7591L19.3534 60.3147ZM30.0069 51.1836L33.9119 55.7389C35.0127 54.7952 36.4117 54.2779 37.8602 54.2779V48.2779V42.2779C33.5467 42.2779 29.3775 43.8203 26.1019 46.6282L30.0069 51.1836ZM37.8602 48.2779V54.2779H39.8484V48.2779V42.2779H37.8602V48.2779ZM39.8484 48.2779V54.2779C40.7893 54.2779 41.7208 54.4973 42.5666 54.9193L45.2449 49.5502L47.9233 44.1812C45.4177 42.9313 42.6529 42.2779 39.8484 42.2779V48.2779ZM45.2449 49.5502L42.5617 54.9168C43.4337 55.3528 44.3569 55.8144 45.0954 56.1829L47.7742 50.8141L50.453 45.4453C49.7199 45.0795 48.8019 44.6205 47.9282 44.1836L45.2449 49.5502ZM47.7742 50.8141L45.0895 56.18C47.1193 57.1955 49.357 57.7247 51.6283 57.7247V51.7247V45.7247C51.2225 45.7247 50.823 45.6304 50.4589 45.4483L47.7742 50.8141ZM51.6283 51.7247V57.7247H63.7935V51.7247V45.7247H51.6283V51.7247ZM63.7935 51.7247V57.7247C63.5752 57.7247 63.3625 57.6377 63.2045 57.4795L67.4505 53.2403L71.6965 49.001C69.6004 46.9015 66.7567 45.7247 63.7935 45.7247V51.7247ZM67.4505 53.2403L63.2113 57.4863C63.0531 57.3283 62.9661 57.1156 62.9661 56.8972H68.9661H74.9661C74.9661 53.934 73.7893 51.0904 71.6898 48.9943L67.4505 53.2403ZM68.9661 56.8972H62.9661C62.9661 56.4419 63.3359 56.0697 63.7952 56.0697V62.0697V68.0697C69.9657 68.0697 74.9661 63.0669 74.9661 56.8972H68.9661ZM63.7952 62.0697V56.0697H43.1033V62.0697V68.0697H63.7952V62.0697ZM43.1033 62.0697V56.0697C38.8382 56.0697 35.3791 59.5288 35.3791 63.7939H41.3791H47.3791C47.3791 66.1562 45.4657 68.0697 43.1033 68.0697V62.0697ZM41.3791 63.7939H35.3791C35.3791 68.059 38.8382 71.5181 43.1033 71.5181V65.5181V59.5181C45.4657 59.5181 47.3791 61.4315 47.3791 63.7939H41.3791ZM43.1033 65.5181V71.5181H67.8327V65.5181V59.5181H43.1033V65.5181ZM67.8327 65.5181V71.5181C69.8702 71.5181 71.8449 70.7124 73.3047 69.2456L69.0519 65.0131L64.7992 60.7806C65.6139 59.962 66.7096 59.5181 67.8327 59.5181V65.5181ZM69.0519 65.0131L73.2944 69.2559L91.9654 50.5865L87.7229 46.3437L83.4804 42.1009L64.8095 60.7703L69.0519 65.0131ZM87.7229 46.3437L91.9672 50.5847C91.6411 50.9111 91.1186 50.9111 90.7924 50.5847L95.0367 46.3437L99.281 42.1027C94.9201 37.7384 87.8395 37.7384 83.4786 42.1027L87.7229 46.3437ZM95.0367 46.3437L90.7957 50.588C90.4693 50.2618 90.4693 49.7394 90.7957 49.4132L95.0367 53.6575L99.2777 57.9018C103.642 53.5409 103.642 46.4603 99.2777 42.0994L95.0367 46.3437ZM95.0367 53.6575L90.7941 49.4149L70.1041 70.1048L74.3468 74.3474L78.5894 78.5901L99.2793 57.9001L95.0367 53.6575ZM74.3468 74.3474L70.1008 70.1082C70.2587 69.95 70.4714 69.863 70.6898 69.863V75.863V81.863C73.653 81.863 76.4967 80.6861 78.5928 78.5867L74.3468 74.3474ZM70.6898 75.863V69.863H45.9604V75.863V81.863H70.6898V75.863ZM45.9604 75.863V69.863C42.0827 69.863 38.3646 71.4031 35.6228 74.1424L39.8636 78.387L44.1043 82.6315C44.5968 82.1394 45.2646 81.863 45.9604 81.863V75.863ZM39.8636 78.387L35.618 74.1473L34.3991 75.3679L38.6446 79.6076L42.8902 83.8473L44.1091 82.6267L39.8636 78.387ZM82.7595 46.4288L78.5169 42.1862L68.1719 52.5311L72.4146 56.7738L76.6572 61.0164L87.0022 50.6715L82.7595 46.4288ZM72.4146 56.7738H78.4146V32.7577H72.4146H66.4146V56.7738H72.4146ZM72.4146 32.7577H78.4146C78.4146 33.8808 77.9706 34.9765 77.152 35.7912L72.9195 31.5385L68.687 27.2857C67.2202 28.7455 66.4146 30.7202 66.4146 32.7577H72.4146ZM72.9195 31.5385L77.1722 35.771C76.3575 36.5896 75.2618 37.0335 74.1387 37.0335V31.0335V25.0335C72.1012 25.0335 70.1265 25.8393 68.6668 27.3059L72.9195 31.5385ZM74.1387 31.0335V37.0335H81.0354V31.0335V25.0335H74.1387V31.0335ZM81.0354 31.0335V37.0335C79.9123 37.0335 78.8166 36.5896 78.0018 35.771L82.2546 31.5385L86.5073 27.306C85.0476 25.8392 83.0728 25.0335 81.0354 25.0335V31.0335ZM82.2546 31.5385L78.022 35.7912C77.2035 34.9765 76.7595 33.8808 76.7595 32.7577H82.7595H88.7595C88.7595 30.7202 87.9538 28.7455 86.4871 27.2858L82.2546 31.5385ZM82.7595 32.7577H76.7595V46.4288H82.7595H88.7595V32.7577H82.7595ZM62.0696 48.2754V42.2754H51.7246V48.2754V54.2754H62.0696V48.2754ZM51.7246 48.2754H57.7246V39.6546H51.7246H45.7246V48.2754H51.7246ZM51.7246 39.6546H57.7246C57.7246 42.0169 55.8111 43.9304 53.4488 43.9304V37.9304V31.9304C49.1837 31.9304 45.7246 35.3895 45.7246 39.6546H51.7246ZM53.4488 37.9304V43.9304H60.3454V37.9304V31.9304H53.4488V37.9304ZM60.3454 37.9304V43.9304C57.9831 43.9304 56.0696 42.0169 56.0696 39.6546H62.0696H68.0696C68.0696 35.3895 64.6105 31.9304 60.3454 31.9304V37.9304ZM62.0696 39.6546H56.0696V48.2754H62.0696H68.0696V39.6546H62.0696ZM41.3797 44.9049H47.3797V39.6546H41.3797H35.3797V44.9049H41.3797ZM41.3797 39.6546H47.3797C47.3797 35.3895 43.9206 31.9304 39.6555 31.9304V37.9304V43.9304C37.2932 43.9304 35.3797 42.0169 35.3797 39.6546H41.3797ZM39.6555 37.9304V31.9304H32.7589V37.9304V43.9304H39.6555V37.9304ZM32.7589 37.9304V31.9304C28.4938 31.9304 25.0347 35.3895 25.0347 39.6546H31.0347H37.0347C37.0347 42.0169 35.1212 43.9304 32.7589 43.9304V37.9304ZM31.0347 39.6546H25.0347V46.4119H31.0347H37.0347V39.6546H31.0347ZM31.0347 46.4119L33.6754 51.7995C34.9704 51.1648 36.4001 50.8286 37.8606 50.8286V44.8286V38.8286C34.5549 38.8286 31.3201 39.59 28.394 41.0243L31.0347 46.4119ZM37.8606 44.8286V50.8286H39.8488V44.8286V38.8286H37.8606V44.8286ZM39.8488 44.8286V50.8286C40.156 50.8286 40.4711 50.8444 40.7907 50.8759L41.3797 44.9049L41.9686 38.9338C41.2738 38.8653 40.5653 38.8286 39.8488 38.8286V44.8286Z" fill="black" mask="url(#path-5-inside-3_2541_72)"/>
</svg>
