<svg width="97" height="106" viewBox="0 0 97 106" fill="none" xmlns="http://www.w3.org/2000/svg">
<path d="M15.3987 62V83.6952C15.3987 84.8057 16.0121 85.8253 16.9932 86.3456L47.0139 102.266C47.8815 102.726 48.9192 102.732 49.7923 102.283L80.7716 86.3375C81.7707 85.8232 82.3987 84.7937 82.3987 83.6701V62" stroke="black" stroke-width="6" stroke-linecap="round"/>
<path d="M48.3987 100V57" stroke="black" stroke-width="6" stroke-linecap="round"/>
<path d="M17.3987 38L48.0229 54.2691C48.8854 54.7273 49.917 54.737 50.7879 54.295L82.8987 38" stroke="black" stroke-width="6" stroke-linecap="round"/>
<path d="M38.3987 25L12.9744 38.2011C12.595 38.3981 12.262 38.6739 11.9979 39.0101L3.64234 49.6444C2.47838 51.1258 2.95195 53.3009 4.62643 54.1643L31.2762 67.9056C32.5184 68.5461 34.0384 68.244 34.9412 67.177L44.3987 56" stroke="black" stroke-width="6" stroke-linecap="round"/>
<path d="M58.3987 25L83.823 38.2011C84.2024 38.3981 84.5353 38.6739 84.7995 39.0101L93.155 49.6444C94.319 51.1258 93.8454 53.3009 92.1709 54.1643L65.5212 67.9056C64.2789 68.5461 62.759 68.244 61.8561 67.177L52.3987 56" stroke="black" stroke-width="6" stroke-linecap="round"/>
<path d="M40.3987 34L46.8426 40.0649C47.9977 41.1521 49.7996 41.1521 50.9548 40.0649L57.3987 34" stroke="black" stroke-width="6" stroke-linecap="round"/>
<path d="M48.8987 3V35" stroke="black" stroke-width="6" stroke-linecap="round"/>
</svg>
