<svg width="100" height="100" viewBox="0 0 100 100" fill="none" xmlns="http://www.w3.org/2000/svg">
<path d="M70.6665 25.7083C78.9998 31.5 84.7498 40.7083 85.9165 51.3333" stroke="black" stroke-width="6" stroke-linecap="round" stroke-linejoin="round"/>
<path d="M14.542 51.5417C15.6253 40.9584 21.292 31.75 29.542 25.9167" stroke="black" stroke-width="6" stroke-linecap="round" stroke-linejoin="round"/>
<path d="M34.125 87.25C38.9583 89.7083 44.4583 91.0833 50.25 91.0833C55.8333 91.0833 61.0833 89.8333 65.7917 87.5417" stroke="black" stroke-width="6" stroke-linecap="round" stroke-linejoin="round"/>
<path d="M50.2503 32.0834C56.6476 32.0834 61.8337 26.8973 61.8337 20.5C61.8337 14.1027 56.6476 8.91669 50.2503 8.91669C43.853 8.91669 38.667 14.1027 38.667 20.5C38.667 26.8973 43.853 32.0834 50.2503 32.0834Z" stroke="black" stroke-width="6" stroke-linecap="round" stroke-linejoin="round"/>
<path d="M20.1244 83C26.5217 83 31.7077 77.8139 31.7077 71.4166C31.7077 65.0193 26.5217 59.8333 20.1244 59.8333C13.7271 59.8333 8.54102 65.0193 8.54102 71.4166C8.54102 77.8139 13.7271 83 20.1244 83Z" stroke="black" stroke-width="6" stroke-linecap="round" stroke-linejoin="round"/>
<path d="M79.8753 83C86.2726 83 91.4587 77.8139 91.4587 71.4166C91.4587 65.0193 86.2726 59.8333 79.8753 59.8333C73.478 59.8333 68.292 65.0193 68.292 71.4166C68.292 77.8139 73.478 83 79.8753 83Z" stroke="black" stroke-width="6" stroke-linecap="round" stroke-linejoin="round"/>
</svg>
