<svg width="100" height="100" viewBox="0 0 100 100" fill="none" xmlns="http://www.w3.org/2000/svg">
<path d="M12.5415 46.75V65.4583C12.5415 84.1667 20.0415 91.6667 38.7498 91.6667H61.2082C79.9165 91.6667 87.4165 84.1667 87.4165 65.4583V46.75" stroke="black" stroke-width="6" stroke-linecap="round" stroke-linejoin="round"/>
<path d="M49.9997 50C57.6247 50 63.2497 43.7917 62.4997 36.1667L59.7497 8.33334H40.2914L37.4997 36.1667C36.7497 43.7917 42.3747 50 49.9997 50Z" stroke="black" stroke-width="6" stroke-linecap="round" stroke-linejoin="round"/>
<path d="M76.2923 50C84.709 50 90.8757 43.1667 90.0423 34.7917L88.8757 23.3333C87.3757 12.5 83.209 8.33334 72.2923 8.33334H59.584L62.5007 37.5417C63.209 44.4167 69.4173 50 76.2923 50Z" stroke="black" stroke-width="6" stroke-linecap="round" stroke-linejoin="round"/>
<path d="M23.4993 50C30.3743 50 36.5826 44.4167 37.2493 37.5417L38.1659 28.3333L40.1659 8.33334H27.4576C16.5409 8.33334 12.3743 12.5 10.8743 23.3333L9.74927 34.7917C8.91593 43.1667 15.0826 50 23.4993 50Z" stroke="black" stroke-width="6" stroke-linecap="round" stroke-linejoin="round"/>
<path d="M50.0007 70.8333C43.0423 70.8333 39.584 74.2917 39.584 81.25V91.6667H60.4173V81.25C60.4173 74.2917 56.959 70.8333 50.0007 70.8333Z" stroke="black" stroke-width="6" stroke-linecap="round" stroke-linejoin="round"/>
</svg>
