<svg width="100" height="91" viewBox="0 0 100 91" fill="none" xmlns="http://www.w3.org/2000/svg">
<mask id="path-1-inside-1_2591_37" fill="white">
<path d="M97.746 0.000774647H2.25493C1.65683 1.95342e-05 1.08292 0.237903 0.660026 0.660793C0.237136 1.08368 -0.000744757 1.6576 9.19627e-06 2.25645V31.1502C-0.00603209 37.1146 2.96478 42.6884 7.92019 46.008V88.5019C7.92019 89.1008 8.15732 89.6747 8.58021 90.0976C9.00385 90.5205 9.57701 90.7583 10.1759 90.7576H94.5181C95.1162 90.7583 95.6901 90.5205 96.113 90.0976C96.5359 89.6747 96.7738 89.1008 96.773 88.5019V41.4862C98.8928 38.458 100.02 34.846 99.9997 31.1495V2.25567C100 1.65682 99.7626 1.08291 99.3397 0.66002C98.9168 0.23713 98.3429 -0.000752166 97.7448 1.78676e-06L97.746 0.000774647ZM36.3433 4.51135H63.6615V31.151C63.6607 33.427 63.1049 35.6676 62.0409 37.6795C60.4944 40.6011 57.9321 42.8553 54.8382 44.0183C51.7443 45.1812 48.3317 45.1729 45.2438 43.9934C42.1559 42.8146 39.6058 40.5468 38.0743 37.6182C36.9219 35.6593 36.3238 33.4241 36.3435 31.151L36.3433 4.51135ZM4.51099 31.151V4.51135H31.8312V31.151C31.8304 33.4264 31.2738 35.666 30.2106 37.6772C29.0507 39.846 27.3258 41.6605 25.2198 42.9293C23.1136 44.1972 20.7032 44.8732 18.2436 44.8844C15.7757 44.8685 13.3615 44.1541 11.2817 42.8251C9.22014 41.6539 7.50596 39.9555 6.31645 37.9045C5.12695 35.8536 4.50343 33.5223 4.51099 31.151ZM92.2634 86.2476H54.6044V70.581C54.6044 69.335 53.5947 68.3254 52.3487 68.3254C51.1035 68.3254 50.0931 69.335 50.0931 70.581V86.2476H12.4321V48.3798C12.6911 48.4727 12.9562 48.5437 13.219 48.6245C13.3429 48.6622 13.4637 48.7045 13.5883 48.7393C14.2664 48.9296 14.9551 49.0783 15.6506 49.1848C15.7903 49.206 15.9301 49.2218 16.0705 49.2399V49.2392C16.7917 49.3374 17.5174 49.3895 18.2454 49.3948C19.064 49.3955 19.8818 49.3404 20.6928 49.2309C21.0802 49.1788 21.4518 49.0746 21.8316 48.9975C22.2402 48.9145 22.6555 48.8571 23.055 48.7468C23.5269 48.6162 23.977 48.4312 24.4346 48.2628C24.7239 48.1563 25.0244 48.077 25.3076 47.9562C25.7833 47.7523 26.2334 47.4948 26.6895 47.2501C26.9342 47.1187 27.1917 47.0137 27.4304 46.871C27.8608 46.6135 28.2618 46.3054 28.6703 46.0109C28.9105 45.838 29.1665 45.69 29.3991 45.5049C29.7842 45.1976 30.1361 44.8434 30.4986 44.5036C30.7274 44.2891 30.9736 44.0981 31.1926 43.8708C31.4984 43.5536 31.7687 43.1934 32.0542 42.8513C32.2981 42.5598 32.5602 42.2895 32.789 41.9806C33.0216 41.6665 33.2171 41.3146 33.4331 40.983C33.6763 40.6092 33.9383 40.2543 34.1596 39.8594C34.325 40.1705 34.5304 40.4491 34.7124 40.7474C34.9585 41.1522 35.1873 41.5706 35.4615 41.9512C35.6329 42.1891 35.8368 42.3952 36.0188 42.6233C36.3458 43.0326 36.6614 43.4517 37.0201 43.8278C37.1734 43.9886 37.3509 44.1223 37.5095 44.2771C37.9286 44.6856 38.3454 45.0964 38.8008 45.4604C38.9601 45.588 39.1391 45.6877 39.303 45.8093L39.3037 45.807C39.7772 46.1733 40.2688 46.5146 40.7771 46.831C40.9764 46.9504 41.1931 47.0372 41.397 47.149C41.8969 47.4223 42.3938 47.7017 42.9187 47.9275C43.2479 48.0695 43.5976 48.1639 43.9351 48.2862C44.3558 48.438 44.7673 48.6117 45.2008 48.7318C45.638 48.8534 46.0926 48.9198 46.5412 49.0089C46.8939 49.0792 47.2375 49.1773 47.5954 49.2264C49.2303 49.4499 50.8879 49.4515 52.5235 49.2302C52.9321 49.1751 53.324 49.0663 53.7242 48.984C54.1116 48.904 54.5066 48.8503 54.8857 48.7461C55.2738 48.6389 55.6416 48.4811 56.0199 48.3482C56.3937 48.2168 56.7774 48.1103 57.1406 47.9547C57.4532 47.8203 57.7447 47.6421 58.0491 47.4903C58.4561 47.2872 58.8729 47.1029 59.2634 46.8688C59.4982 46.7283 59.7112 46.5516 59.94 46.3999C60.3772 46.1099 60.8212 45.8305 61.2343 45.5012C61.4027 45.3668 61.5507 45.2037 61.7154 45.0632C62.1632 44.6788 62.6132 44.2967 63.0271 43.8663C63.1691 43.719 63.2899 43.5453 63.4273 43.3928C63.8389 42.9359 64.2504 42.4783 64.6227 41.9754C64.7013 41.8697 64.7632 41.7473 64.8395 41.6393H64.8402C65.2548 41.0662 65.6384 40.4718 65.9896 39.8579C66.1497 40.1592 66.3498 40.4288 66.525 40.718C66.7765 41.1326 67.0113 41.5608 67.2922 41.9505C67.4478 42.1657 67.6336 42.3522 67.7974 42.5599C68.1395 42.9918 68.4733 43.4313 68.8509 43.827C68.9883 43.9713 69.1469 44.0898 69.2889 44.2295L69.2896 44.2288C69.7155 44.6615 70.1634 45.0715 70.6316 45.4582C70.7916 45.5858 70.9714 45.6862 71.1353 45.8086C71.6148 46.1658 72.0951 46.5237 72.6071 46.8311C72.8064 46.9504 73.0247 47.038 73.2286 47.1497C73.7277 47.4231 74.2246 47.7018 74.7487 47.9275C75.0636 48.0627 75.3981 48.1526 75.7213 48.2704C76.1563 48.4282 76.583 48.6072 77.0315 48.7318C77.4522 48.8488 77.8901 48.9115 78.3206 48.9984C78.6899 49.0731 79.0501 49.1751 79.4262 49.2264V49.2257C80.2478 49.3382 81.0762 49.3948 81.9053 49.3948C82.7443 49.3888 83.5825 49.3238 84.4125 49.2007C84.6541 49.1668 84.8898 49.1184 85.1291 49.0746C85.7363 48.9636 86.3382 48.8217 86.931 48.6487C87.159 48.5823 87.3863 48.5219 87.6113 48.4456C89.1806 47.9177 90.6689 47.1754 92.0351 46.239C92.1091 46.1884 92.1907 46.1537 92.2639 46.1023L92.2634 86.2476ZM95.4901 31.151C95.5294 34.1519 94.5567 37.0783 92.7301 39.4594C89.9451 43.1824 85.4428 45.2146 80.8083 44.8407C76.1738 44.4669 72.0561 41.7392 69.9031 37.6184C68.7515 35.6587 68.1534 33.4243 68.1715 31.1512V4.51154H95.4897L95.4901 31.151Z"/>
</mask>
<path d="M97.746 0.000774647H2.25493C1.65683 1.95342e-05 1.08292 0.237903 0.660026 0.660793C0.237136 1.08368 -0.000744757 1.6576 9.19627e-06 2.25645V31.1502C-0.00603209 37.1146 2.96478 42.6884 7.92019 46.008V88.5019C7.92019 89.1008 8.15732 89.6747 8.58021 90.0976C9.00385 90.5205 9.57701 90.7583 10.1759 90.7576H94.5181C95.1162 90.7583 95.6901 90.5205 96.113 90.0976C96.5359 89.6747 96.7738 89.1008 96.773 88.5019V41.4862C98.8928 38.458 100.02 34.846 99.9997 31.1495V2.25567C100 1.65682 99.7626 1.08291 99.3397 0.66002C98.9168 0.23713 98.3429 -0.000752166 97.7448 1.78676e-06L97.746 0.000774647ZM36.3433 4.51135H63.6615V31.151C63.6607 33.427 63.1049 35.6676 62.0409 37.6795C60.4944 40.6011 57.9321 42.8553 54.8382 44.0183C51.7443 45.1812 48.3317 45.1729 45.2438 43.9934C42.1559 42.8146 39.6058 40.5468 38.0743 37.6182C36.9219 35.6593 36.3238 33.4241 36.3435 31.151L36.3433 4.51135ZM4.51099 31.151V4.51135H31.8312V31.151C31.8304 33.4264 31.2738 35.666 30.2106 37.6772C29.0507 39.846 27.3258 41.6605 25.2198 42.9293C23.1136 44.1972 20.7032 44.8732 18.2436 44.8844C15.7757 44.8685 13.3615 44.1541 11.2817 42.8251C9.22014 41.6539 7.50596 39.9555 6.31645 37.9045C5.12695 35.8536 4.50343 33.5223 4.51099 31.151ZM92.2634 86.2476H54.6044V70.581C54.6044 69.335 53.5947 68.3254 52.3487 68.3254C51.1035 68.3254 50.0931 69.335 50.0931 70.581V86.2476H12.4321V48.3798C12.6911 48.4727 12.9562 48.5437 13.219 48.6245C13.3429 48.6622 13.4637 48.7045 13.5883 48.7393C14.2664 48.9296 14.9551 49.0783 15.6506 49.1848C15.7903 49.206 15.9301 49.2218 16.0705 49.2399V49.2392C16.7917 49.3374 17.5174 49.3895 18.2454 49.3948C19.064 49.3955 19.8818 49.3404 20.6928 49.2309C21.0802 49.1788 21.4518 49.0746 21.8316 48.9975C22.2402 48.9145 22.6555 48.8571 23.055 48.7468C23.5269 48.6162 23.977 48.4312 24.4346 48.2628C24.7239 48.1563 25.0244 48.077 25.3076 47.9562C25.7833 47.7523 26.2334 47.4948 26.6895 47.2501C26.9342 47.1187 27.1917 47.0137 27.4304 46.871C27.8608 46.6135 28.2618 46.3054 28.6703 46.0109C28.9105 45.838 29.1665 45.69 29.3991 45.5049C29.7842 45.1976 30.1361 44.8434 30.4986 44.5036C30.7274 44.2891 30.9736 44.0981 31.1926 43.8708C31.4984 43.5536 31.7687 43.1934 32.0542 42.8513C32.2981 42.5598 32.5602 42.2895 32.789 41.9806C33.0216 41.6665 33.2171 41.3146 33.4331 40.983C33.6763 40.6092 33.9383 40.2543 34.1596 39.8594C34.325 40.1705 34.5304 40.4491 34.7124 40.7474C34.9585 41.1522 35.1873 41.5706 35.4615 41.9512C35.6329 42.1891 35.8368 42.3952 36.0188 42.6233C36.3458 43.0326 36.6614 43.4517 37.0201 43.8278C37.1734 43.9886 37.3509 44.1223 37.5095 44.2771C37.9286 44.6856 38.3454 45.0964 38.8008 45.4604C38.9601 45.588 39.1391 45.6877 39.303 45.8093L39.3037 45.807C39.7772 46.1733 40.2688 46.5146 40.7771 46.831C40.9764 46.9504 41.1931 47.0372 41.397 47.149C41.8969 47.4223 42.3938 47.7017 42.9187 47.9275C43.2479 48.0695 43.5976 48.1639 43.9351 48.2862C44.3558 48.438 44.7673 48.6117 45.2008 48.7318C45.638 48.8534 46.0926 48.9198 46.5412 49.0089C46.8939 49.0792 47.2375 49.1773 47.5954 49.2264C49.2303 49.4499 50.8879 49.4515 52.5235 49.2302C52.9321 49.1751 53.324 49.0663 53.7242 48.984C54.1116 48.904 54.5066 48.8503 54.8857 48.7461C55.2738 48.6389 55.6416 48.4811 56.0199 48.3482C56.3937 48.2168 56.7774 48.1103 57.1406 47.9547C57.4532 47.8203 57.7447 47.6421 58.0491 47.4903C58.4561 47.2872 58.8729 47.1029 59.2634 46.8688C59.4982 46.7283 59.7112 46.5516 59.94 46.3999C60.3772 46.1099 60.8212 45.8305 61.2343 45.5012C61.4027 45.3668 61.5507 45.2037 61.7154 45.0632C62.1632 44.6788 62.6132 44.2967 63.0271 43.8663C63.1691 43.719 63.2899 43.5453 63.4273 43.3928C63.8389 42.9359 64.2504 42.4783 64.6227 41.9754C64.7013 41.8697 64.7632 41.7473 64.8395 41.6393H64.8402C65.2548 41.0662 65.6384 40.4718 65.9896 39.8579C66.1497 40.1592 66.3498 40.4288 66.525 40.718C66.7765 41.1326 67.0113 41.5608 67.2922 41.9505C67.4478 42.1657 67.6336 42.3522 67.7974 42.5599C68.1395 42.9918 68.4733 43.4313 68.8509 43.827C68.9883 43.9713 69.1469 44.0898 69.2889 44.2295L69.2896 44.2288C69.7155 44.6615 70.1634 45.0715 70.6316 45.4582C70.7916 45.5858 70.9714 45.6862 71.1353 45.8086C71.6148 46.1658 72.0951 46.5237 72.6071 46.8311C72.8064 46.9504 73.0247 47.038 73.2286 47.1497C73.7277 47.4231 74.2246 47.7018 74.7487 47.9275C75.0636 48.0627 75.3981 48.1526 75.7213 48.2704C76.1563 48.4282 76.583 48.6072 77.0315 48.7318C77.4522 48.8488 77.8901 48.9115 78.3206 48.9984C78.6899 49.0731 79.0501 49.1751 79.4262 49.2264V49.2257C80.2478 49.3382 81.0762 49.3948 81.9053 49.3948C82.7443 49.3888 83.5825 49.3238 84.4125 49.2007C84.6541 49.1668 84.8898 49.1184 85.1291 49.0746C85.7363 48.9636 86.3382 48.8217 86.931 48.6487C87.159 48.5823 87.3863 48.5219 87.6113 48.4456C89.1806 47.9177 90.6689 47.1754 92.0351 46.239C92.1091 46.1884 92.1907 46.1537 92.2639 46.1023L92.2634 86.2476ZM95.4901 31.151C95.5294 34.1519 94.5567 37.0783 92.7301 39.4594C89.9451 43.1824 85.4428 45.2146 80.8083 44.8407C76.1738 44.4669 72.0561 41.7392 69.9031 37.6184C68.7515 35.6587 68.1534 33.4243 68.1715 31.1512V4.51154H95.4897L95.4901 31.151Z" fill="black" stroke="black" stroke-width="12" mask="url(#path-1-inside-1_2591_37)"/>
<mask id="path-2-inside-2_2591_37" fill="white">
<path d="M38.1839 56.084H24.6514C24.0533 56.084 23.4794 56.3211 23.0565 56.744C22.6329 57.1669 22.3958 57.7408 22.3958 58.3397V71.8721C22.3958 72.4702 22.6329 73.0442 23.0565 73.467C23.4794 73.8899 24.0533 74.1278 24.6514 74.1271H38.1839C38.782 74.1278 39.3559 73.8899 39.7788 73.467C40.2025 73.0442 40.4396 72.4702 40.4396 71.8721V58.3397C40.4396 57.7408 40.2025 57.1669 39.7788 56.744C39.3559 56.3211 38.782 56.084 38.1839 56.084ZM35.9282 69.6165H26.9063V60.5946H35.9282V69.6165Z"/>
</mask>
<path d="M38.1839 56.084H24.6514C24.0533 56.084 23.4794 56.3211 23.0565 56.744C22.6329 57.1669 22.3958 57.7408 22.3958 58.3397V71.8721C22.3958 72.4702 22.6329 73.0442 23.0565 73.467C23.4794 73.8899 24.0533 74.1278 24.6514 74.1271H38.1839C38.782 74.1278 39.3559 73.8899 39.7788 73.467C40.2025 73.0442 40.4396 72.4702 40.4396 71.8721V58.3397C40.4396 57.7408 40.2025 57.1669 39.7788 56.744C39.3559 56.3211 38.782 56.084 38.1839 56.084ZM35.9282 69.6165H26.9063V60.5946H35.9282V69.6165Z" fill="black"/>
<path d="M23.0565 56.744L27.2954 60.9904L27.2992 60.9866L23.0565 56.744ZM23.0565 73.467L27.2992 69.2244L27.2954 69.2206L23.0565 73.467ZM24.6514 74.1271L24.6514 68.1271L24.6439 68.1271L24.6514 74.1271ZM38.1839 74.1271L38.1915 68.1271H38.1839V74.1271ZM39.7788 73.467L35.54 69.2206L35.5362 69.2244L39.7788 73.467ZM39.7788 56.744L35.5362 60.9866L35.54 60.9904L39.7788 56.744ZM35.9282 69.6165V75.6165H41.9282V69.6165H35.9282ZM26.9063 69.6165H20.9063V75.6165H26.9063V69.6165ZM26.9063 60.5946V54.5946H20.9063V60.5946H26.9063ZM35.9282 60.5946H41.9282V54.5946H35.9282V60.5946ZM38.1839 56.084V50.084H24.6514V56.084V62.084H38.1839V56.084ZM24.6514 56.084V50.084C22.4662 50.084 20.3649 50.9503 18.8139 52.5014L23.0565 56.744L27.2992 60.9866C26.5939 61.6919 25.6405 62.084 24.6514 62.084V56.084ZM23.0565 56.744L18.8177 52.4976C17.2619 54.0506 16.3958 56.1541 16.3958 58.3397H22.3958H28.3958C28.3958 59.3275 28.0038 60.2832 27.2954 60.9904L23.0565 56.744ZM22.3958 58.3397H16.3958V71.8721H22.3958H28.3958V58.3397H22.3958ZM22.3958 71.8721H16.3958C16.3958 74.058 17.2627 76.1612 18.8177 77.7135L23.0565 73.467L27.2954 69.2206C28.0031 69.9271 28.3958 70.8825 28.3958 71.8721H22.3958ZM23.0565 73.467L18.8139 77.7097C20.3611 79.2569 22.4631 80.1298 24.659 80.1271L24.6514 74.1271L24.6439 68.1271C25.6436 68.1258 26.5977 68.523 27.2992 69.2244L23.0565 73.467ZM24.6514 74.1271V80.1271H38.1839V74.1271V68.1271H24.6514V74.1271ZM38.1839 74.1271L38.1763 80.1271C40.3723 80.1298 42.4743 79.2569 44.0215 77.7097L39.7788 73.467L35.5362 69.2244C36.2376 68.523 37.1917 68.1258 38.1915 68.1271L38.1839 74.1271ZM39.7788 73.467L44.0177 77.7135C45.5727 76.1612 46.4396 74.058 46.4396 71.8721H40.4396H34.4396C34.4396 70.8825 34.8323 69.9271 35.54 69.2206L39.7788 73.467ZM40.4396 71.8721H46.4396V58.3397H40.4396H34.4396V71.8721H40.4396ZM40.4396 58.3397H46.4396C46.4396 56.1541 45.5734 54.0506 44.0177 52.4976L39.7788 56.744L35.54 60.9904C34.8315 60.2832 34.4396 59.3275 34.4396 58.3397H40.4396ZM39.7788 56.744L44.0215 52.5014C42.4704 50.9503 40.3692 50.084 38.1839 50.084V56.084V62.084C37.1948 62.084 36.2414 61.6919 35.5362 60.9866L39.7788 56.744ZM35.9282 69.6165V63.6165H26.9063V69.6165V75.6165H35.9282V69.6165ZM26.9063 69.6165H32.9063V60.5946H26.9063H20.9063V69.6165H26.9063ZM26.9063 60.5946V66.5946H35.9282V60.5946V54.5946H26.9063V60.5946ZM35.9282 60.5946H29.9282V69.6165H35.9282H41.9282V60.5946H35.9282Z" fill="black" mask="url(#path-2-inside-2_2591_37)"/>
</svg>
