<svg width="100" height="100" viewBox="0 0 100 100" fill="none" xmlns="http://www.w3.org/2000/svg">
<path d="M66.6673 52.875V75.3333C66.6673 85.0833 60.1673 91.5417 50.459 91.5417H24.5423C14.834 91.5417 8.33398 85.0833 8.33398 75.3333V42.9583C8.33398 33.2083 14.834 26.75 24.5423 26.75H40.5007C44.7923 26.75 48.9173 28.4583 51.959 31.5L61.9173 41.4167C64.959 44.4583 66.6673 48.5833 66.6673 52.875Z" stroke="black" stroke-width="6" stroke-linecap="round" stroke-linejoin="round"/>
<path d="M91.6673 34.375V56.8333C91.6673 66.5417 85.1673 73.0417 75.459 73.0417H66.6673V52.875C66.6673 48.5833 64.959 44.4583 61.9173 41.4167L51.959 31.5C48.9173 28.4583 44.7923 26.75 40.5007 26.75H33.334V24.4167C33.334 14.7083 39.834 8.20833 49.5423 8.20833H65.5007C69.7923 8.20833 73.9173 9.91667 76.959 12.9583L86.9173 22.9167C89.959 25.9583 91.6673 30.0833 91.6673 34.375Z" stroke="black" stroke-width="6" stroke-linecap="round" stroke-linejoin="round"/>
</svg>
