<svg width="93" height="103" viewBox="0 0 93 103" fill="none" xmlns="http://www.w3.org/2000/svg">
<path d="M34.088 58.608C33.544 58.608 33.144 58.448 32.888 58.128C32.664 57.808 32.552 57.136 32.552 56.112C32.552 55.76 32.552 55.36 32.552 54.912C32.584 54.496 32.616 54.064 32.648 53.616C31.176 53.584 29.832 53.344 28.616 52.896C27.4 52.448 26.424 51.84 25.688 51.072C24.984 50.272 24.632 49.344 24.632 48.288C24.632 47.52 24.792 46.912 25.112 46.464C25.464 45.984 25.896 45.744 26.408 45.744C26.664 45.744 26.872 45.792 27.032 45.888C27.224 45.952 27.384 46.048 27.512 46.176C29.048 47.456 30.872 48.24 32.984 48.528C33.048 47.472 33.112 46.304 33.176 45.024C33.272 43.712 33.384 42.256 33.512 40.656C32.2 40.336 30.952 39.92 29.768 39.408C28.616 38.896 27.672 38.192 26.936 37.296C26.232 36.4 25.88 35.248 25.88 33.84C25.88 32.56 26.2 31.28 26.84 30C27.48 28.72 28.392 27.584 29.576 26.592C30.792 25.6 32.248 24.896 33.944 24.48C33.944 24.32 33.928 24.048 33.896 23.664C33.864 23.28 33.832 22.896 33.8 22.512C33.768 22.128 33.752 21.872 33.752 21.744C33.752 21.296 33.976 20.864 34.424 20.448C34.904 20.032 35.512 19.824 36.248 19.824C37.08 19.824 37.56 20.176 37.688 20.88C37.816 21.584 37.848 22.64 37.784 24.048C39.8 24.08 41.48 24.464 42.824 25.2C44.168 25.904 44.84 26.768 44.84 27.792C44.84 28.368 44.616 28.912 44.168 29.424C43.752 29.904 43.256 30.304 42.68 30.624C42.104 30.912 41.608 31.056 41.192 31.056C40.936 31.056 40.616 30.912 40.232 30.624C40.04 30.464 39.736 30.256 39.32 30C38.904 29.744 38.28 29.504 37.448 29.28C37.416 30.336 37.352 31.504 37.256 32.784C37.192 34.064 37.128 35.264 37.064 36.384C38.6 36.704 39.928 37.12 41.048 37.632C42.2 38.112 43.096 38.8 43.736 39.696C44.376 40.56 44.696 41.728 44.696 43.2C44.696 44.672 44.36 46.096 43.688 47.472C43.016 48.848 42.056 50.048 40.808 51.072C39.56 52.064 38.056 52.784 36.296 53.232C36.36 53.808 36.408 54.416 36.44 55.056C36.472 55.696 36.488 56.176 36.488 56.496C36.488 57.2 36.264 57.728 35.816 58.08C35.4 58.432 34.824 58.608 34.088 58.608ZM33.752 35.52C33.816 34.336 33.864 33.168 33.896 32.016C33.928 30.864 33.944 29.872 33.944 29.04C32.792 29.168 31.848 29.52 31.112 30.096C30.376 30.672 30.008 31.376 30.008 32.208C30.008 33.008 30.36 33.68 31.064 34.224C31.768 34.768 32.664 35.2 33.752 35.52ZM36.488 48.48C37.928 48.224 39.032 47.776 39.8 47.136C40.568 46.464 40.952 45.648 40.952 44.688C40.952 43.76 40.6 43.056 39.896 42.576C39.224 42.096 38.184 41.68 36.776 41.328C36.712 42.864 36.648 44.224 36.584 45.408C36.552 46.56 36.52 47.584 36.488 48.48Z" fill="black"/>
<path d="M10.5177 39.608C9.97369 39.608 9.57369 39.448 9.31769 39.128C9.09369 38.808 8.98169 38.136 8.98169 37.112C8.98169 36.76 8.98169 36.36 8.98169 35.912C9.01369 35.496 9.04569 35.064 9.07769 34.616C7.60569 34.584 6.26169 34.344 5.04569 33.896C3.82969 33.448 2.85369 32.84 2.11769 32.072C1.41369 31.272 1.06169 30.344 1.06169 29.288C1.06169 28.52 1.22169 27.912 1.54169 27.464C1.89369 26.984 2.32569 26.744 2.83769 26.744C3.09369 26.744 3.30169 26.792 3.46169 26.888C3.65369 26.952 3.81369 27.048 3.94169 27.176C5.47769 28.456 7.30169 29.24 9.41369 29.528C9.47769 28.472 9.54169 27.304 9.60569 26.024C9.70169 24.712 9.81369 23.256 9.94169 21.656C8.62969 21.336 7.38169 20.92 6.19769 20.408C5.04569 19.896 4.10169 19.192 3.36569 18.296C2.66169 17.4 2.30969 16.248 2.30969 14.84C2.30969 13.56 2.62969 12.28 3.26969 11C3.90969 9.72 4.82169 8.584 6.00569 7.592C7.22169 6.6 8.67769 5.896 10.3737 5.48C10.3737 5.32 10.3577 5.048 10.3257 4.664C10.2937 4.28 10.2617 3.896 10.2297 3.512C10.1977 3.128 10.1817 2.872 10.1817 2.744C10.1817 2.296 10.4057 1.864 10.8537 1.448C11.3337 1.032 11.9417 0.823999 12.6777 0.823999C13.5097 0.823999 13.9897 1.176 14.1177 1.88C14.2457 2.584 14.2777 3.64 14.2137 5.048C16.2297 5.08 17.9097 5.464 19.2537 6.2C20.5977 6.904 21.2697 7.768 21.2697 8.792C21.2697 9.368 21.0457 9.912 20.5977 10.424C20.1817 10.904 19.6857 11.304 19.1097 11.624C18.5337 11.912 18.0377 12.056 17.6217 12.056C17.3657 12.056 17.0457 11.912 16.6617 11.624C16.4697 11.464 16.1657 11.256 15.7497 11C15.3337 10.744 14.7097 10.504 13.8777 10.28C13.8457 11.336 13.7817 12.504 13.6857 13.784C13.6217 15.064 13.5577 16.264 13.4937 17.384C15.0297 17.704 16.3577 18.12 17.4777 18.632C18.6297 19.112 19.5257 19.8 20.1657 20.696C20.8057 21.56 21.1257 22.728 21.1257 24.2C21.1257 25.672 20.7897 27.096 20.1177 28.472C19.4457 29.848 18.4857 31.048 17.2377 32.072C15.9897 33.064 14.4857 33.784 12.7257 34.232C12.7897 34.808 12.8377 35.416 12.8697 36.056C12.9017 36.696 12.9177 37.176 12.9177 37.496C12.9177 38.2 12.6937 38.728 12.2457 39.08C11.8297 39.432 11.2537 39.608 10.5177 39.608ZM10.1817 16.52C10.2457 15.336 10.2937 14.168 10.3257 13.016C10.3577 11.864 10.3737 10.872 10.3737 10.04C9.22169 10.168 8.27769 10.52 7.54169 11.096C6.80569 11.672 6.43769 12.376 6.43769 13.208C6.43769 14.008 6.78969 14.68 7.49369 15.224C8.19769 15.768 9.09369 16.2 10.1817 16.52ZM12.9177 29.48C14.3577 29.224 15.4617 28.776 16.2297 28.136C16.9977 27.464 17.3817 26.648 17.3817 25.688C17.3817 24.76 17.0297 24.056 16.3257 23.576C15.6537 23.096 14.6137 22.68 13.2057 22.328C13.1417 23.864 13.0777 25.224 13.0137 26.408C12.9817 27.56 12.9497 28.584 12.9177 29.48Z" fill="black"/>
<path d="M22.5 42H22C15.9249 42 11 46.9249 11 53V89C11 95.0751 15.9249 100 22 100H79C85.0751 100 90 95.0751 90 89V53C90 46.9249 85.0751 42 79 42H47.6391" stroke="black" stroke-width="6" stroke-linecap="round"/>
<path d="M90 61H74.25C69.1414 61 65 65.1414 65 70.25C65 75.3586 69.1414 79.5 74.25 79.5H90" stroke="black" stroke-width="6" stroke-linecap="square"/>
<path d="M74.5 70H74.6" stroke="black" stroke-width="6" stroke-linecap="round"/>
</svg>
