<svg width="100" height="100" viewBox="0 0 100 100" fill="none" xmlns="http://www.w3.org/2000/svg">
<path d="M65.0012 66.667C64.9966 62.69 63.4146 58.878 60.6028 56.0654C57.7904 53.2536 53.9782 51.6715 50.0012 51.667V55C53.0942 55.0038 56.0597 56.2344 58.2463 58.4219C60.4338 60.6085 61.6645 63.574 61.6682 66.667H65.0012Z" fill="black"/>
<path d="M65.0012 66.667C64.9966 62.69 63.4146 58.878 60.6028 56.0654C57.7904 53.2536 53.9782 51.6715 50.0012 51.667V55C53.0942 55.0038 56.0597 56.2344 58.2463 58.4219C60.4338 60.6085 61.6645 63.574 61.6682 66.667H65.0012Z" stroke="black"/>
<path d="M50.0012 78.3341C46.9083 78.3303 43.9428 77.0996 41.7561 74.9122C39.5686 72.7255 38.338 69.76 38.3342 66.6671H35.0012C35.0058 70.644 36.5878 74.4561 39.3997 77.2686C42.212 80.0804 46.0243 81.6626 50.0012 81.6671V78.3341Z" fill="black"/>
<path d="M50.0012 78.3341C46.9083 78.3303 43.9428 77.0996 41.7561 74.9122C39.5686 72.7255 38.338 69.76 38.3342 66.6671H35.0012C35.0058 70.644 36.5878 74.4561 39.3997 77.2686C42.212 80.0804 46.0243 81.6626 50.0012 81.6671V78.3341Z" stroke="black"/>
<path d="M51.668 75.0005V73.3335H52.2939C53.4532 73.3313 54.5646 72.8703 55.3838 72.0503C56.2029 71.2304 56.6635 70.1196 56.665 68.9605V68.3335H53.332V68.9605C53.3304 69.5348 52.8646 69.9998 52.291 70.0005H47.7041C47.1626 70.0004 46.7109 69.5845 46.667 69.0445C46.6265 68.5373 46.9572 68.0814 47.4395 67.9546L47.5381 67.9331L53.0127 67.022C54.4709 66.7816 55.7094 65.8206 56.3047 64.4673C56.8991 63.1139 56.7703 61.5513 55.9609 60.314C55.1522 59.0765 53.7724 58.3313 52.2939 58.3335H51.668V56.6665H48.335V58.3335H47.708C46.548 58.335 45.4364 58.7968 44.6172 59.6167C43.7974 60.436 43.3355 61.5477 43.334 62.7076V63.3335H46.668V62.7076C46.6687 62.1331 47.1336 61.6683 47.708 61.6675H52.2979C52.8395 61.6675 53.2911 62.0834 53.335 62.6236C53.3779 63.1643 52.9996 63.6468 52.4648 63.7339L46.9893 64.6451C45.531 64.8854 44.2925 65.8473 43.6973 67.2007C43.1029 68.5542 43.2316 70.1168 44.041 71.354C44.8498 72.5915 46.2296 73.3357 47.708 73.3335H48.335V75.0005H51.668Z" fill="black"/>
<path d="M51.668 75.0005V73.3335H52.2939C53.4532 73.3313 54.5646 72.8703 55.3838 72.0503C56.2029 71.2304 56.6635 70.1196 56.665 68.9605V68.3335H53.332V68.9605C53.3304 69.5348 52.8646 69.9998 52.291 70.0005H47.7041C47.1626 70.0004 46.7109 69.5845 46.667 69.0445C46.6265 68.5373 46.9572 68.0814 47.4395 67.9546L47.5381 67.9331L53.0127 67.022C54.4709 66.7816 55.7094 65.8206 56.3047 64.4673C56.8991 63.1139 56.7703 61.5513 55.9609 60.314C55.1522 59.0765 53.7724 58.3313 52.2939 58.3335H51.668V56.6665H48.335V58.3335H47.708C46.548 58.335 45.4364 58.7968 44.6172 59.6167C43.7974 60.436 43.3355 61.5477 43.334 62.7076V63.3335H46.668V62.7076C46.6687 62.1331 47.1336 61.6683 47.708 61.6675H52.2979C52.8395 61.6675 53.2911 62.0834 53.335 62.6236C53.3779 63.1643 52.9996 63.6468 52.4648 63.7339L46.9893 64.6451C45.531 64.8854 44.2925 65.8473 43.6973 67.2007C43.1029 68.5542 43.2316 70.1168 44.041 71.354C44.8498 72.5915 46.2296 73.3357 47.708 73.3335H48.335V75.0005H51.668Z" stroke="black"/>
<path d="M48.3347 100V88.2495C48.8861 88.2926 49.4385 88.3335 50.0017 88.3335C53.4853 88.3342 56.9177 87.4884 60.0017 85.8686V93.3335H63.3347V83.7104C64.5572 82.7586 65.6747 81.6801 66.6687 80.4926V88.3335H70.0017V75.0005C72.7882 68.3132 72.0477 60.6755 68.0291 54.6479C64.0112 48.6206 57.2458 44.9995 50.0017 44.9995C42.7576 44.9995 35.9923 48.6204 31.9744 54.6479C27.9559 60.6759 27.2152 68.3138 30.0017 75.0005V93.3335H33.3347V80.4926C34.8086 82.2583 36.5532 83.7795 38.5017 85.0005H38.3347V90.0005H41.6677V86.6674C42.7481 87.1109 43.8641 87.4656 45.0017 87.729V100H48.3347ZM60.0017 82.0053C54.7568 85.4398 48.1172 85.9465 42.4119 83.3462C36.7065 80.7465 32.7323 75.4039 31.8826 69.1919C31.0336 62.9799 33.429 56.7667 38.2273 52.7309C43.0258 48.696 49.5573 47.4022 55.532 49.3032C61.5067 51.2049 66.089 56.0367 67.6716 62.103C69.2547 68.169 67.6181 74.6246 63.3347 79.2026V73.3344H60.0017V82.0053Z" fill="black"/>
<path d="M48.3347 100V88.2495C48.8861 88.2926 49.4385 88.3335 50.0017 88.3335C53.4853 88.3342 56.9177 87.4884 60.0017 85.8686V93.3335H63.3347V83.7104C64.5572 82.7586 65.6747 81.6801 66.6687 80.4926V88.3335H70.0017V75.0005C72.7882 68.3132 72.0477 60.6755 68.0291 54.6479C64.0112 48.6206 57.2458 44.9995 50.0017 44.9995C42.7576 44.9995 35.9923 48.6204 31.9744 54.6479C27.9559 60.6759 27.2152 68.3138 30.0017 75.0005V93.3335H33.3347V80.4926C34.8086 82.2583 36.5532 83.7795 38.5017 85.0005H38.3347V90.0005H41.6677V86.6674C42.7481 87.1109 43.8641 87.4656 45.0017 87.729V100H48.3347ZM60.0017 82.0053C54.7568 85.4398 48.1172 85.9465 42.4119 83.3462C36.7065 80.7465 32.7323 75.4039 31.8826 69.1919C31.0336 62.9799 33.429 56.7667 38.2273 52.7309C43.0258 48.696 49.5573 47.4022 55.532 49.3032C61.5067 51.2049 66.089 56.0367 67.6716 62.103C69.2547 68.169 67.6181 74.6246 63.3347 79.2026V73.3344H60.0017V82.0053Z" stroke="black"/>
<mask id="path-5-inside-1_2507_41" fill="white">
<path d="M60.0012 100.001H63.3346V96.6672H60.0012V100.001Z"/>
</mask>
<path d="M60.0012 100.001H63.3346V96.6672H60.0012V100.001Z" fill="black"/>
<path d="M60.0012 100.001V106.001H54.0012V100.001H60.0012ZM63.3346 100.001H69.3346V106.001H63.3346V100.001ZM63.3346 96.6672V90.6672H69.3346V96.6672H63.3346ZM60.0012 96.6672H54.0012V90.6672H60.0012V96.6672ZM60.0012 100.001V94.0005H63.3346V100.001V106.001H60.0012V100.001ZM63.3346 100.001H57.3346V96.6672H63.3346H69.3346V100.001H63.3346ZM63.3346 96.6672V102.667H60.0012V96.6672V90.6672H63.3346V96.6672ZM60.0012 96.6672H66.0012V100.001H60.0012H54.0012V96.6672H60.0012Z" fill="black" mask="url(#path-5-inside-1_2507_41)"/>
<path d="M41.6677 93.3342H38.3347V96.6672H41.6677V93.3342Z" fill="black"/>
<path d="M41.6677 93.3342H38.3347V96.6672H41.6677V93.3342Z" stroke="black"/>
<path d="M81.6675 96.6633C82.4805 96.6633 83.1747 96.0764 83.311 95.2746C83.532 93.9503 84.1618 92.7276 85.1118 91.7775C86.0619 90.8281 87.2847 90.1987 88.6099 89.9777C89.4111 89.8415 89.9976 89.1473 89.9976 88.3342C89.9974 87.5211 89.411 86.8268 88.6099 86.6906C87.2847 86.4696 86.062 85.8412 85.1118 84.8918C84.1617 83.9417 83.532 82.7191 83.311 81.3947C83.1748 80.5927 82.4807 80.006 81.6675 80.006C80.8544 80.0062 80.1601 80.5927 80.0239 81.3947C79.803 82.7191 79.1733 83.9416 78.2231 84.8918C77.2732 85.841 76.051 86.4696 74.7261 86.6906C73.9248 86.8267 73.3375 87.5211 73.3374 88.3342C73.3374 89.1474 73.9247 89.8416 74.7261 89.9777C76.0511 90.1987 77.273 90.8282 78.2231 91.7775C79.1733 92.7276 79.8029 93.9502 80.0239 95.2746C80.1602 96.0764 80.8545 96.6632 81.6675 96.6633ZM81.6675 90.715C81.0179 89.7902 80.2125 88.9837 79.2876 88.3342C80.2123 87.6847 81.018 86.879 81.6675 85.9543C82.317 86.8791 83.1235 87.6846 84.0483 88.3342C83.1235 88.9837 82.317 89.7902 81.6675 90.715Z" fill="black"/>
<path d="M81.6675 96.6633C82.4805 96.6633 83.1747 96.0764 83.311 95.2746C83.532 93.9503 84.1618 92.7276 85.1118 91.7775C86.0619 90.8281 87.2847 90.1987 88.6099 89.9777C89.4111 89.8415 89.9976 89.1473 89.9976 88.3342C89.9974 87.5211 89.411 86.8268 88.6099 86.6906C87.2847 86.4696 86.062 85.8412 85.1118 84.8918C84.1617 83.9417 83.532 82.7191 83.311 81.3947C83.1748 80.5927 82.4807 80.006 81.6675 80.006C80.8544 80.0062 80.1601 80.5927 80.0239 81.3947C79.803 82.7191 79.1733 83.9416 78.2231 84.8918C77.2732 85.841 76.051 86.4696 74.7261 86.6906C73.9248 86.8267 73.3375 87.5211 73.3374 88.3342C73.3374 89.1474 73.9247 89.8416 74.7261 89.9777C76.0511 90.1987 77.273 90.8282 78.2231 91.7775C79.1733 92.7276 79.8029 93.9502 80.0239 95.2746C80.1602 96.0764 80.8545 96.6632 81.6675 96.6633ZM81.6675 90.715C81.0179 89.7902 80.2125 88.9837 79.2876 88.3342C80.2123 87.6847 81.018 86.879 81.6675 85.9543C82.317 86.8791 83.1235 87.6846 84.0483 88.3342C83.1235 88.9837 82.317 89.7902 81.6675 90.715Z" stroke="black"/>
<path d="M33.3525 36.0031C37.8114 36.0031 42.1361 34.4727 45.6025 31.6672H64.168C66.7987 31.6663 69.2364 30.2868 70.5928 28.0324C71.9491 25.778 72.0241 22.9778 70.792 20.6535L89.6953 30.8332C90.7144 31.3791 91.852 31.6662 93.0078 31.6672C95.0329 31.6373 96.9498 30.7436 98.2734 29.2111C99.5977 27.6785 100.204 25.652 99.9395 23.6447C99.6747 21.6365 98.5631 19.8373 96.8867 18.7004L70.9365 1.40057C69.5689 0.485404 67.9603 -0.00203546 66.3145 0.000183105H0V3.33319H20V28.3332H0V31.6672H21.1025C24.5682 34.473 28.8928 36.0031 33.3525 36.0031ZM33.7119 32.6711C29.9559 32.7581 26.2866 31.5335 23.335 29.2092V3.33319H66.3164C67.3029 3.32948 68.2684 3.6203 69.0898 4.16718L95.0391 21.4728C96.0933 22.1878 96.7102 23.3915 96.6738 24.6652C96.6381 25.939 95.9543 27.1062 94.8613 27.7609C93.7684 28.415 92.4165 28.4656 91.2773 27.8957V27.8967L70.791 16.8644C70.5479 16.7337 70.2768 16.6662 70.001 16.6662H46.668C45.7476 16.6662 45.001 17.4128 45.001 18.3332C45.0011 19.2534 45.7477 19.9992 46.668 19.9992H64.168C65.6567 19.9992 67.0316 20.7938 67.7764 22.0832C68.5203 23.3726 68.5202 24.9599 67.7764 26.2492C67.0316 27.5387 65.6568 28.3332 64.168 28.3332H45.002C44.604 28.3325 44.219 28.4747 43.917 28.7336C41.0763 31.1918 37.4678 32.584 33.7119 32.6711Z" fill="black"/>
<path d="M33.3525 36.0031C37.8114 36.0031 42.1361 34.4727 45.6025 31.6672H64.168C66.7987 31.6663 69.2364 30.2868 70.5928 28.0324C71.9491 25.778 72.0241 22.9778 70.792 20.6535L89.6953 30.8332C90.7144 31.3791 91.852 31.6662 93.0078 31.6672C95.0329 31.6373 96.9498 30.7436 98.2734 29.2111C99.5977 27.6785 100.204 25.652 99.9395 23.6447C99.6747 21.6365 98.5631 19.8373 96.8867 18.7004L70.9365 1.40057C69.5689 0.485404 67.9603 -0.00203546 66.3145 0.000183105H0V3.33319H20V28.3332H0V31.6672H21.1025C24.5682 34.473 28.8928 36.0031 33.3525 36.0031ZM33.7119 32.6711C29.9559 32.7581 26.2866 31.5335 23.335 29.2092V3.33319H66.3164C67.3029 3.32948 68.2684 3.6203 69.0898 4.16718L95.0391 21.4728C96.0933 22.1878 96.7102 23.3915 96.6738 24.6652C96.6381 25.939 95.9543 27.1062 94.8613 27.7609C93.7684 28.415 92.4165 28.4656 91.2773 27.8957V27.8967L70.791 16.8644C70.5479 16.7337 70.2768 16.6662 70.001 16.6662H46.668C45.7476 16.6662 45.001 17.4128 45.001 18.3332C45.0011 19.2534 45.7477 19.9992 46.668 19.9992H64.168C65.6567 19.9992 67.0316 20.7938 67.7764 22.0832C68.5203 23.3726 68.5202 24.9599 67.7764 26.2492C67.0316 27.5387 65.6568 28.3332 64.168 28.3332H45.002C44.604 28.3325 44.219 28.4747 43.917 28.7336C41.0763 31.1918 37.4678 32.584 33.7119 32.6711Z" stroke="black"/>
<path d="M11.6682 16.6665C12.9937 16.6665 14.2659 16.1397 15.2034 15.2027C16.1409 14.2653 16.6682 12.9924 16.6682 11.6665C16.6682 10.3408 16.1407 9.06886 15.2034 8.13138C14.2661 7.19389 12.9939 6.66656 11.6682 6.66653C10.3425 6.66653 9.06959 7.19404 8.13208 8.13138C7.19485 9.06865 6.66824 10.341 6.66821 11.6665C6.66821 12.9923 7.19475 14.2652 8.13208 15.2027C9.06941 16.1402 10.3425 16.6665 11.6682 16.6665ZM12.8469 12.8452C12.37 13.3222 11.6533 13.4638 11.0305 13.2056C10.4078 12.9482 10.0012 12.3406 10.0012 11.6665C10.0013 10.7462 10.7479 9.99954 11.6682 9.99954C12.3422 9.99962 12.9498 10.4062 13.2073 11.0288C13.4654 11.6516 13.3238 12.3683 12.8469 12.8452Z" fill="black"/>
<path d="M11.6682 16.6665C12.9937 16.6665 14.2659 16.1397 15.2034 15.2027C16.1409 14.2653 16.6682 12.9924 16.6682 11.6665C16.6682 10.3408 16.1407 9.06886 15.2034 8.13138C14.2661 7.19389 12.9939 6.66656 11.6682 6.66653C10.3425 6.66653 9.06959 7.19404 8.13208 8.13138C7.19485 9.06865 6.66824 10.341 6.66821 11.6665C6.66821 12.9923 7.19475 14.2652 8.13208 15.2027C9.06941 16.1402 10.3425 16.6665 11.6682 16.6665ZM12.8469 12.8452C12.37 13.3222 11.6533 13.4638 11.0305 13.2056C10.4078 12.9482 10.0012 12.3406 10.0012 11.6665C10.0013 10.7462 10.7479 9.99954 11.6682 9.99954C12.3422 9.99962 12.9498 10.4062 13.2073 11.0288C13.4654 11.6516 13.3238 12.3683 12.8469 12.8452Z" stroke="black"/>
</svg>
