<svg width="100" height="100" viewBox="0 0 100 100" fill="none" xmlns="http://www.w3.org/2000/svg">
<path d="M58.6382 7.22089L67.4372 24.9644C68.6371 27.4343 71.8367 29.8035 74.5364 30.2572L90.4847 32.9288C100.684 34.6426 103.083 42.103 95.7341 49.4625L83.3354 61.9636C81.2357 64.0807 80.0858 68.1637 80.7357 71.0873L84.2853 86.5625C87.085 98.8115 80.6357 103.55 69.8869 97.1481L54.9386 88.2259C52.2389 86.6129 47.7894 86.6129 45.0397 88.2259L30.0913 97.1481C19.3925 103.55 12.8932 98.7611 15.6929 86.5625L19.2425 71.0873C19.8925 68.1637 18.7426 64.0807 16.6428 61.9636L4.24419 49.4625C-3.055 42.103 -0.705258 34.6426 9.49361 32.9288L25.4419 30.2572C28.0916 29.8035 31.2912 27.4343 32.4911 24.9644L41.2901 7.22089C46.0896 -2.40696 53.8887 -2.40696 58.6382 7.22089Z" fill="black"/>
</svg>
