<svg width="100" height="100" viewBox="0 0 100 100" fill="none" xmlns="http://www.w3.org/2000/svg">
<path d="M87.5 24.9166C73.625 23.5416 59.6667 22.8333 45.75 22.8333C37.5 22.8333 29.25 23.25 21 24.0833L12.5 24.9166" stroke="black" stroke-width="6" stroke-linecap="round" stroke-linejoin="round"/>
<path d="M35.416 20.7084L36.3327 15.25C36.9994 11.2917 37.4993 8.33337 44.541 8.33337H55.4577C62.4994 8.33337 63.041 11.4584 63.666 15.2917L64.5827 20.7084" stroke="black" stroke-width="6" stroke-linecap="round" stroke-linejoin="round"/>
<path d="M78.5423 38.0833L75.834 80.0417C75.3757 86.5833 75.0007 91.6667 63.3757 91.6667H36.6257C25.0007 91.6667 24.6257 86.5833 24.1673 80.0417L21.459 38.0833" stroke="black" stroke-width="6" stroke-linecap="round" stroke-linejoin="round"/>
<path d="M43.042 68.75H56.917" stroke="black" stroke-width="6" stroke-linecap="round" stroke-linejoin="round"/>
<path d="M39.584 52.0834H60.4173" stroke="black" stroke-width="6" stroke-linecap="round" stroke-linejoin="round"/>
</svg>
