<svg width="100" height="100" viewBox="0 0 100 100" fill="none" xmlns="http://www.w3.org/2000/svg">
<path d="M87.8333 35.7502V64.25C87.8333 68.9167 85.3333 73.2502 81.2917 75.6252L56.5417 89.9168C52.5 92.2502 47.5 92.2502 43.4167 89.9168L18.6667 75.6252C14.625 73.2919 12.125 68.9584 12.125 64.25V35.7502C12.125 31.0835 14.625 26.75 18.6667 24.375L43.4167 10.0834C47.4583 7.75004 52.4583 7.75004 56.5417 10.0834L81.2917 24.375C85.3333 26.75 87.8333 31.0418 87.8333 35.7502Z" stroke="black" stroke-width="6" stroke-linecap="round" stroke-linejoin="round"/>
<path d="M50.0003 45.8333C55.3621 45.8333 59.7087 41.4867 59.7087 36.1249C59.7087 30.7632 55.3621 26.4168 50.0003 26.4168C44.6386 26.4168 40.292 30.7632 40.292 36.1249C40.292 41.4867 44.6386 45.8333 50.0003 45.8333Z" stroke="black" stroke-width="6" stroke-linecap="round" stroke-linejoin="round"/>
<path d="M66.6673 69.4166C66.6673 61.9166 59.209 55.8334 50.0007 55.8334C40.7923 55.8334 33.334 61.9166 33.334 69.4166" stroke="black" stroke-width="6" stroke-linecap="round" stroke-linejoin="round"/>
</svg>
