<svg width="90" height="69" viewBox="0 0 90 69" fill="none" xmlns="http://www.w3.org/2000/svg">
<line x1="9.12132" y1="2.12132" x2="73.468" y2="66.468" stroke="black" stroke-width="6"/>
<path d="M57 36.7426C57 29.8389 51.4038 24.2426 44.5 24.2426C37.5963 24.2426 32 29.8389 32 36.7426C32 43.6464 37.5963 49.2426 44.5 49.2426C51.4038 49.2426 57 43.6464 57 36.7426Z" stroke="black" stroke-width="6"/>
<path d="M26.4775 15.7192C24.7166 16.7847 23.0346 17.9617 21.4375 19.2085C14.9621 24.2637 10.0974 30.3096 7.34277 34.1723C6.66438 35.1235 6.33375 35.5976 6.13574 35.978C5.99936 36.2401 6 36.3193 6 36.4096C6 36.4999 5.99967 36.5787 6.13574 36.8403C6.33372 37.2206 6.66439 37.6957 7.34277 38.6469C10.0974 42.5097 14.9624 48.5557 21.4375 53.6108C27.9189 58.6707 35.8018 62.5756 44.667 62.5756C52.6301 62.5756 59.7998 59.424 65.874 55.1157L70.1719 59.4135C63.2918 64.4718 54.6425 68.5756 44.667 68.5756C33.9942 68.5756 24.8391 63.8784 17.7451 58.3403C11.0887 53.1437 6.05809 47.0636 3.03516 42.9301L2.45801 42.1303C1.35167 40.5791 0.000118335 38.87 0 36.4096C0.000146524 33.9491 1.35163 32.2393 2.45801 30.688C5.39534 26.5691 10.6452 20.0218 17.7451 14.479C19.1277 13.3996 20.5889 12.3527 22.124 11.3657L26.4775 15.7192ZM44.667 4.24264C55.3397 4.24274 64.4949 8.94087 71.5889 14.479C78.6886 20.0217 83.9386 26.5692 86.876 30.688C87.9822 32.2393 89.3329 33.9491 89.333 36.4096C89.3329 38.5624 88.2985 40.1396 87.2988 41.5395L86.876 42.1303C84.2313 45.8387 79.7099 51.5136 73.6533 56.6538L69.3955 52.396C75.1238 47.6137 79.4536 42.2052 81.9912 38.6469C82.6696 37.6956 82.9993 37.2207 83.1973 36.8403C83.3335 36.5785 83.333 36.4999 83.333 36.4096C83.333 36.3193 83.3337 36.2401 83.1973 35.978C82.9993 35.5977 82.6693 35.1232 81.9912 34.1723C79.2365 30.3096 74.3716 24.2636 67.8965 19.2085C61.415 14.1486 53.5321 10.2427 44.667 10.2426C39.6134 10.2427 34.8804 11.5147 30.543 13.5434L26.0664 9.06686C31.5391 6.1959 37.7874 4.24269 44.667 4.24264Z" fill="black"/>
</svg>
