<svg width="90" height="65" viewBox="0 0 90 65" fill="none" xmlns="http://www.w3.org/2000/svg">
<path d="M84.4334 28.1875C85.7 29.9638 86.3333 30.8521 86.3333 32.1667C86.3333 33.4813 85.7 34.3696 84.4334 36.1458C78.7413 44.1275 64.205 61.3333 44.6667 61.3333C25.1283 61.3333 10.5921 44.1275 4.90017 36.1458C3.63337 34.3696 3 33.4813 3 32.1667C3 30.8521 3.63337 29.9638 4.90017 28.1875C10.5921 20.206 25.1283 3 44.6667 3C64.205 3 78.7413 20.206 84.4334 28.1875Z" stroke="black" stroke-width="6"/>
<path d="M56.9998 32.4996C56.9998 25.5959 51.4035 19.9996 44.4998 19.9996C37.596 19.9996 31.9998 25.5959 31.9998 32.4996C31.9998 39.4034 37.596 44.9996 44.4998 44.9996C51.4035 44.9996 56.9998 39.4034 56.9998 32.4996Z" stroke="black" stroke-width="6"/>
</svg>
